<?xml version="1.0" encoding="UTF-8" standalone="no"?>
<svg
   xmlns:dc="http://purl.org/dc/elements/1.1/"
   xmlns:cc="http://creativecommons.org/ns#"
   xmlns:rdf="http://www.w3.org/1999/02/22-rdf-syntax-ns#"
   xmlns:svg="http://www.w3.org/2000/svg"
   xmlns="http://www.w3.org/2000/svg"
   version="1.1"
   id="svg2"
   xml:space="preserve"
   width="377.94666"
   height="377.94666"
   viewBox="0 0 377.94666 377.94666"><metadata
     id="metadata8"><rdf:RDF><cc:Work
         rdf:about=""><dc:format>image/svg+xml</dc:format><dc:type
           rdf:resource="http://purl.org/dc/dcmitype/StillImage" /><dc:title></dc:title></cc:Work></rdf:RDF></metadata><defs
     id="defs6"><clipPath
       clipPathUnits="userSpaceOnUse"
       id="clipPath18"><path
         d="M 0,283.46 H 283.46 V 0 H 0 Z"
         id="path16" /></clipPath></defs><g
     id="g10"
     transform="matrix(1.3333333,0,0,-1.3333333,0,377.94667)"><g
       id="g12"><g
         id="g14"
         clip-path="url(#clipPath18)"><rect
           style="fill:#ffffff;stroke-width:8.00146;stop-color:#000000"
           id="rect1163"
           width="283.37488"
           height="283.33115"
           x="0.24148974"
           y="-283.33926"
           transform="scale(1,-1)" /><g
           id="g20"
           transform="translate(223.585,155.6665)"><path
             d="m 0,0 c 0,-58.98 -47.813,-106.794 -106.793,-106.794 -58.985,0 -106.801,47.814 -106.801,106.794 0,58.987 47.816,106.797 106.801,106.797 C -47.813,106.797 0,58.987 0,0"
             style="fill:#f27126;fill-opacity:1;fill-rule:nonzero;stroke:none"
             id="path22" /></g><g
           id="g24"
           transform="translate(223.585,155.6665)"><path
             d="m 0,0 c 0,-58.98 -47.813,-106.794 -106.793,-106.794 -58.985,0 -106.801,47.814 -106.801,106.794 0,58.987 47.816,106.797 106.801,106.797 C -47.813,106.797 0,58.987 0,0 Z"
             style="fill:none;stroke:#f27126;stroke-width:3.054;stroke-linecap:butt;stroke-linejoin:miter;stroke-miterlimit:10;stroke-dasharray:none;stroke-opacity:1"
             id="path26" /></g><g
           id="g28"
           transform="translate(187.6563,190.9751)"><path
             d="m 0,0 c 0.626,-2.553 -0.936,-5.129 -3.488,-5.76 -2.556,-0.623 -5.137,0.939 -5.759,3.495 l -3.969,16.18 c -0.628,2.555 0.936,5.13 3.493,5.76 2.552,0.628 5.129,-0.936 5.757,-3.493 z"
             style="fill:#3163b7;fill-opacity:1;fill-rule:nonzero;stroke:none"
             id="path30" /></g><g
           id="g32"
           transform="translate(221.6328,212.3628)"><path
             d="m 0,0 c 0.889,-2.474 -0.396,-5.202 -2.865,-6.094 -2.479,-0.894 -5.207,0.395 -6.099,2.863 l -5.635,15.677 c -0.894,2.481 0.388,5.205 2.861,6.096 2.47,0.89 5.204,-0.393 6.087,-2.864 z"
             style="fill:#3163b7;fill-opacity:1;fill-rule:nonzero;stroke:none"
             id="path34" /></g><g
           id="g36"
           transform="translate(160.9541,224.2222)"><path
             d="M 0,0 C -1.349,-1.42 -3.794,-1.28 -5.458,0.31 -7.133,1.892 -7.392,4.331 -6.047,5.746 L 2.481,14.72 C 3.828,16.128 6.27,15.99 7.94,14.404 9.609,12.814 9.875,10.382 8.525,8.967 Z"
             style="fill:#3163b7;fill-opacity:1;fill-rule:nonzero;stroke:none"
             id="path38" /></g><g
           id="g40"
           transform="translate(170.1328,223.5601)"><path
             d="m 0,0 c 1.593,-1.13 1.809,-3.567 0.476,-5.449 -1.326,-1.879 -3.7,-2.493 -5.296,-1.365 l -10.106,7.15 c -1.596,1.125 -1.805,3.562 -0.475,5.444 1.327,1.878 3.7,2.488 5.291,1.362 z"
             style="fill:#3163b7;fill-opacity:1;fill-rule:nonzero;stroke:none"
             id="path42" /></g><g
           id="g44"
           transform="translate(181.6162,210.3579)"><path
             d="M 0,0 C 2.039,-1.661 2.345,-4.661 0.684,-6.7 -0.979,-8.736 -3.98,-9.046 -6.019,-7.378 L -18.928,3.14 c -2.039,1.665 -2.343,4.661 -0.686,6.7 1.659,2.042 4.659,2.344 6.693,0.688 z"
             style="fill:#3163b7;fill-opacity:1;fill-rule:nonzero;stroke:none"
             id="path46" /></g><g
           id="g48"
           transform="translate(209.8359,230.8857)"><path
             d="M 0,0 C 2.468,0.925 5.209,-0.334 6.132,-2.792 7.049,-5.254 5.798,-8 3.342,-8.919 l -15.611,-5.828 c -2.465,-0.928 -5.209,0.324 -6.128,2.785 -0.922,2.467 0.333,5.207 2.795,6.128 z"
             style="fill:#3163b7;fill-opacity:1;fill-rule:nonzero;stroke:none"
             id="path50" /></g><g
           id="g52"
           transform="translate(251.7354,204.8311)"><path
             d="m 0,0 c 0.624,-2.558 -0.938,-5.134 -3.49,-5.756 -2.559,-0.624 -5.134,0.937 -5.759,3.489 l -3.966,16.184 c -0.627,2.552 0.936,5.129 3.49,5.759 2.555,0.63 5.131,-0.937 5.761,-3.491 z"
             style="fill:#3163b7;fill-opacity:1;fill-rule:nonzero;stroke:none"
             id="path54" /></g><g
           id="g56"
           transform="translate(245.6943,224.2163)"><path
             d="m 0,0 c 2.037,-1.664 2.34,-4.665 0.686,-6.703 -1.662,-2.034 -4.661,-2.343 -6.7,-0.68 L -18.931,3.142 c -2.038,1.657 -2.343,4.661 -0.676,6.695 1.652,2.042 4.651,2.347 6.69,0.692 z"
             style="fill:#3163b7;fill-opacity:1;fill-rule:nonzero;stroke:none"
             id="path58" /></g><g
           id="g60"
           transform="translate(237.5127,231.9155)"><path
             d="m 0,0 c -0.035,-2.648 -2.912,-4.76 -6.423,-4.724 -3.511,0.041 -6.336,2.219 -6.303,4.871 l 0.19,16.781 c 0.03,2.654 2.907,4.767 6.413,4.725 3.514,-0.042 6.342,-2.221 6.313,-4.872 z"
             style="fill:#3163b7;fill-opacity:1;fill-rule:nonzero;stroke:none"
             id="path62" /></g><g
           id="g64"
           transform="translate(203.0176,222.8208)"><path
             d="m 0,0 c 0.758,-2.536 -1.345,-5.421 -4.709,-6.435 -3.362,-1.013 -6.709,0.219 -7.472,2.753 l -4.855,16.064 c -0.769,2.539 1.344,5.417 4.701,6.431 3.364,1.016 6.714,-0.218 7.481,-2.751 z"
             style="fill:#3163b7;fill-opacity:1;fill-rule:nonzero;stroke:none"
             id="path66" /></g><g
           id="g68"
           transform="translate(224.3799,226.8301)"><path
             d="m 0,0 c -0.017,-0.235 -0.439,-3.4 -0.435,-3.642 l 0.152,-21.579 c 0.023,-3.404 2.178,-6.146 4.811,-6.131 2.625,0.016 4.731,2.79 4.71,6.202 L 9.016,-8.072 Z"
             style="fill:#3163b7;fill-opacity:1;fill-rule:nonzero;stroke:none"
             id="path70" /></g><g
           id="g72"
           transform="translate(161.4639,211.4106)"><path
             d="m 0,0 c -0.021,-0.241 -0.444,-3.407 -0.442,-3.646 l 0.153,-21.574 c 0.03,-3.407 2.183,-6.153 4.808,-6.132 2.63,0.017 4.742,2.793 4.716,6.195 L 9.014,-8.07 Z"
             style="fill:#3163b7;fill-opacity:1;fill-rule:nonzero;stroke:none"
             id="path74" /></g><g
           id="g76"
           transform="translate(211.2969,205.3491)"><path
             d="m 0,0 c 1.426,-5.828 -2.137,-11.71 -7.963,-13.136 -5.826,-1.427 -11.702,2.136 -13.136,7.968 -1.427,5.822 2.141,11.7 7.962,13.127 C -7.308,9.391 -1.427,5.825 0,0 Z"
             style="fill:none;stroke:#3163b7;stroke-width:4.345;stroke-linecap:butt;stroke-linejoin:miter;stroke-miterlimit:10;stroke-dasharray:none;stroke-opacity:1"
             id="path78" /></g><g
           id="g80"
           transform="translate(244.3818,246.8643)"><path
             d="M 0,0 C 1.928,0.292 3.765,-1.327 4.106,-3.605 4.441,-5.88 3.148,-7.956 1.214,-8.249 l -12.239,-1.802 c -1.93,-0.288 -3.773,1.327 -4.105,3.605 -0.342,2.279 0.957,4.356 2.884,4.637 z"
             style="fill:#3163b7;fill-opacity:1;fill-rule:nonzero;stroke:none"
             id="path82" /></g><g
           id="g84"
           transform="translate(198.5986,217.7822)"><path
             d="m 0,0 c 0.059,-0.974 -0.683,-1.822 -1.662,-1.88 l -26.979,-1.701 c -0.975,-0.06 -1.823,0.684 -1.88,1.659 -0.064,0.975 0.681,1.817 1.657,1.88 L -1.881,1.657 C -0.905,1.72 -0.063,0.976 0,0"
             style="fill:#3163b7;fill-opacity:1;fill-rule:nonzero;stroke:none"
             id="path86" /></g><g
           id="g88"
           transform="translate(246.8525,242.7188)"><path
             d="m 0,0 c 0.477,-0.858 0.034,-2.013 -0.985,-2.587 l -28.218,-15.794 c -1.021,-0.573 -2.239,-0.34 -2.715,0.514 -0.474,0.849 -0.036,2.011 0.981,2.58 L -2.714,0.507 C -1.695,1.087 -0.483,0.855 0,0"
             style="fill:#3163b7;fill-opacity:1;fill-rule:nonzero;stroke:none"
             id="path90" /></g><g
           id="g92"
           transform="translate(170.5391,253.7422)"><path
             d="m 0,0 c 3.812,2.87 10.205,0.479 10.855,-4.436 1.238,-5.04 -4.387,-9.925 -9.222,-7.88 C -3.57,-10.644 -4.727,-2.913 0,0"
             style="fill:#3163b7;fill-opacity:1;fill-rule:nonzero;stroke:none"
             id="path94" /></g><g
           id="g96"
           transform="translate(233.4443,268.7578)"><path
             d="M 0,0 C 3.817,2.873 10.209,0.47 10.862,-4.438 12.097,-9.475 6.469,-14.36 1.638,-12.316 -3.565,-10.648 -4.723,-2.915 0,0"
             style="fill:#3163b7;fill-opacity:1;fill-rule:nonzero;stroke:none"
             id="path98" /></g><g
           id="g100"
           transform="translate(173.4287,218.0547)"><path
             d="m 0,0 c -0.025,-2.646 -2.907,-4.757 -6.414,-4.714 -3.514,0.034 -6.338,2.217 -6.308,4.864 l 0.192,16.788 c 0.029,2.647 2.904,4.76 6.417,4.718 3.509,-0.043 6.336,-2.218 6.308,-4.865 z"
             style="fill:#3163b7;fill-opacity:1;fill-rule:nonzero;stroke:none"
             id="path102" /></g><g
           id="g104"
           transform="translate(189.2012,255.5093)"><path
             d="M 0,0 C 3.492,3.254 10.104,1.552 11.262,-3.267 13.026,-8.156 7.943,-13.598 2.92,-12.078 -2.429,-10.957 -4.394,-3.389 0,0"
             style="fill:#3163b7;fill-opacity:1;fill-rule:nonzero;stroke:none"
             id="path106" /></g><g
           id="g108"
           transform="translate(12.7905,14.6123)"><path
             d="M 0,0 C 1.682,0.499 3.276,0.909 4.784,1.221 6.289,1.536 7.685,1.747 8.97,1.857 9.798,1.928 10.393,1.878 10.757,1.708 11.122,1.538 11.324,1.231 11.361,0.789 11.4,0.331 10.921,0.008 9.925,-0.183 9.398,-0.286 8.967,-0.375 8.632,-0.45 6.543,-0.925 4.383,-1.528 2.145,-2.264 c -2.236,-0.734 -3.481,-1.11 -3.731,-1.132 -0.518,-0.044 -0.912,0.094 -1.185,0.412 -0.272,0.32 -0.438,0.827 -0.498,1.521 -0.068,0.799 0.337,3.546 1.217,8.24 0.879,4.696 2.024,9.866 3.433,15.506 0.034,0.121 0.079,0.288 0.135,0.502 0.446,1.75 1.135,2.663 2.066,2.743 0.856,0.074 1.564,0.029 2.121,-0.132 0.557,-0.16 0.848,-0.41 0.878,-0.75 C 6.604,24.381 6.429,23.902 6.055,23.217 L 6.019,23.123 C 4.383,18.237 3.041,13.771 1.994,9.723 0.947,5.675 0.282,2.432 0,0"
             style="fill:#f27126;fill-opacity:1;fill-rule:nonzero;stroke:none"
             id="path110" /></g><g
           id="g112"
           transform="translate(12.7905,14.6123)"><path
             d="M 0,0 C 1.682,0.499 3.276,0.909 4.784,1.221 6.289,1.536 7.685,1.747 8.97,1.857 9.798,1.928 10.393,1.878 10.757,1.708 11.122,1.538 11.324,1.231 11.361,0.789 11.4,0.331 10.921,0.008 9.925,-0.183 9.398,-0.286 8.967,-0.375 8.632,-0.45 6.543,-0.925 4.383,-1.528 2.145,-2.264 c -2.236,-0.734 -3.481,-1.11 -3.731,-1.132 -0.518,-0.044 -0.912,0.094 -1.185,0.412 -0.272,0.32 -0.438,0.827 -0.498,1.521 -0.068,0.799 0.337,3.546 1.217,8.24 0.879,4.696 2.024,9.866 3.433,15.506 0.034,0.121 0.079,0.288 0.135,0.502 0.446,1.75 1.135,2.663 2.066,2.743 0.856,0.074 1.564,0.029 2.121,-0.132 0.557,-0.16 0.848,-0.41 0.878,-0.75 C 6.604,24.381 6.429,23.902 6.055,23.217 L 6.019,23.123 C 4.383,18.237 3.041,13.771 1.994,9.723 0.947,5.675 0.282,2.432 0,0 Z"
             style="fill:none;stroke:#f27126;stroke-width:0.84;stroke-linecap:round;stroke-linejoin:round;stroke-miterlimit:10;stroke-dasharray:none;stroke-opacity:1"
             id="path114" /></g><g
           id="g116"
           transform="translate(32.9429,24.0977)"><path
             d="m 0,0 c -0.018,0.207 -0.091,0.368 -0.221,0.484 -0.128,0.114 -0.297,0.163 -0.503,0.148 -0.503,-0.046 -1.05,-0.434 -1.641,-1.168 -0.594,-0.736 -1.162,-1.737 -1.71,-3.003 -0.52,-1.222 -0.921,-2.367 -1.203,-3.439 -0.279,-1.075 -0.397,-1.876 -0.352,-2.41 0.034,-0.218 0.08,-0.362 0.137,-0.423 0.057,-0.062 0.145,-0.078 0.262,-0.055 0.295,0.025 0.69,0.32 1.185,0.881 0.496,0.564 0.988,1.29 1.477,2.179 0.762,1.376 1.386,2.772 1.875,4.192 C -0.204,-1.196 0.026,-0.323 0,0 m -0.845,-7.126 c -0.624,-1.408 -1.341,-2.514 -2.149,-3.32 -0.812,-0.806 -1.636,-1.243 -2.477,-1.318 -0.68,-0.055 -1.253,0.15 -1.717,0.625 -0.464,0.477 -0.731,1.112 -0.798,1.909 -0.09,1.047 0.012,2.204 0.306,3.463 0.296,1.26 0.778,2.579 1.448,3.965 0.637,1.422 1.363,2.563 2.174,3.42 0.813,0.858 1.597,1.32 2.35,1.381 0.399,0.037 0.777,-0.035 1.134,-0.214 C -0.217,2.609 0.153,2.306 0.532,1.876 0.819,1.989 1.05,2.069 1.225,2.114 1.399,2.157 1.569,2.187 1.731,2.202 2.263,2.247 2.708,2.169 3.068,1.97 3.428,1.768 3.621,1.508 3.649,1.182 3.667,0.974 3.51,0.446 3.179,-0.398 2.897,-1.093 2.678,-1.663 2.522,-2.108 2.067,-3.397 1.721,-4.563 1.482,-5.611 1.244,-6.657 1.143,-7.387 1.177,-7.804 1.196,-8.021 1.24,-8.177 1.306,-8.261 c 0.067,-0.082 0.173,-0.119 0.32,-0.103 0.223,0.017 0.517,0.266 0.886,0.756 0.367,0.482 0.982,1.454 1.839,2.914 0.155,0.264 0.336,0.592 0.541,0.982 0.217,0.42 0.384,0.636 0.502,0.645 0.163,0.012 0.335,-0.09 0.519,-0.314 0.182,-0.222 0.282,-0.43 0.298,-0.621 0.02,-0.235 -0.171,-0.784 -0.574,-1.645 -0.404,-0.86 -0.912,-1.77 -1.531,-2.73 -0.473,-0.741 -0.915,-1.274 -1.326,-1.6 -0.41,-0.325 -0.853,-0.506 -1.326,-0.545 -0.65,-0.057 -1.172,0.132 -1.567,0.569 -0.393,0.433 -0.627,1.079 -0.7,1.936 -0.02,0.238 -0.032,0.421 -0.036,0.554 -0.005,0.135 -0.003,0.247 0.004,0.337"
             style="fill:#f27126;fill-opacity:1;fill-rule:nonzero;stroke:none"
             id="path118" /></g><g
           id="g120"
           transform="translate(32.9429,24.0977)"><path
             d="m 0,0 c -0.018,0.207 -0.091,0.368 -0.221,0.484 -0.128,0.114 -0.297,0.163 -0.503,0.148 -0.503,-0.046 -1.05,-0.434 -1.641,-1.168 -0.594,-0.736 -1.162,-1.737 -1.71,-3.003 -0.52,-1.222 -0.921,-2.367 -1.203,-3.439 -0.279,-1.075 -0.397,-1.876 -0.352,-2.41 0.034,-0.218 0.08,-0.362 0.137,-0.423 0.057,-0.062 0.145,-0.078 0.262,-0.055 0.295,0.025 0.69,0.32 1.185,0.881 0.496,0.564 0.988,1.29 1.477,2.179 0.762,1.376 1.386,2.772 1.875,4.192 C -0.204,-1.196 0.026,-0.323 0,0 Z m -0.845,-7.126 c -0.624,-1.408 -1.341,-2.514 -2.149,-3.32 -0.812,-0.806 -1.636,-1.243 -2.477,-1.318 -0.68,-0.055 -1.253,0.15 -1.717,0.625 -0.464,0.477 -0.731,1.112 -0.798,1.909 -0.09,1.047 0.012,2.204 0.306,3.463 0.296,1.26 0.778,2.579 1.448,3.965 0.637,1.422 1.363,2.563 2.174,3.42 0.813,0.858 1.597,1.32 2.35,1.381 0.399,0.037 0.777,-0.035 1.134,-0.214 C -0.217,2.609 0.153,2.306 0.532,1.876 0.819,1.989 1.05,2.069 1.225,2.114 1.399,2.157 1.569,2.187 1.731,2.202 2.263,2.247 2.708,2.169 3.068,1.97 3.428,1.768 3.621,1.508 3.649,1.182 3.667,0.974 3.51,0.446 3.179,-0.398 2.897,-1.093 2.678,-1.663 2.522,-2.108 2.067,-3.397 1.721,-4.563 1.482,-5.611 1.244,-6.657 1.143,-7.387 1.177,-7.804 1.196,-8.021 1.24,-8.177 1.306,-8.261 c 0.067,-0.082 0.173,-0.119 0.32,-0.103 0.223,0.017 0.517,0.266 0.886,0.756 0.367,0.482 0.982,1.454 1.839,2.914 0.155,0.264 0.336,0.592 0.541,0.982 0.217,0.42 0.384,0.636 0.502,0.645 0.163,0.012 0.335,-0.09 0.519,-0.314 0.182,-0.222 0.282,-0.43 0.298,-0.621 0.02,-0.235 -0.171,-0.784 -0.574,-1.645 -0.404,-0.86 -0.912,-1.77 -1.531,-2.73 -0.473,-0.741 -0.915,-1.274 -1.326,-1.6 -0.41,-0.325 -0.853,-0.506 -1.326,-0.545 -0.65,-0.057 -1.172,0.132 -1.567,0.569 -0.393,0.433 -0.627,1.079 -0.7,1.936 -0.02,0.238 -0.032,0.421 -0.036,0.554 -0.005,0.135 -0.003,0.247 0.004,0.337 z"
             style="fill:none;stroke:#f27126;stroke-width:0.84;stroke-linecap:round;stroke-linejoin:round;stroke-miterlimit:10;stroke-dasharray:none;stroke-opacity:1"
             id="path122" /></g><g
           id="g124"
           transform="translate(50.771,27.0449)"><path
             d="M 0,0 C -0.295,0.153 -0.509,0.299 -0.64,0.438 -0.77,0.576 -0.844,0.74 -0.86,0.932 -0.9,1.405 -0.673,1.894 -0.182,2.395 0.312,2.9 0.875,3.182 1.511,3.233 1.835,3.261 2.113,3.19 2.343,3.026 2.573,2.857 2.699,2.643 2.723,2.377 2.733,2.244 2.729,2.071 2.711,1.861 2.691,1.652 2.656,1.413 2.604,1.14 L 4.149,0.824 C 4.224,0.995 4.332,1.169 4.473,1.354 4.613,1.537 4.787,1.726 4.994,1.923 5.123,1.978 5.239,2.022 5.339,2.052 5.44,2.084 5.521,2.102 5.581,2.106 5.935,2.137 6.3,2.042 6.677,1.82 7.053,1.599 7.252,1.35 7.277,1.067 7.295,0.848 7.239,0.625 7.11,0.406 6.979,0.188 6.756,-0.07 6.438,-0.364 5.626,-2.012 5.041,-3.557 4.679,-5.002 4.319,-6.447 4.187,-7.723 4.281,-8.831 c 0.031,-0.355 0.113,-0.64 0.252,-0.858 0.138,-0.219 0.294,-0.32 0.472,-0.307 0.457,0.04 0.956,0.439 1.494,1.198 0.538,0.762 1.076,1.833 1.611,3.217 0.062,0.153 0.141,0.362 0.239,0.623 0.237,0.691 0.461,1.044 0.667,1.063 C 9.209,-3.88 9.4,-3.944 9.59,-4.092 9.782,-4.241 9.887,-4.408 9.903,-4.602 9.922,-4.821 9.828,-5.21 9.623,-5.765 9.417,-6.318 9.122,-6.968 8.74,-7.716 7.938,-9.301 7.244,-10.389 6.662,-10.972 6.079,-11.555 5.418,-11.88 4.681,-11.943 c -0.843,-0.073 -1.523,0.133 -2.04,0.616 -0.518,0.484 -0.816,1.185 -0.894,2.1 -0.077,0.918 -0.017,1.992 0.185,3.221 0.199,1.229 0.55,2.655 1.051,4.277 L 1.733,-1.46 C 1.146,-3.653 0.625,-5.229 0.172,-6.189 -0.282,-7.151 -0.73,-7.65 -1.174,-7.689 -1.351,-7.703 -1.5,-7.655 -1.622,-7.55 c -0.121,0.111 -0.19,0.269 -0.207,0.476 -0.004,0.057 0.078,0.319 0.245,0.778 C -0.853,-4.208 -0.325,-2.11 0,0"
             style="fill:#f27126;fill-opacity:1;fill-rule:nonzero;stroke:none"
             id="path126" /></g><g
           id="g128"
           transform="translate(50.771,27.0449)"><path
             d="M 0,0 C -0.295,0.153 -0.509,0.299 -0.64,0.438 -0.77,0.576 -0.844,0.74 -0.86,0.932 -0.9,1.405 -0.673,1.894 -0.182,2.395 0.312,2.9 0.875,3.182 1.511,3.233 1.835,3.261 2.113,3.19 2.343,3.026 2.573,2.857 2.699,2.643 2.723,2.377 2.733,2.244 2.729,2.071 2.711,1.861 2.691,1.652 2.656,1.413 2.604,1.14 L 4.149,0.824 C 4.224,0.995 4.332,1.169 4.473,1.354 4.613,1.537 4.787,1.726 4.994,1.923 5.123,1.978 5.239,2.022 5.339,2.052 5.44,2.084 5.521,2.102 5.581,2.106 5.935,2.137 6.3,2.042 6.677,1.82 7.053,1.599 7.252,1.35 7.277,1.067 7.295,0.848 7.239,0.625 7.11,0.406 6.979,0.188 6.756,-0.07 6.438,-0.364 5.626,-2.012 5.041,-3.557 4.679,-5.002 4.319,-6.447 4.187,-7.723 4.281,-8.831 c 0.031,-0.355 0.113,-0.64 0.252,-0.858 0.138,-0.219 0.294,-0.32 0.472,-0.307 0.457,0.04 0.956,0.439 1.494,1.198 0.538,0.762 1.076,1.833 1.611,3.217 0.062,0.153 0.141,0.362 0.239,0.623 0.237,0.691 0.461,1.044 0.667,1.063 C 9.209,-3.88 9.4,-3.944 9.59,-4.092 9.782,-4.241 9.887,-4.408 9.903,-4.602 9.922,-4.821 9.828,-5.21 9.623,-5.765 9.417,-6.318 9.122,-6.968 8.74,-7.716 7.938,-9.301 7.244,-10.389 6.662,-10.972 6.079,-11.555 5.418,-11.88 4.681,-11.943 c -0.843,-0.073 -1.523,0.133 -2.04,0.616 -0.518,0.484 -0.816,1.185 -0.894,2.1 -0.077,0.918 -0.017,1.992 0.185,3.221 0.199,1.229 0.55,2.655 1.051,4.277 L 1.733,-1.46 C 1.146,-3.653 0.625,-5.229 0.172,-6.189 -0.282,-7.151 -0.73,-7.65 -1.174,-7.689 -1.351,-7.703 -1.5,-7.655 -1.622,-7.55 c -0.121,0.111 -0.19,0.269 -0.207,0.476 -0.004,0.057 0.078,0.319 0.245,0.778 C -0.853,-4.208 -0.325,-2.11 0,0 Z"
             style="fill:none;stroke:#f27126;stroke-width:0.84;stroke-linecap:round;stroke-linejoin:round;stroke-miterlimit:10;stroke-dasharray:none;stroke-opacity:1"
             id="path130" /></g><g
           id="g132"
           transform="translate(65.7627,26.8945)"><path
             d="M 0,0 C -0.017,0.206 -0.09,0.369 -0.22,0.483 -0.348,0.6 -0.517,0.649 -0.724,0.631 -1.225,0.589 -1.773,0.2 -2.365,-0.534 c -0.593,-0.738 -1.161,-1.737 -1.709,-3.005 -0.521,-1.219 -0.921,-2.364 -1.203,-3.44 -0.278,-1.074 -0.396,-1.875 -0.352,-2.408 0.034,-0.221 0.079,-0.36 0.137,-0.421 0.058,-0.063 0.144,-0.082 0.261,-0.056 0.295,0.027 0.691,0.317 1.187,0.884 0.495,0.561 0.987,1.288 1.476,2.177 0.762,1.375 1.386,2.771 1.876,4.188 C -0.203,-1.195 0.028,-0.323 0,0 m -0.844,-7.125 c -0.624,-1.408 -1.34,-2.516 -2.149,-3.321 -0.811,-0.802 -1.635,-1.241 -2.477,-1.315 -0.68,-0.057 -1.251,0.151 -1.717,0.623 -0.463,0.475 -0.731,1.11 -0.799,1.909 -0.088,1.047 0.013,2.202 0.307,3.464 0.296,1.259 0.778,2.581 1.448,3.965 0.638,1.422 1.364,2.563 2.174,3.42 0.814,0.858 1.597,1.318 2.351,1.384 C -1.307,3.036 -0.93,2.966 -0.573,2.786 -0.216,2.608 0.153,2.306 0.533,1.877 0.82,1.99 1.051,2.068 1.227,2.113 1.401,2.158 1.57,2.187 1.731,2.202 2.264,2.246 2.709,2.169 3.068,1.971 3.428,1.771 3.623,1.507 3.65,1.182 3.667,0.976 3.511,0.449 3.182,-0.396 2.898,-1.092 2.679,-1.661 2.524,-2.106 2.068,-3.394 1.721,-4.562 1.483,-5.61 1.245,-6.657 1.143,-7.388 1.179,-7.799 1.197,-8.022 1.24,-8.177 1.307,-8.258 c 0.066,-0.085 0.174,-0.119 0.32,-0.107 0.222,0.017 0.517,0.271 0.886,0.757 0.367,0.485 0.982,1.457 1.839,2.912 0.156,0.267 0.336,0.593 0.542,0.985 0.216,0.419 0.383,0.634 0.502,0.648 C 5.557,-3.051 5.73,-3.158 5.914,-3.381 6.096,-3.603 6.196,-3.81 6.212,-4.002 6.232,-4.238 6.041,-4.786 5.638,-5.646 5.234,-6.508 4.725,-7.417 4.107,-8.377 3.635,-9.117 3.192,-9.65 2.781,-9.976 2.37,-10.298 1.928,-10.482 1.455,-10.522 c -0.65,-0.057 -1.172,0.134 -1.567,0.569 -0.393,0.433 -0.626,1.081 -0.7,1.939 -0.02,0.235 -0.033,0.42 -0.037,0.556 -0.004,0.132 -0.001,0.245 0.005,0.333"
             style="fill:#f27126;fill-opacity:1;fill-rule:nonzero;stroke:none"
             id="path134" /></g><g
           id="g136"
           transform="translate(65.7627,26.8945)"><path
             d="M 0,0 C -0.017,0.206 -0.09,0.369 -0.22,0.483 -0.348,0.6 -0.517,0.649 -0.724,0.631 -1.225,0.589 -1.773,0.2 -2.365,-0.534 c -0.593,-0.738 -1.161,-1.737 -1.709,-3.005 -0.521,-1.219 -0.921,-2.364 -1.203,-3.44 -0.278,-1.074 -0.396,-1.875 -0.352,-2.408 0.034,-0.221 0.079,-0.36 0.137,-0.421 0.058,-0.063 0.144,-0.082 0.261,-0.056 0.295,0.027 0.691,0.317 1.187,0.884 0.495,0.561 0.987,1.288 1.476,2.177 0.762,1.375 1.386,2.771 1.876,4.188 C -0.203,-1.195 0.028,-0.323 0,0 Z m -0.844,-7.125 c -0.624,-1.408 -1.34,-2.516 -2.149,-3.321 -0.811,-0.802 -1.635,-1.241 -2.477,-1.315 -0.68,-0.057 -1.251,0.151 -1.717,0.623 -0.463,0.475 -0.731,1.11 -0.799,1.909 -0.088,1.047 0.013,2.202 0.307,3.464 0.296,1.259 0.778,2.581 1.448,3.965 0.638,1.422 1.364,2.563 2.174,3.42 0.814,0.858 1.597,1.318 2.351,1.384 C -1.307,3.036 -0.93,2.966 -0.573,2.786 -0.216,2.608 0.153,2.306 0.533,1.877 0.82,1.99 1.051,2.068 1.227,2.113 1.401,2.158 1.57,2.187 1.731,2.202 2.264,2.246 2.709,2.169 3.068,1.971 3.428,1.771 3.623,1.507 3.65,1.182 3.667,0.976 3.511,0.449 3.182,-0.396 2.898,-1.092 2.679,-1.661 2.524,-2.106 2.068,-3.394 1.721,-4.562 1.483,-5.61 1.245,-6.657 1.143,-7.388 1.179,-7.799 1.197,-8.022 1.24,-8.177 1.307,-8.258 c 0.066,-0.085 0.174,-0.119 0.32,-0.107 0.222,0.017 0.517,0.271 0.886,0.757 0.367,0.485 0.982,1.457 1.839,2.912 0.156,0.267 0.336,0.593 0.542,0.985 0.216,0.419 0.383,0.634 0.502,0.648 C 5.557,-3.051 5.73,-3.158 5.914,-3.381 6.096,-3.603 6.196,-3.81 6.212,-4.002 6.232,-4.238 6.041,-4.786 5.638,-5.646 5.234,-6.508 4.725,-7.417 4.107,-8.377 3.635,-9.117 3.192,-9.65 2.781,-9.976 2.37,-10.298 1.928,-10.482 1.455,-10.522 c -0.65,-0.057 -1.172,0.134 -1.567,0.569 -0.393,0.433 -0.626,1.081 -0.7,1.939 -0.02,0.235 -0.033,0.42 -0.037,0.556 -0.004,0.132 -0.001,0.245 0.005,0.333 z"
             style="fill:none;stroke:#f27126;stroke-width:0.84;stroke-linecap:round;stroke-linejoin:round;stroke-miterlimit:10;stroke-dasharray:none;stroke-opacity:1"
             id="path138" /></g><g
           id="g140"
           transform="translate(77.1387,25.167)"><path
             d="m 0,0 c -0.661,-1.325 -1.407,-2.971 -2.235,-4.947 -1.015,-2.396 -1.828,-3.617 -2.432,-3.668 -0.562,-0.048 -1.035,0.087 -1.419,0.404 -0.384,0.317 -0.602,0.776 -0.654,1.385 -0.063,0.737 0.063,2.094 0.379,4.071 0.315,1.977 0.768,3.866 1.357,5.673 0.2,0.629 0.406,1.049 0.618,1.26 0.212,0.213 0.518,0.333 0.917,0.368 0.34,0.028 0.664,-0.044 0.968,-0.219 0.305,-0.176 0.468,-0.394 0.492,-0.66 0.005,-0.059 -0.072,-0.298 -0.23,-0.71 -1.024,-2.651 -1.665,-5.442 -1.919,-8.379 1.642,3.946 2.945,6.786 3.906,8.511 0.96,1.728 1.73,2.616 2.305,2.664 C 2.526,5.794 2.983,5.669 3.425,5.38 3.866,5.09 4.104,4.737 4.139,4.323 4.162,4.072 4.035,3.818 3.759,3.554 3.484,3.293 3.338,3.161 3.325,3.159 3.259,3.053 3.146,2.718 2.985,2.16 2.824,1.603 2.658,0.938 2.485,0.165 2.266,-0.926 2.102,-1.971 1.994,-2.97 1.885,-3.966 1.851,-4.704 1.892,-5.175 c 0.025,-0.31 0.088,-0.552 0.185,-0.722 0.095,-0.171 0.218,-0.249 0.364,-0.236 0.475,0.039 1.28,1.246 2.416,3.618 0.201,0.435 0.359,0.769 0.473,1.002 0.038,0.077 0.087,0.202 0.146,0.37 0.119,0.352 0.305,0.541 0.556,0.562 0.147,0.012 0.352,-0.08 0.614,-0.274 0.263,-0.193 0.4,-0.364 0.412,-0.51 C 7.084,-1.662 6.806,-2.465 6.227,-3.779 5.646,-5.097 4.972,-6.214 4.202,-7.145 3.932,-7.463 3.647,-7.716 3.352,-7.898 3.054,-8.08 2.744,-8.183 2.417,-8.211 1.666,-8.277 1.051,-8.018 0.578,-7.432 c -0.474,0.584 -0.759,1.44 -0.854,2.562 -0.045,0.516 -0.046,1.179 -0.003,1.987 C -0.236,-2.075 -0.144,-1.115 0,0"
             style="fill:#f27126;fill-opacity:1;fill-rule:nonzero;stroke:none"
             id="path142" /></g><g
           id="g144"
           transform="translate(77.1387,25.167)"><path
             d="m 0,0 c -0.661,-1.325 -1.407,-2.971 -2.235,-4.947 -1.015,-2.396 -1.828,-3.617 -2.432,-3.668 -0.562,-0.048 -1.035,0.087 -1.419,0.404 -0.384,0.317 -0.602,0.776 -0.654,1.385 -0.063,0.737 0.063,2.094 0.379,4.071 0.315,1.977 0.768,3.866 1.357,5.673 0.2,0.629 0.406,1.049 0.618,1.26 0.212,0.213 0.518,0.333 0.917,0.368 0.34,0.028 0.664,-0.044 0.968,-0.219 0.305,-0.176 0.468,-0.394 0.492,-0.66 0.005,-0.059 -0.072,-0.298 -0.23,-0.71 -1.024,-2.651 -1.665,-5.442 -1.919,-8.379 1.642,3.946 2.945,6.786 3.906,8.511 0.96,1.728 1.73,2.616 2.305,2.664 C 2.526,5.794 2.983,5.669 3.425,5.38 3.866,5.09 4.104,4.737 4.139,4.323 4.162,4.072 4.035,3.818 3.759,3.554 3.484,3.293 3.338,3.161 3.325,3.159 3.259,3.053 3.146,2.718 2.985,2.16 2.824,1.603 2.658,0.938 2.485,0.165 2.266,-0.926 2.102,-1.971 1.994,-2.97 1.885,-3.966 1.851,-4.704 1.892,-5.175 c 0.025,-0.31 0.088,-0.552 0.185,-0.722 0.095,-0.171 0.218,-0.249 0.364,-0.236 0.475,0.039 1.28,1.246 2.416,3.618 0.201,0.435 0.359,0.769 0.473,1.002 0.038,0.077 0.087,0.202 0.146,0.37 0.119,0.352 0.305,0.541 0.556,0.562 0.147,0.012 0.352,-0.08 0.614,-0.274 0.263,-0.193 0.4,-0.364 0.412,-0.51 C 7.084,-1.662 6.806,-2.465 6.227,-3.779 5.646,-5.097 4.972,-6.214 4.202,-7.145 3.932,-7.463 3.647,-7.716 3.352,-7.898 3.054,-8.08 2.744,-8.183 2.417,-8.211 1.666,-8.277 1.051,-8.018 0.578,-7.432 c -0.474,0.584 -0.759,1.44 -0.854,2.562 -0.045,0.516 -0.046,1.179 -0.003,1.987 C -0.236,-2.075 -0.144,-1.115 0,0 Z"
             style="fill:none;stroke:#f27126;stroke-width:0.84;stroke-linecap:round;stroke-linejoin:round;stroke-miterlimit:10;stroke-dasharray:none;stroke-opacity:1"
             id="path146" /></g><g
           id="g148"
           transform="translate(89.4575,28.335)"><path
             d="M 0,0 C -0.181,0.192 -0.349,0.328 -0.503,0.401 -0.659,0.479 -0.818,0.512 -0.98,0.499 -1.335,0.468 -1.721,0.197 -2.138,-0.317 -2.556,-0.828 -3.06,-1.638 -3.65,-2.746 -4.278,-3.929 -4.752,-5.139 -5.071,-6.37 -5.39,-7.602 -5.514,-8.641 -5.442,-9.483 c 0.022,-0.263 0.116,-0.491 0.281,-0.677 0.165,-0.188 0.343,-0.271 0.536,-0.254 0.634,0.052 1.395,1.046 2.279,2.98 C -1.462,-5.498 -0.68,-3.02 0,0 m -0.889,-7.641 c -0.535,-1.401 -1.16,-2.535 -1.874,-3.408 -0.716,-0.874 -1.39,-1.337 -2.025,-1.39 -0.709,-0.061 -1.346,0.252 -1.911,0.941 -0.564,0.688 -0.893,1.572 -0.985,2.652 -0.121,1.417 0.152,3.038 0.814,4.857 0.663,1.821 1.601,3.473 2.814,4.961 0.339,0.385 0.649,0.676 0.931,0.872 0.28,0.197 0.561,0.303 0.841,0.329 0.34,0.026 0.723,-0.048 1.148,-0.227 C -0.713,1.767 -0.254,1.488 0.24,1.114 0.633,2.621 1.121,4.575 1.704,6.976 2.798,11.43 3.67,13.682 4.32,13.74 4.808,13.781 5.218,13.717 5.553,13.543 5.887,13.372 6.068,13.14 6.094,12.844 6.118,12.549 5.907,11.799 5.459,10.6 5.144,9.755 4.897,9.064 4.72,8.526 3.581,5.127 2.71,1.943 2.108,-1.027 1.504,-3.994 1.257,-6.097 1.364,-7.337 c 0.024,-0.298 0.083,-0.518 0.178,-0.666 0.094,-0.15 0.216,-0.218 0.364,-0.206 0.25,0.021 0.547,0.253 0.889,0.69 0.343,0.437 0.821,1.227 1.439,2.368 0.129,0.233 0.267,0.534 0.414,0.906 0.196,0.477 0.384,0.723 0.561,0.738 0.119,0.011 0.226,-0.019 0.32,-0.095 C 5.626,-3.676 5.678,-3.763 5.688,-3.868 5.703,-4.042 5.639,-4.35 5.498,-4.789 5.357,-5.223 5.144,-5.78 4.859,-6.459 4.302,-7.788 3.767,-8.75 3.252,-9.343 c -0.515,-0.595 -1.09,-0.918 -1.726,-0.973 -0.634,-0.054 -1.163,0.151 -1.58,0.613 -0.419,0.464 -0.698,1.149 -0.835,2.062"
             style="fill:#f27126;fill-opacity:1;fill-rule:nonzero;stroke:none"
             id="path150" /></g><g
           id="g152"
           transform="translate(89.4575,28.335)"><path
             d="M 0,0 C -0.181,0.192 -0.349,0.328 -0.503,0.401 -0.659,0.479 -0.818,0.512 -0.98,0.499 -1.335,0.468 -1.721,0.197 -2.138,-0.317 -2.556,-0.828 -3.06,-1.638 -3.65,-2.746 -4.278,-3.929 -4.752,-5.139 -5.071,-6.37 -5.39,-7.602 -5.514,-8.641 -5.442,-9.483 c 0.022,-0.263 0.116,-0.491 0.281,-0.677 0.165,-0.188 0.343,-0.271 0.536,-0.254 0.634,0.052 1.395,1.046 2.279,2.98 C -1.462,-5.498 -0.68,-3.02 0,0 Z m -0.889,-7.641 c -0.535,-1.401 -1.16,-2.535 -1.874,-3.408 -0.716,-0.874 -1.39,-1.337 -2.025,-1.39 -0.709,-0.061 -1.346,0.252 -1.911,0.941 -0.564,0.688 -0.893,1.572 -0.985,2.652 -0.121,1.417 0.152,3.038 0.814,4.857 0.663,1.821 1.601,3.473 2.814,4.961 0.339,0.385 0.649,0.676 0.931,0.872 0.28,0.197 0.561,0.303 0.841,0.329 0.34,0.026 0.723,-0.048 1.148,-0.227 C -0.713,1.767 -0.254,1.488 0.24,1.114 0.633,2.621 1.121,4.575 1.704,6.976 2.798,11.43 3.67,13.682 4.32,13.74 4.808,13.781 5.218,13.717 5.553,13.543 5.887,13.372 6.068,13.14 6.094,12.844 6.118,12.549 5.907,11.799 5.459,10.6 5.144,9.755 4.897,9.064 4.72,8.526 3.581,5.127 2.71,1.943 2.108,-1.027 1.504,-3.994 1.257,-6.097 1.364,-7.337 c 0.024,-0.298 0.083,-0.518 0.178,-0.666 0.094,-0.15 0.216,-0.218 0.364,-0.206 0.25,0.021 0.547,0.253 0.889,0.69 0.343,0.437 0.821,1.227 1.439,2.368 0.129,0.233 0.267,0.534 0.414,0.906 0.196,0.477 0.384,0.723 0.561,0.738 0.119,0.011 0.226,-0.019 0.32,-0.095 C 5.626,-3.676 5.678,-3.763 5.688,-3.868 5.703,-4.042 5.639,-4.35 5.498,-4.789 5.357,-5.223 5.144,-5.78 4.859,-6.459 4.302,-7.788 3.767,-8.75 3.252,-9.343 c -0.515,-0.595 -1.09,-0.918 -1.726,-0.973 -0.634,-0.054 -1.163,0.151 -1.58,0.613 -0.419,0.464 -0.698,1.149 -0.835,2.062 z"
             style="fill:none;stroke:#f27126;stroke-width:0.84;stroke-linecap:round;stroke-linejoin:round;stroke-miterlimit:10;stroke-dasharray:none;stroke-opacity:1"
             id="path154" /></g><g
           id="g156"
           transform="translate(96.207,21.165)"><path
             d="m 0,0 c 0.041,-0.475 0.148,-0.815 0.323,-1.034 0.174,-0.215 0.425,-0.309 0.75,-0.28 0.783,0.065 1.555,1.003 2.316,2.809 C 4.15,3.301 4.463,5.002 4.327,6.597 4.293,6.995 4.192,7.3 4.026,7.51 3.859,7.716 3.651,7.812 3.398,7.789 2.661,7.727 1.876,6.799 1.046,5.011 0.217,3.224 -0.132,1.551 0,0 M 3.314,9.569 3.401,9.6 C 3.678,9.667 3.912,9.709 4.105,9.726 4.74,9.78 5.285,9.499 5.739,8.883 6.194,8.268 6.475,7.421 6.581,6.344 7.344,6.646 8.016,7.232 8.597,8.101 9.177,8.967 9.564,9.41 9.756,9.427 9.978,9.444 10.161,9.406 10.301,9.304 10.444,9.206 10.523,9.062 10.54,8.869 10.561,8.63 10.514,8.391 10.4,8.142 10.288,7.895 10.103,7.61 9.848,7.293 9.37,6.447 8.847,5.766 8.282,5.249 7.715,4.731 7.104,4.385 6.45,4.21 5.997,1.85 5.304,0.023 4.372,-1.267 3.442,-2.561 2.303,-3.265 0.959,-3.377 c -1.004,-0.088 -1.834,0.173 -2.49,0.779 -0.653,0.608 -1.029,1.479 -1.126,2.617 -0.084,0.99 0.058,2.205 0.427,3.642 0.368,1.437 0.904,2.826 1.608,4.165 0.397,0.764 0.805,1.343 1.225,1.745 0.419,0.402 0.858,0.62 1.315,0.661 0.295,0.025 0.564,-0.021 0.805,-0.134 0.24,-0.112 0.438,-0.287 0.591,-0.529"
             style="fill:#f27126;fill-opacity:1;fill-rule:nonzero;stroke:none"
             id="path158" /></g><g
           id="g160"
           transform="translate(96.207,21.165)"><path
             d="m 0,0 c 0.041,-0.475 0.148,-0.815 0.323,-1.034 0.174,-0.215 0.425,-0.309 0.75,-0.28 0.783,0.065 1.555,1.003 2.316,2.809 C 4.15,3.301 4.463,5.002 4.327,6.597 4.293,6.995 4.192,7.3 4.026,7.51 3.859,7.716 3.651,7.812 3.398,7.789 2.661,7.727 1.876,6.799 1.046,5.011 0.217,3.224 -0.132,1.551 0,0 Z M 3.314,9.569 3.401,9.6 C 3.678,9.667 3.912,9.709 4.105,9.726 4.74,9.78 5.285,9.499 5.739,8.883 6.194,8.268 6.475,7.421 6.581,6.344 7.344,6.646 8.016,7.232 8.597,8.101 9.177,8.967 9.564,9.41 9.756,9.427 9.978,9.444 10.161,9.406 10.301,9.304 10.444,9.206 10.523,9.062 10.54,8.869 10.561,8.63 10.514,8.391 10.4,8.142 10.288,7.895 10.103,7.61 9.848,7.293 9.37,6.447 8.847,5.766 8.282,5.249 7.715,4.731 7.104,4.385 6.45,4.21 5.997,1.85 5.304,0.023 4.372,-1.267 3.442,-2.561 2.303,-3.265 0.959,-3.377 c -1.004,-0.088 -1.834,0.173 -2.49,0.779 -0.653,0.608 -1.029,1.479 -1.126,2.617 -0.084,0.99 0.058,2.205 0.427,3.642 0.368,1.437 0.904,2.826 1.608,4.165 0.397,0.764 0.805,1.343 1.225,1.745 0.419,0.402 0.858,0.62 1.315,0.661 0.295,0.025 0.564,-0.021 0.805,-0.134 0.24,-0.112 0.438,-0.287 0.591,-0.529 z"
             style="fill:none;stroke:#f27126;stroke-width:0.84;stroke-linecap:round;stroke-linejoin:round;stroke-miterlimit:10;stroke-dasharray:none;stroke-opacity:1"
             id="path162" /></g><g
           id="g164"
           transform="translate(110.8447,28.0361)"><path
             d="m 0,0 c -0.66,-1.32 -1.405,-2.967 -2.233,-4.942 -1.016,-2.395 -1.829,-3.617 -2.434,-3.669 -0.562,-0.046 -1.034,0.088 -1.418,0.406 -0.384,0.314 -0.603,0.775 -0.654,1.381 -0.063,0.741 0.063,2.095 0.379,4.074 0.315,1.976 0.768,3.866 1.357,5.675 0.2,0.626 0.405,1.046 0.619,1.257 0.212,0.214 0.518,0.335 0.918,0.369 0.339,0.027 0.662,-0.044 0.966,-0.22 0.306,-0.175 0.47,-0.393 0.492,-0.663 0.004,-0.058 -0.072,-0.295 -0.229,-0.709 -1.026,-2.648 -1.665,-5.44 -1.92,-8.38 1.642,3.951 2.944,6.789 3.905,8.515 C 0.709,4.82 1.479,5.709 2.055,5.76 2.528,5.799 2.984,5.675 3.426,5.386 3.867,5.096 4.106,4.743 4.142,4.327 4.163,4.078 4.035,3.82 3.761,3.561 3.484,3.297 3.339,3.166 3.326,3.165 3.26,3.055 3.147,2.723 2.987,2.165 2.825,1.607 2.659,0.943 2.487,0.17 2.267,-0.919 2.103,-1.967 1.995,-2.965 1.888,-3.962 1.853,-4.698 1.894,-5.171 1.92,-5.481 1.98,-5.724 2.078,-5.893 c 0.096,-0.17 0.218,-0.25 0.366,-0.238 0.473,0.043 1.277,1.248 2.414,3.622 0.202,0.435 0.358,0.769 0.473,1 0.038,0.078 0.086,0.202 0.148,0.37 0.118,0.354 0.302,0.542 0.554,0.563 C 6.181,-0.564 6.387,-0.654 6.648,-0.85 6.91,-1.041 7.047,-1.214 7.06,-1.36 7.085,-1.657 6.807,-2.459 6.228,-3.777 5.648,-5.092 4.973,-6.212 4.205,-7.141 3.933,-7.46 3.65,-7.712 3.354,-7.894 3.056,-8.075 2.744,-8.178 2.419,-8.205 1.666,-8.271 1.053,-8.013 0.579,-7.425 0.104,-6.844 -0.18,-5.987 -0.276,-4.866 -0.32,-4.349 -0.32,-3.686 -0.277,-2.879 -0.235,-2.073 -0.142,-1.111 0,0"
             style="fill:#f27126;fill-opacity:1;fill-rule:nonzero;stroke:none"
             id="path166" /></g><g
           id="g168"
           transform="translate(110.8447,28.0361)"><path
             d="m 0,0 c -0.66,-1.32 -1.405,-2.967 -2.233,-4.942 -1.016,-2.395 -1.829,-3.617 -2.434,-3.669 -0.562,-0.046 -1.034,0.088 -1.418,0.406 -0.384,0.314 -0.603,0.775 -0.654,1.381 -0.063,0.741 0.063,2.095 0.379,4.074 0.315,1.976 0.768,3.866 1.357,5.675 0.2,0.626 0.405,1.046 0.619,1.257 0.212,0.214 0.518,0.335 0.918,0.369 0.339,0.027 0.662,-0.044 0.966,-0.22 0.306,-0.175 0.47,-0.393 0.492,-0.663 0.004,-0.058 -0.072,-0.295 -0.229,-0.709 -1.026,-2.648 -1.665,-5.44 -1.92,-8.38 1.642,3.951 2.944,6.789 3.905,8.515 C 0.709,4.82 1.479,5.709 2.055,5.76 2.528,5.799 2.984,5.675 3.426,5.386 3.867,5.096 4.106,4.743 4.142,4.327 4.163,4.078 4.035,3.82 3.761,3.561 3.484,3.297 3.339,3.166 3.326,3.165 3.26,3.055 3.147,2.723 2.987,2.165 2.825,1.607 2.659,0.943 2.487,0.17 2.267,-0.919 2.103,-1.967 1.995,-2.965 1.888,-3.962 1.853,-4.698 1.894,-5.171 1.92,-5.481 1.98,-5.724 2.078,-5.893 c 0.096,-0.17 0.218,-0.25 0.366,-0.238 0.473,0.043 1.277,1.248 2.414,3.622 0.202,0.435 0.358,0.769 0.473,1 0.038,0.078 0.086,0.202 0.148,0.37 0.118,0.354 0.302,0.542 0.554,0.563 C 6.181,-0.564 6.387,-0.654 6.648,-0.85 6.91,-1.041 7.047,-1.214 7.06,-1.36 7.085,-1.657 6.807,-2.459 6.228,-3.777 5.648,-5.092 4.973,-6.212 4.205,-7.141 3.933,-7.46 3.65,-7.712 3.354,-7.894 3.056,-8.075 2.744,-8.178 2.419,-8.205 1.666,-8.271 1.053,-8.013 0.579,-7.425 0.104,-6.844 -0.18,-5.987 -0.276,-4.866 -0.32,-4.349 -0.32,-3.686 -0.277,-2.879 -0.235,-2.073 -0.142,-1.111 0,0 Z"
             style="fill:none;stroke:#f27126;stroke-width:0.84;stroke-linecap:round;stroke-linejoin:round;stroke-miterlimit:10;stroke-dasharray:none;stroke-opacity:1"
             id="path170" /></g><g
           id="g172"
           transform="translate(122.5024,29.0303)"><path
             d="m 0,0 c -0.661,-1.321 -1.406,-2.967 -2.233,-4.944 -1.017,-2.393 -1.829,-3.615 -2.434,-3.664 -0.562,-0.052 -1.035,0.084 -1.419,0.402 -0.384,0.316 -0.602,0.776 -0.654,1.383 -0.063,0.74 0.063,2.097 0.378,4.071 0.316,1.978 0.768,3.87 1.359,5.677 0.199,0.626 0.405,1.046 0.618,1.256 0.213,0.213 0.518,0.336 0.917,0.369 0.341,0.029 0.662,-0.042 0.967,-0.22 0.306,-0.173 0.469,-0.392 0.491,-0.66 0.006,-0.059 -0.071,-0.297 -0.228,-0.71 -1.025,-2.647 -1.665,-5.44 -1.919,-8.38 1.642,3.95 2.943,6.786 3.905,8.516 0.96,1.724 1.73,2.612 2.307,2.66 C 2.527,5.8 2.984,5.673 3.424,5.384 3.867,5.093 4.106,4.74 4.141,4.328 4.163,4.075 4.034,3.821 3.76,3.559 3.485,3.298 3.34,3.165 3.324,3.165 3.26,3.056 3.147,2.722 2.987,2.164 2.825,1.607 2.658,0.942 2.487,0.17 2.267,-0.92 2.102,-1.964 1.995,-2.963 1.886,-3.965 1.852,-4.7 1.893,-5.171 1.919,-5.48 1.98,-5.723 2.078,-5.891 c 0.094,-0.171 0.216,-0.252 0.365,-0.238 0.473,0.038 1.278,1.245 2.414,3.62 0.2,0.433 0.361,0.769 0.473,1.001 0.039,0.078 0.088,0.202 0.148,0.37 0.119,0.351 0.302,0.54 0.554,0.561 0.148,0.014 0.354,-0.08 0.614,-0.271 C 6.908,-1.043 7.047,-1.213 7.059,-1.36 7.085,-1.657 6.807,-2.459 6.227,-3.775 5.646,-5.09 4.973,-6.211 4.204,-7.141 3.933,-7.462 3.649,-7.712 3.353,-7.894 3.055,-8.074 2.744,-8.181 2.42,-8.208 1.666,-8.27 1.051,-8.012 0.579,-7.426 0.104,-6.842 -0.18,-5.987 -0.276,-4.867 -0.32,-4.349 -0.321,-3.688 -0.279,-2.878 -0.236,-2.072 -0.143,-1.113 0,0"
             style="fill:#f27126;fill-opacity:1;fill-rule:nonzero;stroke:none"
             id="path174" /></g><g
           id="g176"
           transform="translate(122.5024,29.0303)"><path
             d="m 0,0 c -0.661,-1.321 -1.406,-2.967 -2.233,-4.944 -1.017,-2.393 -1.829,-3.615 -2.434,-3.664 -0.562,-0.052 -1.035,0.084 -1.419,0.402 -0.384,0.316 -0.602,0.776 -0.654,1.383 -0.063,0.74 0.063,2.097 0.378,4.071 0.316,1.978 0.768,3.87 1.359,5.677 0.199,0.626 0.405,1.046 0.618,1.256 0.213,0.213 0.518,0.336 0.917,0.369 0.341,0.029 0.662,-0.042 0.967,-0.22 0.306,-0.173 0.469,-0.392 0.491,-0.66 0.006,-0.059 -0.071,-0.297 -0.228,-0.71 -1.025,-2.647 -1.665,-5.44 -1.919,-8.38 1.642,3.95 2.943,6.786 3.905,8.516 0.96,1.724 1.73,2.612 2.307,2.66 C 2.527,5.8 2.984,5.673 3.424,5.384 3.867,5.093 4.106,4.74 4.141,4.328 4.163,4.075 4.034,3.821 3.76,3.559 3.485,3.298 3.34,3.165 3.324,3.165 3.26,3.056 3.147,2.722 2.987,2.164 2.825,1.607 2.658,0.942 2.487,0.17 2.267,-0.92 2.102,-1.964 1.995,-2.963 1.886,-3.965 1.852,-4.7 1.893,-5.171 1.919,-5.48 1.98,-5.723 2.078,-5.891 c 0.094,-0.171 0.216,-0.252 0.365,-0.238 0.473,0.038 1.278,1.245 2.414,3.62 0.2,0.433 0.361,0.769 0.473,1.001 0.039,0.078 0.088,0.202 0.148,0.37 0.119,0.351 0.302,0.54 0.554,0.561 0.148,0.014 0.354,-0.08 0.614,-0.271 C 6.908,-1.043 7.047,-1.213 7.059,-1.36 7.085,-1.657 6.807,-2.459 6.227,-3.775 5.646,-5.09 4.973,-6.211 4.204,-7.141 3.933,-7.462 3.649,-7.712 3.353,-7.894 3.055,-8.074 2.744,-8.181 2.42,-8.208 1.666,-8.27 1.051,-8.012 0.579,-7.426 0.104,-6.842 -0.18,-5.987 -0.276,-4.867 -0.32,-4.349 -0.321,-3.688 -0.279,-2.878 -0.236,-2.072 -0.143,-1.113 0,0 Z"
             style="fill:none;stroke:#f27126;stroke-width:0.84;stroke-linecap:round;stroke-linejoin:round;stroke-miterlimit:10;stroke-dasharray:none;stroke-opacity:1"
             id="path178" /></g><g
           id="g180"
           transform="translate(136.5635,43.7158)"><path
             d="M 0,0 C 0.133,0.01 0.235,-0.003 0.305,-0.043 0.376,-0.082 0.415,-0.145 0.422,-0.234 0.425,-0.277 0.419,-0.322 0.401,-0.37 0.382,-0.416 0.352,-0.464 0.312,-0.512 L 0.153,-0.749 c -0.514,-0.757 -1.082,-1.528 -1.701,-2.307 -0.617,-0.784 -1.098,-1.34 -1.443,-1.666 l -0.16,-0.215 c -0.152,-0.145 -0.294,-0.258 -0.428,-0.336 -0.135,-0.082 -0.284,-0.125 -0.446,-0.139 l -0.997,-0.086 c -0.133,-0.01 -0.227,0.003 -0.282,0.045 -0.056,0.037 -0.089,0.103 -0.095,0.19 -0.003,0.031 0.017,0.071 0.057,0.118 0.04,0.047 0.072,0.097 0.098,0.143 l 0.12,0.187 c 0.242,0.291 0.58,0.811 1.015,1.562 0.433,0.749 0.813,1.511 1.134,2.283 l 0.073,0.185 c 0.072,0.199 0.168,0.345 0.287,0.437 0.118,0.093 0.26,0.148 0.421,0.161 z m -5.063,-15.233 c 0.487,0.04 0.925,0.622 1.313,1.744 0.388,1.117 0.538,2.2 0.448,3.249 -0.014,0.18 -0.084,0.331 -0.206,0.463 -0.122,0.131 -0.258,0.19 -0.405,0.178 -0.414,-0.038 -0.886,-0.607 -1.418,-1.717 -0.529,-1.11 -0.767,-1.99 -0.711,-2.641 0.034,-0.411 0.14,-0.734 0.316,-0.966 0.176,-0.228 0.396,-0.333 0.663,-0.31 m -1.53,-0.913 c -0.069,-0.391 -0.115,-0.786 -0.132,-1.185 -0.019,-0.393 -0.009,-0.814 0.028,-1.258 0.072,-0.839 0.241,-1.471 0.508,-1.886 0.265,-0.418 0.62,-0.604 1.065,-0.568 0.826,0.07 1.759,0.671 2.802,1.8 1.042,1.133 1.917,2.523 2.624,4.176 0.064,0.14 0.15,0.347 0.259,0.627 0.245,0.628 0.447,0.952 0.61,0.964 0.162,0.016 0.326,-0.055 0.487,-0.214 0.162,-0.156 0.254,-0.355 0.275,-0.591 0.025,-0.294 -0.111,-0.796 -0.408,-1.505 -0.297,-0.712 -0.708,-1.476 -1.233,-2.297 -0.975,-1.493 -1.911,-2.59 -2.811,-3.285 -0.902,-0.694 -1.891,-1.088 -2.97,-1.179 -1.137,-0.096 -2.018,0.16 -2.642,0.769 -0.625,0.607 -0.995,1.569 -1.107,2.883 -0.118,1.391 0.069,3.082 0.562,5.072 0.492,1.992 1.184,3.776 2.077,5.356 0.283,0.502 0.604,0.894 0.959,1.177 0.355,0.282 0.718,0.44 1.087,0.471 0.192,0.017 0.387,-0.003 0.586,-0.062 0.197,-0.057 0.43,-0.156 0.695,-0.298 0.213,-0.04 0.484,-0.092 0.817,-0.153 0.906,-0.161 1.395,-0.655 1.467,-1.482 0.158,-1.862 -0.221,-3.612 -1.138,-5.254 -0.918,-1.641 -1.938,-2.507 -3.06,-2.603 -0.237,-0.02 -0.473,0.014 -0.711,0.106 -0.239,0.089 -0.471,0.231 -0.696,0.419"
             style="fill:#f27126;fill-opacity:1;fill-rule:nonzero;stroke:none"
             id="path182" /></g><g
           id="g184"
           transform="translate(136.5635,43.7158)"><path
             d="M 0,0 C 0.133,0.01 0.235,-0.003 0.305,-0.043 0.376,-0.082 0.415,-0.145 0.422,-0.234 0.425,-0.277 0.419,-0.322 0.401,-0.37 0.382,-0.416 0.352,-0.464 0.312,-0.512 L 0.153,-0.749 c -0.514,-0.757 -1.082,-1.528 -1.701,-2.307 -0.617,-0.784 -1.098,-1.34 -1.443,-1.666 l -0.16,-0.215 c -0.152,-0.145 -0.294,-0.258 -0.428,-0.336 -0.135,-0.082 -0.284,-0.125 -0.446,-0.139 l -0.997,-0.086 c -0.133,-0.01 -0.227,0.003 -0.282,0.045 -0.056,0.037 -0.089,0.103 -0.095,0.19 -0.003,0.031 0.017,0.071 0.057,0.118 0.04,0.047 0.072,0.097 0.098,0.143 l 0.12,0.187 c 0.242,0.291 0.58,0.811 1.015,1.562 0.433,0.749 0.813,1.511 1.134,2.283 l 0.073,0.185 c 0.072,0.199 0.168,0.345 0.287,0.437 0.118,0.093 0.26,0.148 0.421,0.161 z m -5.063,-15.233 c 0.487,0.04 0.925,0.622 1.313,1.744 0.388,1.117 0.538,2.2 0.448,3.249 -0.014,0.18 -0.084,0.331 -0.206,0.463 -0.122,0.131 -0.258,0.19 -0.405,0.178 -0.414,-0.038 -0.886,-0.607 -1.418,-1.717 -0.529,-1.11 -0.767,-1.99 -0.711,-2.641 0.034,-0.411 0.14,-0.734 0.316,-0.966 0.176,-0.228 0.396,-0.333 0.663,-0.31 z m -1.53,-0.913 c -0.069,-0.391 -0.115,-0.786 -0.132,-1.185 -0.019,-0.393 -0.009,-0.814 0.028,-1.258 0.072,-0.839 0.241,-1.471 0.508,-1.886 0.265,-0.418 0.62,-0.604 1.065,-0.568 0.826,0.07 1.759,0.671 2.802,1.8 1.042,1.133 1.917,2.523 2.624,4.176 0.064,0.14 0.15,0.347 0.259,0.627 0.245,0.628 0.447,0.952 0.61,0.964 0.162,0.016 0.326,-0.055 0.487,-0.214 0.162,-0.156 0.254,-0.355 0.275,-0.591 0.025,-0.294 -0.111,-0.796 -0.408,-1.505 -0.297,-0.712 -0.708,-1.476 -1.233,-2.297 -0.975,-1.493 -1.911,-2.59 -2.811,-3.285 -0.902,-0.694 -1.891,-1.088 -2.97,-1.179 -1.137,-0.096 -2.018,0.16 -2.642,0.769 -0.625,0.607 -0.995,1.569 -1.107,2.883 -0.118,1.391 0.069,3.082 0.562,5.072 0.492,1.992 1.184,3.776 2.077,5.356 0.283,0.502 0.604,0.894 0.959,1.177 0.355,0.282 0.718,0.44 1.087,0.471 0.192,0.017 0.387,-0.003 0.586,-0.062 0.197,-0.057 0.43,-0.156 0.695,-0.298 0.213,-0.04 0.484,-0.092 0.817,-0.153 0.906,-0.161 1.395,-0.655 1.467,-1.482 0.158,-1.862 -0.221,-3.612 -1.138,-5.254 -0.918,-1.641 -1.938,-2.507 -3.06,-2.603 -0.237,-0.02 -0.473,0.014 -0.711,0.106 -0.239,0.089 -0.471,0.231 -0.696,0.419 z"
             style="fill:none;stroke:#f27126;stroke-width:0.84;stroke-linecap:round;stroke-linejoin:round;stroke-miterlimit:10;stroke-dasharray:none;stroke-opacity:1"
             id="path186" /></g><g
           id="g188"
           transform="translate(140.542,29.2539)"><path
             d="M 0,0 C 0.488,0.04 0.927,0.622 1.315,1.741 1.702,2.86 1.851,3.944 1.763,4.991 1.748,5.172 1.679,5.322 1.556,5.455 1.432,5.587 1.297,5.646 1.15,5.634 0.736,5.599 0.264,5.025 -0.266,3.918 -0.796,2.807 -1.035,1.929 -0.979,1.277 -0.944,0.863 -0.837,0.541 -0.662,0.31 -0.487,0.082 -0.265,-0.024 0,0 m -1.529,-0.914 c -0.071,-0.391 -0.116,-0.785 -0.133,-1.183 -0.019,-0.394 -0.009,-0.812 0.029,-1.256 0.071,-0.843 0.241,-1.473 0.507,-1.888 0.266,-0.419 0.621,-0.606 1.065,-0.569 0.826,0.07 1.761,0.67 2.802,1.8 1.042,1.13 1.917,2.522 2.625,4.176 0.063,0.14 0.15,0.349 0.26,0.626 C 5.869,1.421 6.072,1.743 6.235,1.758 6.397,1.773 6.561,1.702 6.723,1.543 6.885,1.387 6.975,1.188 6.995,0.952 7.021,0.658 6.886,0.156 6.589,-0.555 6.292,-1.267 5.88,-2.029 5.355,-2.849 4.382,-4.344 3.444,-5.441 2.544,-6.135 c -0.9,-0.693 -1.89,-1.088 -2.969,-1.178 -1.137,-0.098 -2.019,0.16 -2.643,0.768 -0.625,0.607 -0.994,1.57 -1.107,2.884 -0.118,1.389 0.071,3.078 0.562,5.071 0.492,1.991 1.184,3.778 2.077,5.355 0.285,0.502 0.604,0.892 0.959,1.176 C -0.22,8.226 0.141,8.382 0.51,8.415 0.703,8.431 0.898,8.408 1.097,8.353 1.295,8.294 1.526,8.194 1.793,8.055 2.003,8.012 2.275,7.962 2.608,7.9 3.515,7.739 4.005,7.245 4.074,6.417 4.233,4.557 3.854,2.807 2.938,1.163 2.02,-0.477 1.001,-1.343 -0.122,-1.438 c -0.237,-0.02 -0.474,0.014 -0.712,0.103 -0.238,0.093 -0.47,0.232 -0.695,0.421"
             style="fill:#f27126;fill-opacity:1;fill-rule:nonzero;stroke:none"
             id="path190" /></g><g
           id="g192"
           transform="translate(140.542,29.2539)"><path
             d="M 0,0 C 0.488,0.04 0.927,0.622 1.315,1.741 1.702,2.86 1.851,3.944 1.763,4.991 1.748,5.172 1.679,5.322 1.556,5.455 1.432,5.587 1.297,5.646 1.15,5.634 0.736,5.599 0.264,5.025 -0.266,3.918 -0.796,2.807 -1.035,1.929 -0.979,1.277 -0.944,0.863 -0.837,0.541 -0.662,0.31 -0.487,0.082 -0.265,-0.024 0,0 Z m -1.529,-0.914 c -0.071,-0.391 -0.116,-0.785 -0.133,-1.183 -0.019,-0.394 -0.009,-0.812 0.029,-1.256 0.071,-0.843 0.241,-1.473 0.507,-1.888 0.266,-0.419 0.621,-0.606 1.065,-0.569 0.826,0.07 1.761,0.67 2.802,1.8 1.042,1.13 1.917,2.522 2.625,4.176 0.063,0.14 0.15,0.349 0.26,0.626 C 5.869,1.421 6.072,1.743 6.235,1.758 6.397,1.773 6.561,1.702 6.723,1.543 6.885,1.387 6.975,1.188 6.995,0.952 7.021,0.658 6.886,0.156 6.589,-0.555 6.292,-1.267 5.88,-2.029 5.355,-2.849 4.382,-4.344 3.444,-5.441 2.544,-6.135 c -0.9,-0.693 -1.89,-1.088 -2.969,-1.178 -1.137,-0.098 -2.019,0.16 -2.643,0.768 -0.625,0.607 -0.994,1.57 -1.107,2.884 -0.118,1.389 0.071,3.078 0.562,5.071 0.492,1.991 1.184,3.778 2.077,5.355 0.285,0.502 0.604,0.892 0.959,1.176 C -0.22,8.226 0.141,8.382 0.51,8.415 0.703,8.431 0.898,8.408 1.097,8.353 1.295,8.294 1.526,8.194 1.793,8.055 2.003,8.012 2.275,7.962 2.608,7.9 3.515,7.739 4.005,7.245 4.074,6.417 4.233,4.557 3.854,2.807 2.938,1.163 2.02,-0.477 1.001,-1.343 -0.122,-1.438 c -0.237,-0.02 -0.474,0.014 -0.712,0.103 -0.238,0.093 -0.47,0.232 -0.695,0.421 z"
             style="fill:none;stroke:#f27126;stroke-width:0.84;stroke-linecap:round;stroke-linejoin:round;stroke-miterlimit:10;stroke-dasharray:none;stroke-opacity:1"
             id="path194" /></g><g
           id="g196"
           transform="translate(159.2158,27.0293)"><path
             d="m 0,0 c 0.079,-0.413 0.275,-0.74 0.585,-0.99 0.312,-0.249 0.652,-0.356 1.021,-0.325 0.579,0.05 1.069,0.341 1.478,0.873 0.408,0.535 0.807,1.42 1.19,2.66 C 4.579,3.18 4.799,4.101 4.932,4.983 5.064,5.863 5.103,6.653 5.043,7.35 5.003,7.807 4.914,8.151 4.776,8.387 4.637,8.619 4.457,8.727 4.234,8.707 3.703,8.665 2.996,7.791 2.113,6.095 1.231,4.397 0.526,2.366 0,0 m 1.119,7.795 c 0.673,1.187 1.252,2.047 1.736,2.571 0.483,0.523 0.948,0.808 1.39,0.845 C 5.026,11.275 5.702,10.949 6.27,10.232 6.837,9.517 7.173,8.542 7.277,7.315 7.49,4.818 7.057,2.491 5.977,0.33 4.896,-1.832 3.631,-2.973 2.185,-3.097 1.62,-3.145 1.089,-3.042 0.583,-2.788 c -0.506,0.257 -0.865,0.598 -1.081,1.025 -0.398,-2.832 -0.699,-5.179 -0.906,-7.041 -0.205,-1.866 -0.289,-3.039 -0.245,-3.525 0.015,-0.193 0.097,-0.364 0.244,-0.517 0.147,-0.15 0.22,-0.24 0.222,-0.27 0.021,-0.236 -0.058,-0.448 -0.234,-0.636 -0.179,-0.185 -0.392,-0.288 -0.645,-0.31 -0.56,-0.045 -0.999,0.033 -1.315,0.245 -0.315,0.211 -0.493,0.554 -0.534,1.025 -0.064,0.756 0.113,2.835 0.528,6.24 0.416,3.407 0.991,7.195 1.722,11.365 0.101,0.544 0.239,1.301 0.409,2.268 0.806,4.518 1.556,6.807 2.249,6.866 0.28,0.024 0.548,-0.044 0.799,-0.202 0.25,-0.155 0.389,-0.36 0.409,-0.611 C 2.223,12.941 2.087,12.25 1.802,11.058 1.517,9.864 1.291,8.777 1.119,7.795"
             style="fill:#f27126;fill-opacity:1;fill-rule:nonzero;stroke:none"
             id="path198" /></g><g
           id="g200"
           transform="translate(159.2158,27.0293)"><path
             d="m 0,0 c 0.079,-0.413 0.275,-0.74 0.585,-0.99 0.312,-0.249 0.652,-0.356 1.021,-0.325 0.579,0.05 1.069,0.341 1.478,0.873 0.408,0.535 0.807,1.42 1.19,2.66 C 4.579,3.18 4.799,4.101 4.932,4.983 5.064,5.863 5.103,6.653 5.043,7.35 5.003,7.807 4.914,8.151 4.776,8.387 4.637,8.619 4.457,8.727 4.234,8.707 3.703,8.665 2.996,7.791 2.113,6.095 1.231,4.397 0.526,2.366 0,0 Z m 1.119,7.795 c 0.673,1.187 1.252,2.047 1.736,2.571 0.483,0.523 0.948,0.808 1.39,0.845 C 5.026,11.275 5.702,10.949 6.27,10.232 6.837,9.517 7.173,8.542 7.277,7.315 7.49,4.818 7.057,2.491 5.977,0.33 4.896,-1.832 3.631,-2.973 2.185,-3.097 1.62,-3.145 1.089,-3.042 0.583,-2.788 c -0.506,0.257 -0.865,0.598 -1.081,1.025 -0.398,-2.832 -0.699,-5.179 -0.906,-7.041 -0.205,-1.866 -0.289,-3.039 -0.245,-3.525 0.015,-0.193 0.097,-0.364 0.244,-0.517 0.147,-0.15 0.22,-0.24 0.222,-0.27 0.021,-0.236 -0.058,-0.448 -0.234,-0.636 -0.179,-0.185 -0.392,-0.288 -0.645,-0.31 -0.56,-0.045 -0.999,0.033 -1.315,0.245 -0.315,0.211 -0.493,0.554 -0.534,1.025 -0.064,0.756 0.113,2.835 0.528,6.24 0.416,3.407 0.991,7.195 1.722,11.365 0.101,0.544 0.239,1.301 0.409,2.268 0.806,4.518 1.556,6.807 2.249,6.866 0.28,0.024 0.548,-0.044 0.799,-0.202 0.25,-0.155 0.389,-0.36 0.409,-0.611 C 2.223,12.941 2.087,12.25 1.802,11.058 1.517,9.864 1.291,8.777 1.119,7.795 Z"
             style="fill:none;stroke:#f27126;stroke-width:0.84;stroke-linecap:round;stroke-linejoin:round;stroke-miterlimit:10;stroke-dasharray:none;stroke-opacity:1"
             id="path202" /></g><g
           id="g204"
           transform="translate(170.4697,27.498)"><path
             d="m 0,0 c 0.042,-0.474 0.149,-0.817 0.323,-1.036 0.175,-0.213 0.424,-0.309 0.75,-0.278 0.782,0.065 1.555,1.001 2.316,2.807 0.76,1.806 1.074,3.506 0.937,5.103 C 4.291,6.994 4.192,7.299 4.026,7.505 3.859,7.717 3.649,7.809 3.398,7.789 2.66,7.725 1.877,6.799 1.046,5.01 0.217,3.222 -0.132,1.551 0,0 M 3.315,9.568 3.401,9.599 C 3.678,9.666 3.913,9.707 4.104,9.725 4.739,9.778 5.284,9.497 5.739,8.882 6.193,8.265 6.474,7.418 6.581,6.341 7.344,6.645 8.015,7.23 8.597,8.096 c 0.58,0.87 0.967,1.311 1.158,1.328 0.223,0.02 0.404,-0.02 0.546,-0.12 C 10.444,9.203 10.523,9.06 10.539,8.867 10.56,8.629 10.515,8.386 10.4,8.139 10.288,7.894 10.104,7.609 9.85,7.288 9.369,6.444 8.847,5.764 8.281,5.248 7.714,4.73 7.104,4.385 6.45,4.209 5.996,1.85 5.305,0.022 4.372,-1.268 3.441,-2.563 2.303,-3.264 0.959,-3.382 c -1.005,-0.084 -1.835,0.179 -2.488,0.782 -0.656,0.608 -1.032,1.48 -1.129,2.619 -0.084,0.987 0.057,2.201 0.427,3.642 0.369,1.436 0.905,2.825 1.609,4.163 0.396,0.767 0.805,1.345 1.223,1.746 0.42,0.402 0.86,0.621 1.317,0.66 0.296,0.028 0.564,-0.02 0.804,-0.132 0.241,-0.116 0.439,-0.289 0.593,-0.53"
             style="fill:#f27126;fill-opacity:1;fill-rule:nonzero;stroke:none"
             id="path206" /></g><g
           id="g208"
           transform="translate(170.4697,27.498)"><path
             d="m 0,0 c 0.042,-0.474 0.149,-0.817 0.323,-1.036 0.175,-0.213 0.424,-0.309 0.75,-0.278 0.782,0.065 1.555,1.001 2.316,2.807 0.76,1.806 1.074,3.506 0.937,5.103 C 4.291,6.994 4.192,7.299 4.026,7.505 3.859,7.717 3.649,7.809 3.398,7.789 2.66,7.725 1.877,6.799 1.046,5.01 0.217,3.222 -0.132,1.551 0,0 Z M 3.315,9.568 3.401,9.599 C 3.678,9.666 3.913,9.707 4.104,9.725 4.739,9.778 5.284,9.497 5.739,8.882 6.193,8.265 6.474,7.418 6.581,6.341 7.344,6.645 8.015,7.23 8.597,8.096 c 0.58,0.87 0.967,1.311 1.158,1.328 0.223,0.02 0.404,-0.02 0.546,-0.12 C 10.444,9.203 10.523,9.06 10.539,8.867 10.56,8.629 10.515,8.386 10.4,8.139 10.288,7.894 10.104,7.609 9.85,7.288 9.369,6.444 8.847,5.764 8.281,5.248 7.714,4.73 7.104,4.385 6.45,4.209 5.996,1.85 5.305,0.022 4.372,-1.268 3.441,-2.563 2.303,-3.264 0.959,-3.382 c -1.005,-0.084 -1.835,0.179 -2.488,0.782 -0.656,0.608 -1.032,1.48 -1.129,2.619 -0.084,0.987 0.057,2.201 0.427,3.642 0.369,1.436 0.905,2.825 1.609,4.163 0.396,0.767 0.805,1.345 1.223,1.746 0.42,0.402 0.86,0.621 1.317,0.66 0.296,0.028 0.564,-0.02 0.804,-0.132 0.241,-0.116 0.439,-0.289 0.593,-0.53 z"
             style="fill:none;stroke:#f27126;stroke-width:0.84;stroke-linecap:round;stroke-linejoin:round;stroke-miterlimit:10;stroke-dasharray:none;stroke-opacity:1"
             id="path210" /></g><g
           id="g212"
           transform="translate(185.4004,30.4219)"><path
             d="m 0,0 c -0.562,-1.445 -1.152,-2.548 -1.772,-3.297 -0.62,-0.756 -1.263,-1.157 -1.927,-1.217 -0.356,-0.032 -0.679,0.01 -0.971,0.12 -0.293,0.108 -0.584,0.306 -0.877,0.594 -0.337,0.285 -0.581,0.584 -0.733,0.898 -0.156,0.313 -0.25,0.7 -0.29,1.157 -0.109,1.27 0.021,2.86 0.385,4.767 0.368,1.906 0.91,3.694 1.631,5.361 0.147,0.368 0.322,0.642 0.523,0.814 0.201,0.176 0.434,0.272 0.701,0.295 0.412,0.035 0.779,-0.086 1.101,-0.363 0.322,-0.276 0.498,-0.607 0.53,-0.993 C -1.69,8.032 -1.709,7.919 -1.758,7.794 -1.807,7.674 -1.892,7.531 -2.013,7.372 -2.769,5.404 -3.334,3.619 -3.71,2.026 -4.089,0.434 -4.24,-0.785 -4.169,-1.629 c 0.038,-0.442 0.124,-0.757 0.258,-0.939 0.136,-0.179 0.342,-0.26 0.624,-0.236 0.59,0.05 1.248,0.931 1.974,2.634 0.725,1.709 1.581,4.373 2.565,8 C 1.265,8.381 1.391,8.826 1.63,9.168 1.867,9.509 2.188,9.694 2.586,9.728 2.985,9.763 3.378,9.643 3.768,9.361 4.156,9.082 4.364,8.767 4.396,8.411 4.402,8.32 4.272,7.931 4.004,7.24 2.699,3.867 2.146,1.016 2.346,-1.32 2.376,-1.69 2.438,-1.982 2.532,-2.195 2.624,-2.41 2.731,-2.513 2.848,-2.505 3.322,-2.461 3.802,-2.041 4.29,-1.243 4.781,-0.442 5.306,0.779 5.865,2.42 5.888,2.495 5.918,2.589 5.953,2.696 6.092,3.168 6.295,3.417 6.561,3.439 6.708,3.452 6.92,3.362 7.197,3.17 7.474,2.977 7.619,2.806 7.631,2.657 7.649,2.453 7.46,1.828 7.066,0.78 6.671,-0.266 6.199,-1.236 5.65,-2.131 5.221,-2.852 4.775,-3.39 4.314,-3.741 3.854,-4.092 3.328,-4.292 2.736,-4.346 c -0.738,-0.06 -1.364,0.185 -1.88,0.734 -0.516,0.551 -0.817,1.315 -0.9,2.292 0.005,0.116 0.009,0.294 0.012,0.525 C -0.029,-0.565 -0.019,-0.3 0,0"
             style="fill:#f27126;fill-opacity:1;fill-rule:nonzero;stroke:none"
             id="path214" /></g><g
           id="g216"
           transform="translate(185.4004,30.4219)"><path
             d="m 0,0 c -0.562,-1.445 -1.152,-2.548 -1.772,-3.297 -0.62,-0.756 -1.263,-1.157 -1.927,-1.217 -0.356,-0.032 -0.679,0.01 -0.971,0.12 -0.293,0.108 -0.584,0.306 -0.877,0.594 -0.337,0.285 -0.581,0.584 -0.733,0.898 -0.156,0.313 -0.25,0.7 -0.29,1.157 -0.109,1.27 0.021,2.86 0.385,4.767 0.368,1.906 0.91,3.694 1.631,5.361 0.147,0.368 0.322,0.642 0.523,0.814 0.201,0.176 0.434,0.272 0.701,0.295 0.412,0.035 0.779,-0.086 1.101,-0.363 0.322,-0.276 0.498,-0.607 0.53,-0.993 C -1.69,8.032 -1.709,7.919 -1.758,7.794 -1.807,7.674 -1.892,7.531 -2.013,7.372 -2.769,5.404 -3.334,3.619 -3.71,2.026 -4.089,0.434 -4.24,-0.785 -4.169,-1.629 c 0.038,-0.442 0.124,-0.757 0.258,-0.939 0.136,-0.179 0.342,-0.26 0.624,-0.236 0.59,0.05 1.248,0.931 1.974,2.634 0.725,1.709 1.581,4.373 2.565,8 C 1.265,8.381 1.391,8.826 1.63,9.168 1.867,9.509 2.188,9.694 2.586,9.728 2.985,9.763 3.378,9.643 3.768,9.361 4.156,9.082 4.364,8.767 4.396,8.411 4.402,8.32 4.272,7.931 4.004,7.24 2.699,3.867 2.146,1.016 2.346,-1.32 2.376,-1.69 2.438,-1.982 2.532,-2.195 2.624,-2.41 2.731,-2.513 2.848,-2.505 3.322,-2.461 3.802,-2.041 4.29,-1.243 4.781,-0.442 5.306,0.779 5.865,2.42 5.888,2.495 5.918,2.589 5.953,2.696 6.092,3.168 6.295,3.417 6.561,3.439 6.708,3.452 6.92,3.362 7.197,3.17 7.474,2.977 7.619,2.806 7.631,2.657 7.649,2.453 7.46,1.828 7.066,0.78 6.671,-0.266 6.199,-1.236 5.65,-2.131 5.221,-2.852 4.775,-3.39 4.314,-3.741 3.854,-4.092 3.328,-4.292 2.736,-4.346 c -0.738,-0.06 -1.364,0.185 -1.88,0.734 -0.516,0.551 -0.817,1.315 -0.9,2.292 0.005,0.116 0.009,0.294 0.012,0.525 C -0.029,-0.565 -0.019,-0.3 0,0 Z"
             style="fill:none;stroke:#f27126;stroke-width:0.84;stroke-linecap:round;stroke-linejoin:round;stroke-miterlimit:10;stroke-dasharray:none;stroke-opacity:1"
             id="path218" /></g><g
           id="g220"
           transform="translate(192.6914,39.1465)"><path
             d="M 0,0 C -0.295,0.153 -0.508,0.299 -0.64,0.437 -0.77,0.575 -0.843,0.74 -0.858,0.931 -0.898,1.404 -0.673,1.891 -0.18,2.395 0.313,2.9 0.877,3.178 1.513,3.23 1.837,3.26 2.114,3.189 2.345,3.023 2.573,2.856 2.701,2.641 2.724,2.373 2.735,2.24 2.73,2.069 2.712,1.859 2.691,1.649 2.656,1.41 2.606,1.136 L 4.149,0.82 C 4.225,0.992 4.332,1.167 4.473,1.354 4.613,1.533 4.787,1.726 4.995,1.921 5.123,1.978 5.238,2.02 5.34,2.052 5.441,2.083 5.521,2.1 5.581,2.105 5.936,2.136 6.3,2.04 6.677,1.818 7.053,1.598 7.254,1.346 7.277,1.067 7.295,0.844 7.239,0.622 7.11,0.404 6.979,0.185 6.757,-0.071 6.438,-0.367 5.629,-2.013 5.041,-3.56 4.681,-5.004 4.32,-6.449 4.187,-7.725 4.281,-8.834 c 0.03,-0.353 0.114,-0.638 0.252,-0.857 0.139,-0.22 0.295,-0.322 0.473,-0.308 0.458,0.04 0.955,0.44 1.494,1.198 0.538,0.762 1.075,1.832 1.611,3.219 0.062,0.154 0.14,0.36 0.238,0.624 0.237,0.689 0.462,1.044 0.669,1.061 0.192,0.015 0.383,-0.05 0.574,-0.196 0.19,-0.149 0.296,-0.318 0.311,-0.51 0.019,-0.222 -0.075,-0.609 -0.28,-1.163 -0.205,-0.552 -0.5,-1.204 -0.883,-1.948 -0.802,-1.587 -1.496,-2.674 -2.077,-3.26 -0.584,-0.585 -1.244,-0.909 -1.982,-0.971 -0.844,-0.073 -1.523,0.134 -2.039,0.618 -0.518,0.484 -0.816,1.184 -0.894,2.099 -0.078,0.917 -0.017,1.99 0.184,3.22 0.199,1.232 0.55,2.654 1.051,4.275 L 1.734,-1.46 C 1.146,-3.651 0.625,-5.229 0.171,-6.193 -0.281,-7.155 -0.73,-7.653 -1.172,-7.691 -1.35,-7.705 -1.5,-7.659 -1.621,-7.548 c -0.12,0.106 -0.191,0.265 -0.208,0.474 -0.005,0.057 0.079,0.316 0.247,0.777 C -0.853,-4.211 -0.323,-2.113 0,0"
             style="fill:#f27126;fill-opacity:1;fill-rule:nonzero;stroke:none"
             id="path222" /></g><g
           id="g224"
           transform="translate(192.6914,39.1465)"><path
             d="M 0,0 C -0.295,0.153 -0.508,0.299 -0.64,0.437 -0.77,0.575 -0.843,0.74 -0.858,0.931 -0.898,1.404 -0.673,1.891 -0.18,2.395 0.313,2.9 0.877,3.178 1.513,3.23 1.837,3.26 2.114,3.189 2.345,3.023 2.573,2.856 2.701,2.641 2.724,2.373 2.735,2.24 2.73,2.069 2.712,1.859 2.691,1.649 2.656,1.41 2.606,1.136 L 4.149,0.82 C 4.225,0.992 4.332,1.167 4.473,1.354 4.613,1.533 4.787,1.726 4.995,1.921 5.123,1.978 5.238,2.02 5.34,2.052 5.441,2.083 5.521,2.1 5.581,2.105 5.936,2.136 6.3,2.04 6.677,1.818 7.053,1.598 7.254,1.346 7.277,1.067 7.295,0.844 7.239,0.622 7.11,0.404 6.979,0.185 6.757,-0.071 6.438,-0.367 5.629,-2.013 5.041,-3.56 4.681,-5.004 4.32,-6.449 4.187,-7.725 4.281,-8.834 c 0.03,-0.353 0.114,-0.638 0.252,-0.857 0.139,-0.22 0.295,-0.322 0.473,-0.308 0.458,0.04 0.955,0.44 1.494,1.198 0.538,0.762 1.075,1.832 1.611,3.219 0.062,0.154 0.14,0.36 0.238,0.624 0.237,0.689 0.462,1.044 0.669,1.061 0.192,0.015 0.383,-0.05 0.574,-0.196 0.19,-0.149 0.296,-0.318 0.311,-0.51 0.019,-0.222 -0.075,-0.609 -0.28,-1.163 -0.205,-0.552 -0.5,-1.204 -0.883,-1.948 -0.802,-1.587 -1.496,-2.674 -2.077,-3.26 -0.584,-0.585 -1.244,-0.909 -1.982,-0.971 -0.844,-0.073 -1.523,0.134 -2.039,0.618 -0.518,0.484 -0.816,1.184 -0.894,2.099 -0.078,0.917 -0.017,1.99 0.184,3.22 0.199,1.232 0.55,2.654 1.051,4.275 L 1.734,-1.46 C 1.146,-3.651 0.625,-5.229 0.171,-6.193 -0.281,-7.155 -0.73,-7.653 -1.172,-7.691 -1.35,-7.705 -1.5,-7.659 -1.621,-7.548 c -0.12,0.106 -0.191,0.265 -0.208,0.474 -0.005,0.057 0.079,0.316 0.247,0.777 C -0.853,-4.211 -0.323,-2.113 0,0 Z"
             style="fill:none;stroke:#f27126;stroke-width:0.84;stroke-linecap:round;stroke-linejoin:round;stroke-miterlimit:10;stroke-dasharray:none;stroke-opacity:1"
             id="path226" /></g><g
           id="g228"
           transform="translate(214.3398,46.2803)"><path
             d="M 0,0 C -0.808,-0.128 -1.535,-0.232 -2.183,-0.315 -2.83,-0.403 -3.31,-0.459 -3.619,-0.483 -4.255,-0.54 -4.754,-0.48 -5.12,-0.3 c -0.364,0.176 -0.564,0.449 -0.594,0.82 -0.029,0.34 0.318,0.629 1.042,0.87 0.724,0.242 2.517,0.593 5.378,1.061 C 1.062,4.043 1.369,5.059 1.63,5.499 1.89,5.937 2.256,6.176 2.729,6.218 3.113,6.248 3.442,6.194 3.715,6.055 3.986,5.915 4.133,5.72 4.154,5.467 3.763,4.318 3.518,3.437 3.422,2.815 4.169,2.938 4.886,3.046 5.571,3.132 6.255,3.221 6.878,3.288 7.438,3.337 8.828,3.456 9.812,3.434 10.392,3.276 10.97,3.115 11.28,2.787 11.323,2.285 11.339,2.106 11.261,1.975 11.09,1.884 10.919,1.796 10.53,1.728 9.926,1.675 9.245,1.616 8.104,1.448 6.497,1.17 4.891,0.891 3.668,0.688 2.833,0.557 1.907,-2.725 1.208,-5.743 0.736,-8.507 c -0.471,-2.765 -0.653,-4.766 -0.548,-6.009 0.035,-0.413 0.132,-0.731 0.293,-0.956 0.162,-0.223 0.36,-0.327 0.597,-0.304 0.369,0.028 0.776,0.311 1.223,0.839 0.446,0.531 0.897,1.267 1.352,2.214 0.326,0.697 0.634,1.493 0.923,2.389 0.286,0.896 0.498,1.348 0.632,1.36 0.279,0.024 0.538,-0.045 0.775,-0.202 0.239,-0.156 0.365,-0.35 0.384,-0.572 0.027,-0.31 -0.187,-1.03 -0.641,-2.162 -0.455,-1.133 -1.042,-2.274 -1.761,-3.421 -0.418,-0.689 -0.909,-1.232 -1.47,-1.621 -0.562,-0.39 -1.17,-0.612 -1.818,-0.668 -0.74,-0.063 -1.357,0.208 -1.856,0.812 -0.499,0.606 -0.793,1.455 -0.886,2.547 -0.112,1.301 0.012,3.177 0.369,5.622 C -1.339,-6.188 -0.774,-3.31 0,0"
             style="fill:#f27126;fill-opacity:1;fill-rule:nonzero;stroke:none"
             id="path230" /></g><g
           id="g232"
           transform="translate(214.3398,46.2803)"><path
             d="M 0,0 C -0.808,-0.128 -1.535,-0.232 -2.183,-0.315 -2.83,-0.403 -3.31,-0.459 -3.619,-0.483 -4.255,-0.54 -4.754,-0.48 -5.12,-0.3 c -0.364,0.176 -0.564,0.449 -0.594,0.82 -0.029,0.34 0.318,0.629 1.042,0.87 0.724,0.242 2.517,0.593 5.378,1.061 C 1.062,4.043 1.369,5.059 1.63,5.499 1.89,5.937 2.256,6.176 2.729,6.218 3.113,6.248 3.442,6.194 3.715,6.055 3.986,5.915 4.133,5.72 4.154,5.467 3.763,4.318 3.518,3.437 3.422,2.815 4.169,2.938 4.886,3.046 5.571,3.132 6.255,3.221 6.878,3.288 7.438,3.337 8.828,3.456 9.812,3.434 10.392,3.276 10.97,3.115 11.28,2.787 11.323,2.285 11.339,2.106 11.261,1.975 11.09,1.884 10.919,1.796 10.53,1.728 9.926,1.675 9.245,1.616 8.104,1.448 6.497,1.17 4.891,0.891 3.668,0.688 2.833,0.557 1.907,-2.725 1.208,-5.743 0.736,-8.507 c -0.471,-2.765 -0.653,-4.766 -0.548,-6.009 0.035,-0.413 0.132,-0.731 0.293,-0.956 0.162,-0.223 0.36,-0.327 0.597,-0.304 0.369,0.028 0.776,0.311 1.223,0.839 0.446,0.531 0.897,1.267 1.352,2.214 0.326,0.697 0.634,1.493 0.923,2.389 0.286,0.896 0.498,1.348 0.632,1.36 0.279,0.024 0.538,-0.045 0.775,-0.202 0.239,-0.156 0.365,-0.35 0.384,-0.572 0.027,-0.31 -0.187,-1.03 -0.641,-2.162 -0.455,-1.133 -1.042,-2.274 -1.761,-3.421 -0.418,-0.689 -0.909,-1.232 -1.47,-1.621 -0.562,-0.39 -1.17,-0.612 -1.818,-0.668 -0.74,-0.063 -1.357,0.208 -1.856,0.812 -0.499,0.606 -0.793,1.455 -0.886,2.547 -0.112,1.301 0.012,3.177 0.369,5.622 C -1.339,-6.188 -0.774,-3.31 0,0 Z"
             style="fill:none;stroke:#f27126;stroke-width:0.84;stroke-linecap:round;stroke-linejoin:round;stroke-miterlimit:10;stroke-dasharray:none;stroke-opacity:1"
             id="path234" /></g><g
           id="g236"
           transform="translate(220.9766,31.8018)"><path
             d="m 0,0 c 0.039,-0.474 0.148,-0.816 0.323,-1.033 0.174,-0.215 0.425,-0.309 0.748,-0.28 0.783,0.065 1.556,1 2.317,2.809 C 4.149,3.3 4.462,5.004 4.326,6.598 4.292,6.995 4.19,7.299 4.025,7.509 3.858,7.718 3.648,7.812 3.397,7.79 2.659,7.728 1.877,6.8 1.046,5.012 0.215,3.225 -0.134,1.552 0,0 M 3.314,9.568 3.4,9.6 C 3.678,9.667 3.912,9.709 4.103,9.727 4.738,9.778 5.284,9.5 5.738,8.884 6.193,8.27 6.474,7.423 6.58,6.344 7.343,6.646 8.014,7.231 8.596,8.1 9.176,8.967 9.562,9.41 9.754,9.428 9.977,9.446 10.158,9.406 10.302,9.307 10.443,9.204 10.522,9.06 10.538,8.87 10.56,8.63 10.513,8.387 10.399,8.143 10.286,7.896 10.103,7.611 9.847,7.291 9.368,6.447 8.846,5.766 8.28,5.249 7.715,4.73 7.104,4.387 6.448,4.21 5.996,1.851 5.302,0.026 4.371,-1.268 3.44,-2.561 2.301,-3.264 0.957,-3.379 c -1.004,-0.084 -1.835,0.177 -2.488,0.782 -0.655,0.606 -1.031,1.477 -1.128,2.618 -0.084,0.988 0.058,2.204 0.427,3.641 0.368,1.438 0.906,2.825 1.609,4.166 0.397,0.763 0.804,1.342 1.224,1.744 0.42,0.402 0.86,0.621 1.317,0.659 C 2.214,10.259 2.48,10.211 2.722,10.1 2.962,9.987 3.159,9.811 3.314,9.568"
             style="fill:#f27126;fill-opacity:1;fill-rule:nonzero;stroke:none"
             id="path238" /></g><g
           id="g240"
           transform="translate(220.9766,31.8018)"><path
             d="m 0,0 c 0.039,-0.474 0.148,-0.816 0.323,-1.033 0.174,-0.215 0.425,-0.309 0.748,-0.28 0.783,0.065 1.556,1 2.317,2.809 C 4.149,3.3 4.462,5.004 4.326,6.598 4.292,6.995 4.19,7.299 4.025,7.509 3.858,7.718 3.648,7.812 3.397,7.79 2.659,7.728 1.877,6.8 1.046,5.012 0.215,3.225 -0.134,1.552 0,0 Z M 3.314,9.568 3.4,9.6 C 3.678,9.667 3.912,9.709 4.103,9.727 4.738,9.778 5.284,9.5 5.738,8.884 6.193,8.27 6.474,7.423 6.58,6.344 7.343,6.646 8.014,7.231 8.596,8.1 9.176,8.967 9.562,9.41 9.754,9.428 9.977,9.446 10.158,9.406 10.302,9.307 10.443,9.204 10.522,9.06 10.538,8.87 10.56,8.63 10.513,8.387 10.399,8.143 10.286,7.896 10.103,7.611 9.847,7.291 9.368,6.447 8.846,5.766 8.28,5.249 7.715,4.73 7.104,4.387 6.448,4.21 5.996,1.851 5.302,0.026 4.371,-1.268 3.44,-2.561 2.301,-3.264 0.957,-3.379 c -1.004,-0.084 -1.835,0.177 -2.488,0.782 -0.655,0.606 -1.031,1.477 -1.128,2.618 -0.084,0.988 0.058,2.204 0.427,3.641 0.368,1.438 0.906,2.825 1.609,4.166 0.397,0.763 0.804,1.342 1.224,1.744 0.42,0.402 0.86,0.621 1.317,0.659 C 2.214,10.259 2.48,10.211 2.722,10.1 2.962,9.987 3.159,9.811 3.314,9.568 Z"
             style="fill:none;stroke:#f27126;stroke-width:0.84;stroke-linecap:round;stroke-linejoin:round;stroke-miterlimit:10;stroke-dasharray:none;stroke-opacity:1"
             id="path242" /></g><g
           id="g244"
           transform="translate(235.9063,34.7256)"><path
             d="m 0,0 c -0.562,-1.444 -1.151,-2.544 -1.772,-3.297 -0.622,-0.754 -1.263,-1.157 -1.927,-1.214 -0.356,-0.03 -0.678,0.012 -0.971,0.119 -0.292,0.109 -0.585,0.307 -0.876,0.594 -0.338,0.284 -0.582,0.583 -0.734,0.901 -0.156,0.311 -0.251,0.698 -0.289,1.156 -0.109,1.269 0.02,2.859 0.385,4.765 0.366,1.908 0.909,3.694 1.63,5.361 0.147,0.371 0.321,0.642 0.522,0.817 0.2,0.174 0.435,0.271 0.701,0.292 0.412,0.035 0.78,-0.087 1.102,-0.363 0.322,-0.277 0.5,-0.609 0.532,-0.992 C -1.689,8.036 -1.709,7.924 -1.757,7.799 -1.807,7.676 -1.893,7.533 -2.013,7.377 -2.767,5.406 -3.334,3.623 -3.711,2.027 -4.088,0.436 -4.24,-0.783 -4.168,-1.626 c 0.036,-0.442 0.123,-0.755 0.257,-0.937 0.135,-0.183 0.342,-0.261 0.623,-0.238 0.591,0.049 1.25,0.931 1.975,2.635 0.725,1.707 1.581,4.372 2.566,7.997 0.012,0.552 0.138,0.997 0.378,1.34 0.236,0.34 0.557,0.526 0.955,0.561 C 2.985,9.766 3.378,9.643 3.767,9.363 4.155,9.084 4.365,8.768 4.396,8.412 4.402,8.323 4.271,7.936 4.004,7.241 2.699,3.869 2.145,1.02 2.345,-1.315 2.377,-1.686 2.438,-1.979 2.531,-2.194 2.625,-2.408 2.729,-2.514 2.847,-2.501 3.32,-2.46 3.802,-2.04 4.292,-1.243 4.781,-0.438 5.307,0.779 5.864,2.423 5.889,2.497 5.918,2.59 5.953,2.697 6.093,3.169 6.295,3.419 6.56,3.441 6.708,3.454 6.92,3.363 7.197,3.173 7.474,2.978 7.618,2.81 7.632,2.662 7.649,2.456 7.46,1.827 7.066,0.782 6.67,-0.264 6.198,-1.232 5.649,-2.129 5.221,-2.848 4.775,-3.388 4.315,-3.738 3.854,-4.089 3.327,-4.29 2.737,-4.341 1.997,-4.402 1.37,-4.156 0.854,-3.609 c -0.515,0.551 -0.815,1.317 -0.898,2.29 0.004,0.12 0.009,0.295 0.012,0.526 C -0.028,-0.564 -0.019,-0.299 0,0"
             style="fill:#f27126;fill-opacity:1;fill-rule:nonzero;stroke:none"
             id="path246" /></g><g
           id="g248"
           transform="translate(235.9063,34.7256)"><path
             d="m 0,0 c -0.562,-1.444 -1.151,-2.544 -1.772,-3.297 -0.622,-0.754 -1.263,-1.157 -1.927,-1.214 -0.356,-0.03 -0.678,0.012 -0.971,0.119 -0.292,0.109 -0.585,0.307 -0.876,0.594 -0.338,0.284 -0.582,0.583 -0.734,0.901 -0.156,0.311 -0.251,0.698 -0.289,1.156 -0.109,1.269 0.02,2.859 0.385,4.765 0.366,1.908 0.909,3.694 1.63,5.361 0.147,0.371 0.321,0.642 0.522,0.817 0.2,0.174 0.435,0.271 0.701,0.292 0.412,0.035 0.78,-0.087 1.102,-0.363 0.322,-0.277 0.5,-0.609 0.532,-0.992 C -1.689,8.036 -1.709,7.924 -1.757,7.799 -1.807,7.676 -1.893,7.533 -2.013,7.377 -2.767,5.406 -3.334,3.623 -3.711,2.027 -4.088,0.436 -4.24,-0.783 -4.168,-1.626 c 0.036,-0.442 0.123,-0.755 0.257,-0.937 0.135,-0.183 0.342,-0.261 0.623,-0.238 0.591,0.049 1.25,0.931 1.975,2.635 0.725,1.707 1.581,4.372 2.566,7.997 0.012,0.552 0.138,0.997 0.378,1.34 0.236,0.34 0.557,0.526 0.955,0.561 C 2.985,9.766 3.378,9.643 3.767,9.363 4.155,9.084 4.365,8.768 4.396,8.412 4.402,8.323 4.271,7.936 4.004,7.241 2.699,3.869 2.145,1.02 2.345,-1.315 2.377,-1.686 2.438,-1.979 2.531,-2.194 2.625,-2.408 2.729,-2.514 2.847,-2.501 3.32,-2.46 3.802,-2.04 4.292,-1.243 4.781,-0.438 5.307,0.779 5.864,2.423 5.889,2.497 5.918,2.59 5.953,2.697 6.093,3.169 6.295,3.419 6.56,3.441 6.708,3.454 6.92,3.363 7.197,3.173 7.474,2.978 7.618,2.81 7.632,2.662 7.649,2.456 7.46,1.827 7.066,0.782 6.67,-0.264 6.198,-1.232 5.649,-2.129 5.221,-2.848 4.775,-3.388 4.315,-3.738 3.854,-4.089 3.327,-4.29 2.737,-4.341 1.997,-4.402 1.37,-4.156 0.854,-3.609 c -0.515,0.551 -0.815,1.317 -0.898,2.29 0.004,0.12 0.009,0.295 0.012,0.526 C -0.028,-0.564 -0.019,-0.299 0,0 Z"
             style="fill:none;stroke:#f27126;stroke-width:0.84;stroke-linecap:round;stroke-linejoin:round;stroke-miterlimit:10;stroke-dasharray:none;stroke-opacity:1"
             id="path250" /></g><g
           id="g252"
           transform="translate(241.7402,33.3271)"><path
             d="M 0,0 C 0.539,-0.208 1.082,-0.387 1.632,-0.543 2.179,-0.695 2.758,-0.835 3.364,-0.964 3.33,-0.564 3.123,0.258 2.741,1.505 2.357,2.755 2.071,3.823 1.875,4.711 1.712,4.015 1.477,3.278 1.171,2.501 0.866,1.722 0.475,0.89 0,0 m -0.889,-1.615 c -0.085,-0.069 -0.209,-0.166 -0.376,-0.302 -0.486,-0.398 -0.805,-0.602 -0.952,-0.615 -0.207,-0.018 -0.357,0.052 -0.454,0.207 -0.094,0.154 -0.159,0.446 -0.196,0.876 -0.005,0.057 0.123,0.299 0.384,0.723 2.292,3.857 3.756,8.217 4.398,13.078 -0.004,0.06 -0.004,0.147 0,0.268 0.005,0.12 0.006,0.193 0.004,0.222 -0.032,0.384 0.028,0.696 0.188,0.932 0.159,0.238 0.393,0.37 0.705,0.394 C 3.18,14.2 3.655,14.073 4.239,13.787 4.82,13.504 5.121,13.251 5.14,13.03 5.141,13.015 5.096,12.936 5.003,12.792 3.935,11.198 3.493,9.286 3.685,7.057 3.779,5.947 4.123,4.546 4.725,2.857 5.32,1.167 5.647,0.006 5.701,-0.63 5.771,-1.458 5.607,-2.183 5.207,-2.806 4.805,-3.427 4.346,-3.758 3.828,-3.804 3.341,-3.845 2.566,-3.529 1.506,-2.862 c -1.062,0.668 -1.86,1.083 -2.395,1.247"
             style="fill:#f27126;fill-opacity:1;fill-rule:nonzero;stroke:none"
             id="path254" /></g><g
           id="g256"
           transform="translate(241.7402,33.3271)"><path
             d="M 0,0 C 0.539,-0.208 1.082,-0.387 1.632,-0.543 2.179,-0.695 2.758,-0.835 3.364,-0.964 3.33,-0.564 3.123,0.258 2.741,1.505 2.357,2.755 2.071,3.823 1.875,4.711 1.712,4.015 1.477,3.278 1.171,2.501 0.866,1.722 0.475,0.89 0,0 Z m -0.889,-1.615 c -0.085,-0.069 -0.209,-0.166 -0.376,-0.302 -0.486,-0.398 -0.805,-0.602 -0.952,-0.615 -0.207,-0.018 -0.357,0.052 -0.454,0.207 -0.094,0.154 -0.159,0.446 -0.196,0.876 -0.005,0.057 0.123,0.299 0.384,0.723 2.292,3.857 3.756,8.217 4.398,13.078 -0.004,0.06 -0.004,0.147 0,0.268 0.005,0.12 0.006,0.193 0.004,0.222 -0.032,0.384 0.028,0.696 0.188,0.932 0.159,0.238 0.393,0.37 0.705,0.394 C 3.18,14.2 3.655,14.073 4.239,13.787 4.82,13.504 5.121,13.251 5.14,13.03 5.141,13.015 5.096,12.936 5.003,12.792 3.935,11.198 3.493,9.286 3.685,7.057 3.779,5.947 4.123,4.546 4.725,2.857 5.32,1.167 5.647,0.006 5.701,-0.63 5.771,-1.458 5.607,-2.183 5.207,-2.806 4.805,-3.427 4.346,-3.758 3.828,-3.804 3.341,-3.845 2.566,-3.529 1.506,-2.862 c -1.062,0.668 -1.86,1.083 -2.395,1.247 z"
             style="fill:none;stroke:#f27126;stroke-width:0.84;stroke-linecap:round;stroke-linejoin:round;stroke-miterlimit:10;stroke-dasharray:none;stroke-opacity:1"
             id="path258" /></g><g
           id="g260"
           transform="translate(266.8525,41.1846)"><path
             d="m 0,0 c 0.028,-0.671 -0.057,-1.13 -0.251,-1.385 -0.192,-0.254 -0.565,-0.407 -1.11,-0.45 -0.413,-0.039 -0.726,-0.008 -0.934,0.086 -0.208,0.094 -0.323,0.26 -0.344,0.495 -0.096,1.123 0.169,3.664 0.789,7.626 0.623,3.96 1.516,8.018 2.679,12.181 l 0.07,0.228 c 0.688,2.409 1.526,3.657 2.517,3.741 0.486,0.041 0.917,-0.073 1.29,-0.346 C 5.079,21.903 5.278,21.605 5.307,21.278 5.316,21.174 5.29,21.041 5.229,20.881 5.167,20.718 5.048,20.474 4.868,20.146 4.438,18.562 3.782,15.949 2.901,12.311 2.021,8.671 1.054,4.566 0,0 m -2.688,-8.289 c -0.648,-0.056 -1.161,0.023 -1.536,0.236 -0.376,0.215 -0.583,0.544 -0.62,0.986 -0.066,0.784 0.226,1.546 0.877,2.282 0.652,0.744 1.309,1.14 1.974,1.197 0.429,0.036 0.77,-0.089 1.025,-0.38 0.255,-0.291 0.408,-0.724 0.458,-1.3 0.064,-0.754 -0.121,-1.43 -0.553,-2.034 -0.431,-0.604 -0.973,-0.93 -1.625,-0.987"
             style="fill:#f27126;fill-opacity:1;fill-rule:nonzero;stroke:none"
             id="path262" /></g><g
           id="g264"
           transform="translate(266.8525,41.1846)"><path
             d="m 0,0 c 0.028,-0.671 -0.057,-1.13 -0.251,-1.385 -0.192,-0.254 -0.565,-0.407 -1.11,-0.45 -0.413,-0.039 -0.726,-0.008 -0.934,0.086 -0.208,0.094 -0.323,0.26 -0.344,0.495 -0.096,1.123 0.169,3.664 0.789,7.626 0.623,3.96 1.516,8.018 2.679,12.181 l 0.07,0.228 c 0.688,2.409 1.526,3.657 2.517,3.741 0.486,0.041 0.917,-0.073 1.29,-0.346 C 5.079,21.903 5.278,21.605 5.307,21.278 5.316,21.174 5.29,21.041 5.229,20.881 5.167,20.718 5.048,20.474 4.868,20.146 4.438,18.562 3.782,15.949 2.901,12.311 2.021,8.671 1.054,4.566 0,0 Z m -2.688,-8.289 c -0.648,-0.056 -1.161,0.023 -1.536,0.236 -0.376,0.215 -0.583,0.544 -0.62,0.986 -0.066,0.784 0.226,1.546 0.877,2.282 0.652,0.744 1.309,1.14 1.974,1.197 0.429,0.036 0.77,-0.089 1.025,-0.38 0.255,-0.291 0.408,-0.724 0.458,-1.3 0.064,-0.754 -0.121,-1.43 -0.553,-2.034 -0.431,-0.604 -0.973,-0.93 -1.625,-0.987 z"
             style="fill:none;stroke:#f27126;stroke-width:0.84;stroke-linecap:round;stroke-linejoin:round;stroke-miterlimit:10;stroke-dasharray:none;stroke-opacity:1"
             id="path266" /></g><g
           id="g268"
           transform="translate(46.6353,168.3921)"><path
             d="m 0,0 c 1.078,-2.567 0.094,-4.517 -2.023,-5.406 -2.117,-0.888 -4.198,-0.225 -5.275,2.342 l -10.44,24.869 c -1.077,2.568 -0.094,4.517 2.024,5.405 2.117,0.889 4.197,0.227 5.275,-2.341 l 3.631,-8.65 13.605,5.71 -3.631,8.651 c -1.078,2.567 -0.094,4.516 2.023,5.404 2.118,0.889 4.198,0.226 5.275,-2.341 L 20.904,8.774 C 21.981,6.207 20.998,4.257 18.88,3.368 16.763,2.479 14.683,3.143 13.605,5.71 L 9.634,15.171 -3.971,9.461 Z"
             style="fill:#3163b7;fill-opacity:1;fill-rule:nonzero;stroke:none"
             id="path270" /></g><g
           id="g272"
           transform="translate(73.4854,189.5186)"><path
             d="m 0,0 c 1.361,-3.244 4.208,-5.229 7.316,-3.924 3.109,1.305 3.686,4.727 2.325,7.971 C 8.279,7.291 5.433,9.274 2.324,7.97 -0.784,6.665 -1.361,3.244 0,0 m 20.281,-1.608 c 0.851,-2.027 0.09,-4.254 -1.983,-5.124 -1.711,-0.719 -3.284,0 -4.234,0.872 -0.763,-2.599 -2.244,-4.121 -4.902,-5.237 -6.127,-2.571 -13.221,1.074 -16.19,8.147 -2.969,7.074 -0.602,14.69 5.525,17.262 2.658,1.115 4.781,1.106 7.171,-0.169 0.042,1.289 0.632,2.914 2.343,3.633 2.073,0.87 4.195,-0.147 5.046,-2.174 z"
             style="fill:#3163b7;fill-opacity:1;fill-rule:nonzero;stroke:none"
             id="path274" /></g><g
           id="g276"
           transform="translate(89.6533,206.4258)"><path
             d="m 0,0 c -0.852,2.027 -0.09,4.254 1.982,5.124 1.892,0.794 3.574,0.069 4.46,-0.778 0.389,2.23 1.883,3.97 4.902,5.237 4.865,2.043 9.799,1.146 12.219,-4.62 l 5.465,-13.021 c 0.851,-2.026 0.09,-4.253 -1.982,-5.123 -2.072,-0.87 -4.194,0.147 -5.046,2.174 L 17.329,0.121 C 16.309,2.554 14.11,3.75 11.677,2.729 9.245,1.708 8.56,-0.699 9.581,-3.132 l 4.67,-11.128 c 0.852,-2.027 0.091,-4.254 -1.982,-5.124 -2.072,-0.869 -4.195,0.148 -5.045,2.174 z"
             style="fill:#3163b7;fill-opacity:1;fill-rule:nonzero;stroke:none"
             id="path278" /></g><g
           id="g280"
           transform="translate(124.3979,210.8892)"><path
             d="m 0,0 c 1.361,-3.244 4.208,-5.229 7.316,-3.924 3.109,1.305 3.686,4.727 2.325,7.971 C 8.279,7.291 5.433,9.275 2.324,7.97 -0.784,6.665 -1.362,3.244 0,0 m 20.281,-1.608 c 0.85,-2.027 0.09,-4.254 -1.983,-5.124 -1.712,-0.719 -3.285,-10e-4 -4.234,0.871 -0.764,-2.598 -2.244,-4.12 -4.902,-5.236 -6.127,-2.571 -13.221,1.074 -16.19,8.147 -2.969,7.074 -0.602,14.69 5.525,17.262 3.018,1.267 4.947,0.963 6.643,0.458 l -3.498,8.334 c -0.851,2.027 -0.091,4.253 1.982,5.123 2.073,0.87 4.195,-0.146 5.045,-2.173 z"
             style="fill:#3163b7;fill-opacity:1;fill-rule:nonzero;stroke:none"
             id="path282" /></g><g
           id="g284"
           transform="translate(140.4307,227.7397)"><path
             d="M 0,0 C -0.851,2.027 -0.09,4.254 1.982,5.125 4.055,5.994 6.177,4.977 7.028,2.95 l 7.224,-17.21 c 0.851,-2.027 0.09,-4.254 -1.982,-5.123 -2.073,-0.87 -4.195,0.147 -5.046,2.173 z M -2.404,15.576 C -0.107,16.54 2.561,15.488 3.544,13.145 4.526,10.803 3.41,8.161 1.113,7.197 c -2.298,-0.965 -4.966,0.089 -5.949,2.43 -0.983,2.343 0.134,4.984 2.432,5.949"
             style="fill:#3163b7;fill-opacity:1;fill-rule:nonzero;stroke:none"
             id="path286" /></g><g
           id="g288"
           transform="translate(54.332,161.9844)"><path
             d="M 0,0 C 4.586,1.377 10.455,1.71 11.649,-2.268 12.197,-4.093 11.42,-6.263 9.454,-6.854 7.677,-7.387 5.327,-6.358 2.379,-7.243 c -6.13,-1.841 -7.075,-7.531 -5.529,-12.68 1.587,-5.287 5.664,-9.011 10.858,-7.451 4.727,1.418 5.012,3.187 6.978,3.777 2.995,0.899 4.127,-1.515 4.422,-2.498 1.25,-4.166 -4.631,-7.511 -8.796,-8.762 -10.483,-3.147 -18.739,2.944 -21.604,12.49 C -14.327,-12.259 -10.014,-3.006 0,0"
             style="fill:#3163b7;fill-opacity:1;fill-rule:nonzero;stroke:none"
             id="path290" /></g><g
           id="g292"
           transform="translate(79.0752,145.8442)"><path
             d="m 0,0 c 1.012,-3.369 3.633,-5.643 6.861,-4.674 3.23,0.969 4.165,4.311 3.154,7.68 C 9.003,6.376 6.382,8.649 3.153,7.68 -0.076,6.71 -1.012,3.37 0,0 m 19.998,-3.74 c 0.632,-2.105 -0.36,-4.239 -2.513,-4.885 -1.777,-0.535 -3.266,0.345 -4.118,1.313 -1.034,-2.504 -2.667,-3.86 -5.428,-4.689 -6.365,-1.911 -13.033,2.462 -15.239,9.809 -2.206,7.348 0.951,14.672 7.316,16.583 2.761,0.829 4.871,0.595 7.114,-0.926 0.177,1.279 0.935,2.833 2.713,3.367 2.153,0.646 4.156,-0.589 4.788,-2.696 z"
             style="fill:#3163b7;fill-opacity:1;fill-rule:nonzero;stroke:none"
             id="path294" /></g><g
           id="g296"
           transform="translate(116.7949,157.168)"><path
             d="M 0,0 C -1.012,3.37 -3.633,5.643 -6.862,4.673 -10.09,3.704 -11.026,0.364 -10.015,-3.006 -9.003,-6.375 -6.382,-8.649 -3.153,-7.68 0.076,-6.711 1.011,-3.369 0,0 m -19.998,3.74 c -0.632,2.107 0.359,4.241 2.513,4.887 1.777,0.534 3.266,-0.346 4.118,-1.315 1.034,2.504 2.666,3.862 5.428,4.691 C -1.576,13.914 5.095,9.539 7.3,2.191 9.506,-5.155 6.348,-12.479 -0.017,-14.39 c -3.134,-0.941 -5.02,-0.436 -6.654,0.247 l 2.374,-7.909 c 0.632,-2.106 -0.359,-4.24 -2.512,-4.886 -2.152,-0.647 -4.156,0.588 -4.788,2.695 z"
             style="fill:#3163b7;fill-opacity:1;fill-rule:nonzero;stroke:none"
             id="path298" /></g><g
           id="g300"
           transform="translate(52.271,107.2217)"><path
             d="m 0,0 c 0,2.54 1.906,3.957 3.958,3.957 h 12.117 c 2.491,0 3.957,-1.466 3.957,-3.664 0,-2.297 -1.466,-3.664 -3.957,-3.664 H 7.916 v -6.303 h 7.475 c 2.491,0 3.957,-1.417 3.957,-3.665 0,-2.247 -1.466,-3.664 -3.957,-3.664 H 7.916 v -6.498 h 8.452 c 2.492,0 3.957,-1.368 3.957,-3.665 0,-2.198 -1.465,-3.664 -3.957,-3.664 H 3.958 C 1.906,-30.83 0,-29.413 0,-26.872 Z"
             style="fill:#3163b7;fill-opacity:1;fill-rule:nonzero;stroke:none"
             id="path302" /></g><g
           id="g304"
           transform="translate(73.918,94.6162)"><path
             d="m 0,0 c -0.684,1.71 -1.172,3.078 -1.172,4.25 0,2.053 1.71,3.812 3.811,3.812 1.514,0 2.833,-0.49 3.664,-2.883 l 4.055,-11.531 h 0.098 l 4.055,11.531 c 0.831,2.393 2.15,2.883 3.664,2.883 2.101,0 3.811,-1.759 3.811,-3.812 0,-1.172 -0.488,-2.54 -1.172,-4.25 l -6.205,-15.439 c -0.733,-1.808 -2.052,-3.079 -4.202,-3.079 -2.15,0 -3.469,1.271 -4.202,3.079 z"
             style="fill:#3163b7;fill-opacity:1;fill-rule:nonzero;stroke:none"
             id="path306" /></g><g
           id="g308"
           transform="translate(104.0171,89.3877)"><path
             d="m 0,0 c 0,-3.518 1.856,-6.449 5.228,-6.449 3.371,0 5.228,2.931 5.228,6.449 0,3.519 -1.857,6.449 -5.228,6.449 C 1.856,6.449 0,3.519 0,0 m 18.078,-9.332 c 0,-2.198 -1.564,-3.957 -3.811,-3.957 -1.857,0 -3.03,1.27 -3.567,2.442 -1.71,-2.1 -3.664,-2.93 -6.547,-2.93 -6.645,0 -11.775,6.106 -11.775,13.777 0,7.671 5.13,13.778 11.775,13.778 2.883,0 4.837,-0.83 6.547,-2.931 0.537,1.173 1.71,2.443 3.567,2.443 2.247,0 3.811,-1.759 3.811,-3.958 z"
             style="fill:#3163b7;fill-opacity:1;fill-rule:nonzero;stroke:none"
             id="path310" /></g><g
           id="g312"
           transform="translate(127.2764,84.5508)"><path
             d="m 0,0 c 2.394,0 4.055,-2.198 7.329,-2.198 1.563,0 2.15,0.732 2.15,1.514 0,1.564 -1.662,1.71 -5.913,3.469 -3.908,1.612 -6.009,3.078 -6.009,7.183 0,4.347 3.713,8.647 9.82,8.647 3.079,0 8.795,-1.466 8.795,-5.423 0,-1.906 -1.368,-3.224 -3.176,-3.224 -1.515,0 -3.762,1.905 -6.107,1.905 -1.026,0 -2.003,-0.489 -2.003,-1.612 0,-2.981 11.922,-2.297 11.922,-10.652 0,-5.374 -4.545,-8.549 -9.772,-8.549 -4.789,0 -10.163,1.905 -10.163,5.276 C -3.127,-1.515 -1.71,0 0,0"
             style="fill:#3163b7;fill-opacity:1;fill-rule:nonzero;stroke:none"
             id="path314" /></g><g
           id="g316"
           transform="translate(146.1377,98.7197)"><path
             d="M 0,0 C 0,2.199 1.563,3.958 3.811,3.958 6.059,3.958 7.622,2.199 7.622,0 v -18.664 c 0,-2.198 -1.563,-3.957 -3.811,-3.957 -2.248,0 -3.811,1.759 -3.811,3.957 z m 3.811,15.293 c 2.492,0 4.543,-2.003 4.543,-4.544 0,-2.54 -2.051,-4.544 -4.543,-4.544 -2.492,0 -4.543,2.004 -4.543,4.544 0,2.541 2.051,4.544 4.543,4.544"
             style="fill:#3163b7;fill-opacity:1;fill-rule:nonzero;stroke:none"
             id="path318" /></g><g
           id="g320"
           transform="translate(163.7266,89.3877)"><path
             d="m 0,0 c 0,-3.518 1.857,-6.449 5.229,-6.449 3.371,0 5.227,2.931 5.227,6.449 0,3.519 -1.856,6.449 -5.227,6.449 C 1.857,6.449 0,3.519 0,0 m 18.078,0 c 0,-7.671 -5.13,-13.777 -12.849,-13.777 -7.72,0 -12.851,6.106 -12.851,13.777 0,7.671 5.131,13.778 12.851,13.778 7.719,0 12.849,-6.107 12.849,-13.778"
             style="fill:#3163b7;fill-opacity:1;fill-rule:nonzero;stroke:none"
             id="path322" /></g><g
           id="g324"
           transform="translate(184.2998,98.7197)"><path
             d="m 0,0 c 0,2.199 1.563,3.958 3.812,3.958 2.051,0 3.322,-1.319 3.81,-2.443 1.222,1.905 3.274,2.931 6.547,2.931 5.277,0 9.478,-2.736 9.478,-8.99 v -14.12 c 0,-2.198 -1.563,-3.957 -3.81,-3.957 -2.248,0 -3.812,1.759 -3.812,3.957 v 12.068 c 0,2.639 -1.563,4.593 -4.201,4.593 -2.638,0 -4.202,-1.954 -4.202,-4.593 v -12.068 c 0,-2.198 -1.563,-3.957 -3.81,-3.957 -2.249,0 -3.812,1.759 -3.812,3.957 z"
             style="fill:#3163b7;fill-opacity:1;fill-rule:nonzero;stroke:none"
             id="path326" /></g><g
           id="g328"
           transform="translate(134.8486,247.8774)"><path
             d="M 0,0 C -5.436,8.472 -11.471,19.854 -15.94,19.826 -19.268,19.807 -28.53,2.161 -31.375,2.613 c -4.536,0.726 -15.58,22.7 -20.211,22.7 -5.539,-4.081 -25.328,-47.064 -29.286,-61.133"
             style="fill:#f27126;fill-opacity:1;fill-rule:nonzero;stroke:#3163b7;stroke-width:6.517;stroke-linecap:round;stroke-linejoin:round;stroke-miterlimit:10;stroke-dasharray:none;stroke-opacity:1"
             id="path330" /></g><g
           id="g332"
           transform="translate(64.4673,117.7607)"><path
             d="M 0,0 C 45.516,3.31 113.94,17.128 121.975,33.776 130.44,51.317 53.334,29.348 68.519,48.258 76.733,58.488 204.842,84.79 204.842,84.79"
             style="fill:none;stroke:#3163b7;stroke-width:6.291;stroke-linecap:round;stroke-linejoin:round;stroke-miterlimit:10;stroke-dasharray:none;stroke-opacity:1"
             id="path334" /></g></g></g></g></svg>
