<?xml version="1.0" encoding="UTF-8" standalone="no"?>
<svg
   xmlns:dc="http://purl.org/dc/elements/1.1/"
   xmlns:cc="http://creativecommons.org/ns#"
   xmlns:rdf="http://www.w3.org/1999/02/22-rdf-syntax-ns#"
   xmlns:svg="http://www.w3.org/2000/svg"
   xmlns="http://www.w3.org/2000/svg"
   viewBox="0 0 755.90552 680.31497"
   height="180mm"
   width="200mm"
   xml:space="preserve"
   id="svg2"
   version="1.1"><metadata
     id="metadata8"><rdf:RDF><cc:Work
         rdf:about=""><dc:format>image/svg+xml</dc:format><dc:type
           rdf:resource="http://purl.org/dc/dcmitype/StillImage" /><dc:title></dc:title></cc:Work></rdf:RDF></metadata><defs
     id="defs6"><clipPath
       id="clipPath18"
       clipPathUnits="userSpaceOnUse"><path
         id="path16"
         d="M 0,840 H 592 V 0 H 0 Z" /></clipPath><clipPath
       id="clipPath104"
       clipPathUnits="userSpaceOnUse"><path
         id="path102"
         d="M 0,840 H 592 V 0 H 0 Z" /></clipPath></defs><g
     transform="matrix(1.3333333,0,0,-1.3333333,-4.7457595,1157.2641)"
     id="g10"><g
       id="g12"><rect
         transform="scale(1,-1)"
         y="-867.94812"
         x="3.5593197"
         height="510.23624"
         width="566.92914"
         id="rect4651"
         style="opacity:1;vector-effect:none;fill:#ffffff;fill-opacity:1;stroke:none;stroke-width:0.45818448;stroke-linecap:butt;stroke-linejoin:miter;stroke-miterlimit:4;stroke-dasharray:none;stroke-dashoffset:0;stroke-opacity:1" /><g
         clip-path="url(#clipPath18)"
         id="g14"><path
           id="path20"
           style="fill:#f7ee33;fill-opacity:1;fill-rule:nonzero;stroke:none"
           d="m 413.311,768.396 -12.961,-36.483 17.6,-13.442 24.963,26.083 -4.641,24.162" /><path
           id="path22"
           style="fill:#242321;fill-opacity:1;fill-rule:nonzero;stroke:none"
           d="m 466.908,514.921 27.203,-14.242 2.401,3.041 -25.281,12.161" /><path
           id="path24"
           style="fill:#242321;fill-opacity:1;fill-rule:nonzero;stroke:none"
           d="m 498.433,487.878 18.242,-2.88 -11.842,-12.961" /><path
           id="path26"
           style="fill:#6b76c3;fill-opacity:1;fill-rule:nonzero;stroke:none"
           d="m 354.1,463.075 118.57,19.363 40.964,4.161 -15.362,-27.843 -59.045,-16.484 -34.243,-7.361 -56.806,23.843" /><path
           id="path28"
           style="fill:#6b76c3;fill-opacity:1;fill-rule:nonzero;stroke:none"
           d="m 432.666,525.644 47.525,-35.843 -20.164,-17.283 -26.081,44.483 -1.598,4.96" /><path
           id="path30"
           style="fill:#6b76c3;fill-opacity:1;fill-rule:nonzero;stroke:none"
           d="m 475.711,539.885 -18.243,-21.921 -7.521,9.601 22.723,14.561" /><path
           id="path32"
           style="fill:#6b76c3;fill-opacity:1;fill-rule:nonzero;stroke:none"
           d="m 452.828,542.126 -7.201,-4.16 1.601,-2.56 6.24,4.479" /><path
           id="path34"
           style="fill:#6b76c3;fill-opacity:1;fill-rule:nonzero;stroke:none"
           d="m 338.251,616.054 8.161,9.6 29.764,-34.404 8.96,-41.283 -12.001,-1.601" /><path
           id="path36"
           style="fill:#ffffff;fill-opacity:1;fill-rule:nonzero;stroke:none"
           d="m 256.647,609.195 15.098,41.67 22.95,-15.097 50.127,60.997 73.678,-71.265 28.99,25.365 18.118,-33.819 -33.216,-18.119 -137.697,1.812 z" /><path
           id="path38"
           style="fill:#139b5b;fill-opacity:1;fill-rule:nonzero;stroke:none"
           d="m 364.169,545.806 8.001,-5.921 -0.479,-4.96 -4.001,0.639" /><path
           id="path40"
           style="fill:#139b5b;fill-opacity:1;fill-rule:nonzero;stroke:none"
           d="m 319.687,528.525 -4.962,-1.12 -16.161,-12.801 17.601,-1.44 10.721,2.72" /><path
           id="path42"
           style="fill:#139b5b;fill-opacity:1;fill-rule:nonzero;stroke:none"
           d="m 329.929,601.494 -9.764,-8.319 8.802,-9.603 9.922,5.602" /><path
           id="path44"
           style="fill:#139b5b;fill-opacity:1;fill-rule:nonzero;stroke:none"
           d="m 482.793,540.377 -47.246,-0.492 32.004,17.443" /><path
           id="path46"
           style="fill:#66c873;fill-opacity:1;fill-rule:nonzero;stroke:none"
           d="m 456.668,616.054 22.083,-24.804 33.922,-46.724 -14.24,2.56" /><path
           id="path48"
           style="fill:#66c873;fill-opacity:1;fill-rule:nonzero;stroke:none"
           d="m 404.498,548.526 -25.923,-4.32 30.075,-24.355 c 0,0 1.77,31.396 -4.152,28.675" /><path
           id="path50"
           style="fill:#66c873;fill-opacity:1;fill-rule:nonzero;stroke:none"
           d="m 427.061,586.134 11.84,-13.602 15.042,16.162" /><path
           id="path52"
           style="fill:#66c873;fill-opacity:1;fill-rule:nonzero;stroke:none"
           d="m 392.337,591.734 -9.762,-14.881 1.921,-5.282 13.442,-16 5.281,6.24 -8.161,26.244" /><path
           id="path54"
           style="fill:#66c873;fill-opacity:1;fill-rule:nonzero;stroke:none"
           d="m 372.977,611.576 15.52,-14.722 -2.56,-4.959" /><path
           id="path56"
           style="fill:#66c873;fill-opacity:1;fill-rule:nonzero;stroke:none"
           d="m 356.975,629.658 -4.642,4.96 -2.878,-1.44 13.76,-13.443 1.921,3.042" /><path
           id="path58"
           style="fill:#66c873;fill-opacity:1;fill-rule:nonzero;stroke:none"
           d="m 325.712,655.569 -1.546,1.931 -3.841,-8.321" /><path
           id="path60"
           style="fill:#66c873;fill-opacity:1;fill-rule:nonzero;stroke:none"
           d="m 278.242,589.014 -11.174,23.828 -3.067,1.773 -8.001,-13.279 -16.641,-39.685 0.9,-1.587" /><path
           id="path62"
           style="fill:#66c873;fill-opacity:1;fill-rule:nonzero;stroke:none"
           d="m 296.965,584.533 6.721,-4.641 4.638,-0.96 7.683,0.799 6.399,-1.918 -13.441,-21.921 -10.401,-3.682 -4.96,-0.159 -0.96,1.281" /><path
           id="path64"
           style="fill:#242321;fill-opacity:1;fill-rule:nonzero;stroke:none"
           d="m 457.66,808.879 c 3.094,0.059 5.305,-0.332 7.539,-0.838 0.537,-0.868 0.871,-0.964 1.256,-2.094 1.756,-2.726 -2.095,-7.476 -2.932,-9.634 -3.62,-9.338 0.103,-20.107 -13.823,-19.688 -1.644,1.545 -3.627,2.376 -4.606,4.608 -4.267,9.718 1.347,21.129 7.538,25.552 1.424,1.016 3.556,1.085 5.028,2.094" /><path
           id="path66"
           style="fill:#242321;fill-opacity:1;fill-rule:nonzero;stroke:none"
           d="m 393.571,808.041 c 3.273,0.057 4.757,-0.669 7.119,-1.256 4.572,-6.798 10.508,-18.437 1.258,-24.714 -1.592,-1.08 -2.25,-1.971 -5.026,-2.094 -2.778,1.7 -6.451,1.318 -8.377,3.77 -7.697,9.796 -0.777,18.305 5.026,24.294" /><path
           id="path68"
           style="fill:#242321;fill-opacity:1;fill-rule:nonzero;stroke:none"
           d="m 408.231,767.829 c 2.373,-0.14 4.748,-0.279 7.122,-0.419 0.272,-0.526 0.456,-0.868 0.836,-1.257 -1.149,-2.739 -2.78,-4.126 -4.188,-6.283 -4.565,-6.999 -9.398,-20.344 -5.026,-30.996 1.183,-2.881 4.611,-3.858 6.702,-5.866 11.369,-0.874 21.527,11.555 22.2,23.038 -1.292,0.816 -1.437,1.21 -3.77,1.258 -2.016,-1.964 -14.007,-9.347 -17.174,-7.959 -1.613,0.544 -1.878,1.5 -2.932,2.513 -0.271,11.85 8.715,21.731 16.755,25.133 5.595,2.367 14.861,0.449 18.432,-2.094 4.389,-3.127 8.362,-15.36 5.864,-23.458 -3.457,-11.206 -10.357,-20.587 -19.268,-26.389 -2.902,-1.889 -6.712,-1.814 -10.471,-2.932 -10.536,-3.134 -22.392,-1.59 -27.23,5.864 -2.5,3.855 -1.293,8.33 -2.512,13.823 -0.615,2.772 -0.816,7.61 0,10.891 1.841,7.407 3.614,14.845 7.54,20.106 1.788,2.397 4.942,3.028 7.12,5.027" /><path
           id="path70"
           style="fill:#242321;fill-opacity:1;fill-rule:nonzero;stroke:none"
           d="m 357.546,756.519 c 9.614,0.301 24.334,-1.518 24.295,-10.473 -1.885,-1.842 -2.862,-4.265 -6.282,-4.607 -2.085,-1.385 -6.774,0.143 -9.636,-0.419 -7.566,-1.485 -16.533,0.377 -16.755,8.797 1.415,1.491 2.042,3.869 3.77,5.026 1.537,0.559 3.072,1.117 4.608,1.676" /><path
           id="path72"
           style="fill:#242321;fill-opacity:1;fill-rule:nonzero;stroke:none"
           d="m 466.875,745.628 c 8.418,0.227 14.171,-3.905 19.269,-7.121 1.87,-1.179 4.164,-1.153 5.026,-3.351 0.126,-0.333 0.034,-3.027 0,-4.607 -11.425,-7.752 -23.832,-1.153 -30.578,7.12 0.973,5.06 2.997,5.399 6.283,7.959" /><path
           id="path74"
           style="fill:#242321;fill-opacity:1;fill-rule:nonzero;stroke:none"
           d="m 386.867,718.401 c 1.359,-0.04 3.694,-0.205 4.61,-0.838 2.529,-0.791 3.839,-2.771 3.769,-6.283 -5.297,-4.205 -4.264,-7.633 -13.822,-7.121 -0.571,0.914 -1.36,2.096 -2.096,2.932 1.379,7.632 2.617,7.506 7.539,11.31" /><path
           id="path76"
           style="fill:#242321;fill-opacity:1;fill-rule:nonzero;stroke:none"
           d="m 344.562,716.726 c 6.478,-0.563 15.433,-10.452 19.687,-14.243 14.584,-12.995 28.57,-28.127 40.212,-43.983 4.228,-5.759 8.363,-11.525 12.566,-17.173 1.473,-1.978 2.618,-4.438 5.447,-5.027 1.351,1.813 3.757,3.151 5.026,5.027 2.113,3.124 2.927,6.57 5.026,9.634 1.899,2.769 4.704,5.601 6.703,8.377 2.773,3.855 5.072,7.99 11.728,7.959 0.569,-0.528 0.741,-0.571 1.675,-0.838 2.972,-4.83 5.863,-11.702 7.96,-17.173 1.074,-2.805 0.898,-5.356 2.095,-7.959 1.166,-2.54 3.542,-5.522 5.026,-7.959 1.136,-1.865 1.035,-3.782 2.095,-5.865 1.7,-3.339 4.538,-7.885 6.7,-11.31 1.19,-1.88 3.341,-3.289 4.609,-5.026 1.738,-2.379 2.857,-4.72 4.609,-7.12 1.813,-1.677 3.628,-3.352 5.444,-5.027 3.421,-4.674 8.076,-11.681 12.567,-15.08 5.486,-4.154 11.196,-8.858 15.917,-13.823 6.2,-6.523 17.538,-22.107 15.081,-35.185 -1.424,-0.911 -2.042,-1.768 -4.189,-2.095 -2.571,1.85 -5.878,2.398 -8.38,4.188 -4.687,3.356 -9.163,7.375 -13.822,10.892 -1.814,1.953 -3.63,3.909 -5.444,5.864 -3.939,2.975 -9.249,7.418 -12.148,11.309 -9.564,12.83 -18.788,26.394 -27.229,40.212 -0.976,2.235 -1.955,4.469 -2.931,6.702 -3.65,6.01 -7.686,12.47 -10.892,18.851 -1.647,3.28 -2.39,6.791 -4.189,9.634 -2.598,-1.267 -3.797,-2.813 -5.444,-5.027 -1.611,-2.165 -4.053,-4.3 -5.028,-7.121 -1.484,-4.298 0.269,-11.092 1.258,-14.662 1.119,-4.041 2.01,-7.305 2.932,-10.889 0.279,-2.654 0.558,-5.307 0.838,-7.96 1.551,-5.622 3.324,-12.954 2.093,-18.848 -0.418,-0.142 -0.837,-0.28 -1.255,-0.419 -0.748,-0.53 -1.767,-0.513 -2.513,0 -2.694,0.975 -3.503,3.368 -5.447,5.026 -6.007,5.127 -11.724,16.528 -16.335,23.458 -6.427,9.655 -14.297,18.464 -20.944,27.646 -4.737,6.539 -8.326,13.479 -12.986,20.106 -3.945,5.61 -9.085,10.248 -13.824,15.08 -4.907,5.001 -15.95,19.432 -24.294,19.687 -0.896,-1.42 -2.457,-2.383 -3.352,-3.77 -3.876,-6.013 -7.631,-12.51 -11.309,-18.431 -9.163,-14.744 -16.586,-30.529 -26.39,-44.401 -4.3,-6.084 -8.873,-20.091 -18.431,-20.106 -1.022,1.055 -1.952,1.324 -2.514,2.932 -1.474,1.864 -0.488,4.717 0,6.702 0.28,2.374 0.559,4.746 0.838,7.121 1.23,3.768 3.421,7.179 3.771,11.728 -4.661,3.149 -6.034,10.09 -13.405,10.472 -0.428,-0.336 -0.114,-0.148 -0.838,-0.418 -5.168,-18.973 -9.932,-38.413 -18.012,-54.455 -2.981,-5.919 -4.406,-11.263 -7.959,-16.336 -1.483,-2.122 -3.921,-3.807 -5.444,-5.865 -0.559,-0.976 -1.118,-1.954 -1.677,-2.931 -1.766,-1.384 -3.862,-1.848 -5.444,-3.353 -2.323,-0.014 -3.341,0.428 -5.027,0.839 -1.009,1.505 -1.877,1.701 -2.095,4.187 2.299,2.629 2.332,6.938 4.189,10.055 1.349,2.264 3.64,4.486 5.026,6.702 1.698,2.712 2.444,5.383 3.77,8.377 2.03,4.58 5.126,9.101 7.122,13.823 1.174,2.781 1.165,5.353 2.513,7.96 3.782,7.318 7.256,15.185 10.472,23.038 2.955,7.216 4.041,15.385 6.702,22.62 1.123,3.054 0.574,6.616 3.351,7.958 2.703,2.314 6.947,-0.855 8.797,-2.094 5.064,-3.395 12.901,-14.858 18.431,-15.499 4.087,6.632 8.873,13.726 12.566,20.525 0.14,0.699 0.279,1.396 0.419,2.095 4.326,6.829 9.513,13.624 13.823,20.525 5.307,8.498 7.578,18.845 13.404,26.809 0.915,1.25 2.651,1.866 3.771,2.931 1.217,-0.024 2.289,-0.02 2.932,0.42" /><path
           id="path78"
           style="fill:#242321;fill-opacity:1;fill-rule:nonzero;stroke:none"
           d="m 450.12,711.28 c 8.244,-0.458 13.261,-8.479 19.269,-11.728 3.313,-1.794 5.924,-1.404 5.865,-6.703 -4.471,-3.471 -6.066,-4.792 -12.567,-2.932 -1.396,0.14 -2.793,0.279 -4.19,0.418 -4.477,1.727 -6.973,6.78 -9.214,10.892 -1.321,2.419 -2.913,3.061 -2.933,7.121 1.261,1.172 2.318,1.83 3.77,2.932" /><path
           id="path80"
           style="fill:#242321;fill-opacity:1;fill-rule:nonzero;stroke:none"
           d="m 422.055,703.74 c 1.216,0.025 2.29,0.021 2.932,-0.419 4.841,-1.743 9.028,-14.972 9.215,-21.782 -0.887,-0.96 -1.425,-2.622 -2.514,-3.351 -4.004,-2.684 -13.68,-2.904 -16.335,0.838 -1.148,1.617 -1.003,3.29 -1.676,5.445 -0.426,1.366 -1.67,5.054 -0.837,7.54 0.685,2.046 4.667,8.865 6.283,10.054 0.98,0.722 2.075,0.883 2.932,1.675" /><path
           id="path82"
           style="fill:#242321;fill-opacity:1;fill-rule:nonzero;stroke:none"
           d="m 302.674,513.987 c 8.906,-0.046 16.572,1.202 25.97,1.257 0.41,-1.119 0.538,-0.72 0.837,-2.095 -4.814,-2.928 -11.731,-3.955 -18.012,-5.446 h -3.77 c -7.692,-1.788 -23.454,-4.962 -32.254,-3.351 v 0.839 c -1.717,3.139 5.709,6.826 7.541,8.377 3.802,3.218 7.953,5.379 12.148,8.377 2.573,1.841 4.618,4.841 7.119,6.702 3.403,2.533 8.186,4.839 9.636,9.216 -0.42,0.138 -0.837,0.278 -1.257,0.42 -1.551,0.963 -3.232,-0.137 -5.028,0 -4.284,0.322 -11.746,-0.184 -17.592,-0.42 -0.661,0.943 -1.668,2.133 -2.513,2.932 -0.054,1.891 0.049,3.567 0.838,4.609 1.429,3.941 8.728,8.853 12.147,11.309 3.893,2.797 6.664,7.133 10.053,10.472 4.029,3.97 9.358,6.053 12.566,10.892 -1.434,0.767 -3.362,0.884 -5.864,0.837 -1.641,-1.062 -13.135,-0.493 -15.499,0 -1.052,1.624 -1.668,2.067 -1.675,5.026 15.674,16.438 28.144,36.097 41.889,54.455 1.313,1.753 3.867,2.277 5.445,3.769 0.736,-0.264 0.408,-0.08 0.837,-0.418 3.389,-2.327 5.141,-7.093 7.96,-10.053 9.474,-9.961 19.748,-19.991 28.065,-30.998 3.257,-4.311 12.179,-9.917 12.566,-16.338 -1.159,-1.015 -2.231,-2.762 -3.77,-3.349 -3.902,-1.489 -7.264,-0.397 -7.54,-5.445 2.829,-2.871 4.709,-6.313 7.123,-9.636 2.539,-3.499 6.032,-6.613 8.377,-10.472 1.065,-1.755 3.719,-6.172 2.094,-8.795 -1.969,-3.179 -10.416,-2.151 -14.661,-2.933 -0.264,-0.735 -0.08,-0.408 -0.42,-0.837 0.265,-0.735 0.08,-0.408 0.42,-0.839 0.774,-1.945 7.961,-7.054 10.053,-7.958 1.2,-0.518 2.317,-0.193 3.351,-0.839 5.398,-3.376 8.874,-7.18 8.796,-16.335 -1.39,-0.91 -2.371,-2.519 -3.77,-3.351 -1.856,-1.106 -4.149,-0.82 -6.282,-1.675 -5.658,-2.271 -12.751,-3.108 -19.689,-4.609 -7.119,0.281 -14.242,0.559 -21.363,0.839 -1.452,-2.196 -1.754,-4.247 -1.674,-8.378 0.741,-1.181 0.046,-3.291 0.419,-5.026 1.587,-7.427 0.396,-16.808 0,-24.715 -0.611,-0.357 -1.203,-0.758 -1.677,-1.256 -9.492,-0.185 -14.713,-0.189 -19.686,4.607 -0.108,8.612 0,17.014 0,26.39 0,4.169 -1.507,10.142 -0.839,13.404 1.523,7.443 5.763,13.499 15.079,13.405 2.716,-2.641 5.383,-5.179 7.96,-7.959 1.236,0.368 1.928,1.331 2.932,1.675 5.631,1.928 14.796,0.786 20.525,2.095 2.513,0.573 4.69,-0.389 6.282,0.837 0.455,0.38 0.036,-0.033 0.421,0.419 -4.714,2.69 -20.035,14.636 -21.365,19.688 -2.063,7.842 10.266,8.509 17.176,8.378 0.546,1.012 0.755,1.186 0.837,2.931 -2.001,2.02 -3.321,4.815 -5.027,7.121 -3.929,5.308 -8.747,10.503 -12.565,15.918 -1.304,1.848 -1.919,4.11 -3.353,5.864 1.471,6.008 9.067,6.251 9.636,10.472 -3.979,4.004 -6.585,9.306 -10.473,13.405 -2.776,2.927 -6.003,5.47 -8.797,8.376 -1.404,1.462 -5.484,6.896 -7.958,5.447 -4.262,-2.888 -5.982,-8.184 -9.215,-12.147 -3.536,-4.336 -12.692,-13.048 -13.824,-18.85 h 0.837 c 3.49,-2.277 12.119,-1.556 16.338,-2.514 0.14,-0.419 0.279,-0.838 0.419,-1.256 2.15,-3.399 -1.587,-9.422 -2.933,-11.31 -3.295,-4.63 -8.857,-9.135 -13.404,-12.568 -4.164,-3.141 -7.29,-8.007 -12.148,-10.472 0.266,-0.734 0.082,-0.405 0.42,-0.837 2.156,-1.304 3.517,0.733 6.701,0 3.39,-0.78 7.74,-1.392 10.891,-2.095 0.379,-1.014 0.449,-0.664 0.839,-1.675 2.864,-4.607 -1.924,-8.563 -3.35,-10.472 -3.277,-4.379 -6.956,-7.225 -10.894,-10.892 -1.266,-1.179 -1.93,-3.156 -3.35,-4.188 -2.932,-2.132 -9.181,-3.979 -10.052,-7.958" /><path
           id="path84"
           style="fill:#242321;fill-opacity:1;fill-rule:nonzero;stroke:none"
           d="m 449.283,544.565 c 1.955,-0.695 3.133,-0.763 3.349,-3.351 -0.335,-0.427 -0.148,-0.115 -0.417,-0.837 -6.123,-3.7 -18.942,-10.08 -19.27,-18.851 0.814,-0.92 1.168,-2.563 2.094,-3.351 3.148,-2.674 7.322,-3.533 10.893,-5.865 1.513,-0.987 3.034,-2.804 4.605,-3.768 1.976,-1.212 4.343,-1.31 6.284,-2.513 2.524,-1.568 4.738,-4.184 7.122,-5.866 4.636,-3.268 11.202,-3.943 11.728,-11.309 -3.383,-4.117 -5.006,-7.381 -10.053,-10.053 -6.142,-3.253 -15.6,-3.29 -23.039,-5.027 -2.232,-0.14 -4.467,-0.279 -6.702,-0.419 -16.241,-4.085 -33.744,-5.05 -50.684,-8.797 -5.585,-0.138 -11.171,-0.278 -16.755,-0.417 -4.13,-0.969 -9.271,-2.506 -13.824,-1.678 -0.271,0.529 -0.457,0.868 -0.837,1.258 v 0.837 c 7.234,3.569 16.623,3.533 25.132,5.865 15.433,4.227 32.303,6.399 46.915,10.89 5.6,1.722 10.791,3.073 15.499,5.026 3.147,1.308 6.428,0.355 6.702,4.609 -1.664,1.055 -2.712,2.961 -4.607,3.771 -2.758,1.176 -5.223,1.078 -7.541,2.513 -4.017,2.487 -7.942,6.051 -12.148,8.378 -4.928,2.727 -11.596,3.903 -12.145,10.89 1.407,1.541 1.604,3.778 2.512,5.865 1.481,3.406 4.582,7.237 7.539,9.214 5.5,3.68 12.124,7.034 18.012,10.053 2.825,1.449 7.229,1.055 9.636,2.933" /><path
           id="path86"
           style="fill:#242321;fill-opacity:1;fill-rule:nonzero;stroke:none"
           d="m 477.347,542.471 c 1.296,0.039 2.652,0.059 3.35,-0.42 1.493,-0.465 1.808,-0.806 2.096,-2.512 -4.74,-2.819 -12.044,-5.119 -12.148,-12.567 0.337,-0.428 0.15,-0.114 0.419,-0.839 8.908,-5.592 19.434,-10.41 28.485,-15.916 3.576,-2.176 7.777,-2.841 11.31,-5.026 3.729,-2.31 6.957,-5.954 10.472,-8.379 1.964,-1.355 4.029,-1.915 5.863,-3.35 2.984,-2.337 9.825,-12.879 10.892,-17.174 2.959,-11.934 -15.879,-16.617 -22.621,-20.107 -7.664,-3.967 -18.823,-6.259 -27.646,-8.795 -2.83,-0.815 -5.481,-0.275 -8.378,-1.258 -2.972,-1.009 -7.037,-2.894 -10.052,-3.771 -2.235,-0.139 -4.469,-0.279 -6.702,-0.417 -6.38,-1.483 -13.891,-2.661 -20.108,-4.19 -2.932,-0.139 -5.863,-0.279 -8.795,-0.419 -9.758,-2.647 -22.092,-4.854 -33.511,-5.026 -0.513,0.954 -0.687,0.942 -0.838,2.514 4.484,2.272 9.125,2.492 14.661,4.188 2.884,0.884 6.392,3.24 9.217,4.189 h 2.931 c 4.517,1.216 10.16,2.918 14.661,4.19 1.674,0.138 3.352,0.278 5.027,0.417 8.399,2.376 16.859,5.391 24.294,8.378 1.537,0.279 3.073,0.559 4.607,0.837 5.605,2.026 12.26,4.244 17.176,7.123 3.877,2.272 8,3.412 11.728,5.863 1.631,1.072 3.058,3.027 4.607,4.189 2.068,1.55 6.129,3.932 5.027,8.378 -1.21,4.88 -5.272,6.985 -8.796,9.635 -1.393,1.047 -2.297,3.194 -3.771,4.188 -1.903,1.283 -4.03,1.626 -5.864,2.932 -1.261,0.898 -2.299,2.635 -3.77,3.351 -1.737,0.845 -3.273,0.751 -5.026,1.675 -4.192,2.211 -8.962,5.976 -13.405,7.958 -6.188,2.767 -19.593,6.949 -19.687,15.081 2.758,2.058 4.656,5.591 7.54,7.541 4.512,3.049 12.945,4.026 16.755,7.539" /><path
           id="path88"
           style="fill:#66c873;fill-opacity:1;fill-rule:nonzero;stroke:none"
           d="m 297.272,566.451 c -0.985,-6.54 -2.616,-12.768 -4.652,-13.508 -2.744,3.318 -7.201,1.078 -12.147,2.512 -2.98,0.864 -7.557,0.414 -11.31,1.258 -3.413,0.767 -6.85,2.021 -10.473,2.514 -1.582,0.213 -2.83,-0.982 -3.77,-1.258 -2.738,-0.802 -10.245,0.827 -14.241,0.839 -0.14,0.419 -0.28,0.837 -0.42,1.256 0.829,0.612 1.778,1.659 2.803,3.012 6.178,8.161 15.078,27.527 16.466,30.917 1.475,3.603 4.986,17.511 7.54,18.849 1.353,-1.201 3.149,-0.852 5.026,-1.675 2.939,-1.289 5.231,-4.709 7.959,-6.283 h 1.676 c 2.085,-1.782 14.54,4.021 16.755,7.541 5.741,9.12 24.158,41.578 27.228,43.144 1.726,-2.468 4.84,-3.605 6.701,-5.864 1.037,-1.259 1.669,-3.201 2.934,-4.19 2.306,-1.804 5.387,-2.684 6.7,-5.445 -3.417,-1.329 -4.656,-6.388 -6.7,-9.215 -3.956,-5.471 -22.044,-29.294 -26.81,-35.606 -1.235,-1.636 -11.08,-11.913 -10.472,-13.404 0.537,-1.996 0.195,-8.851 -0.793,-15.394" /><path
           id="path90"
           style="fill:#66c873;fill-opacity:1;fill-rule:nonzero;stroke:none"
           d="m 348.331,640.908 h 1.257 c 1.395,2.072 4.046,3.322 5.445,5.445 1.484,2.251 1.652,6.411 4.608,7.121 2.476,-11.1 1.3,-13.065 11.31,-17.174 1.985,-0.815 5.516,-1.848 8.377,-0.418 0.957,0.477 2.016,1.94 2.933,2.513 1.116,0.418 2.234,0.837 3.352,1.256 1.139,1.049 1.005,2.546 2.512,3.351 v -0.419 c 4.459,-3.534 7.505,-10.468 10.892,-15.08 4.2,-5.72 9.295,-11.332 13.404,-17.173 6.25,-8.884 11.181,-18.389 17.592,-27.227 2.181,-3.008 5.797,-5.286 8.379,-7.959 2.278,-0.067 3.141,0.035 3.768,1.675 1.231,1.585 0.711,6.993 0,9.635 -1.813,6.745 -3.514,15.255 -4.607,22.199 2.38,0.956 2.488,3.809 3.77,5.865 1.967,3.151 4.624,6.139 7.121,8.796 1.816,0.141 3.631,0.28 5.446,0.42 0.946,-3.213 3.397,-6.145 5.026,-8.796 1.904,-3.101 2.685,-6.49 4.607,-9.636 1.412,-2.308 3.515,-4.535 5.027,-6.7 2.199,-3.15 2.889,-6.74 5.026,-10.053 1.139,-1.766 3.373,-3.365 4.61,-5.028 4.509,-6.073 8.088,-12.424 12.566,-18.431 1.676,-1.535 3.352,-3.071 5.025,-4.609 3.82,-4.013 7.723,-7.91 11.73,-11.726 1.821,-1.735 4.927,-2.898 5.864,-5.446 h -2.932 c -1.478,1.076 -3.673,0.656 -5.446,0.418 -1.431,0.804 -5.616,-0.372 -7.541,-0.837 -3.126,-0.759 -5.113,1.068 -7.958,0.419 -2.374,-0.545 -4.642,-2.197 -6.701,-2.932 -2.383,3.597 -3.343,1.04 -5.027,2.094 -1.145,0.717 -1.277,3.652 -4.19,4.607 -3.79,1.246 -15.193,-0.36 -18.011,-1.257 -1.086,-0.344 -2.211,-1.76 -2.933,-2.094 -1.254,0.279 -2.512,0.559 -3.769,0.838 l -0.838,-0.838 c -2.087,-0.67 -3.381,-0.111 -5.446,-0.837 -2.666,-0.939 -5.069,-3.042 -7.54,-4.19 -10.37,-4.811 -17.825,-8.802 -22.199,-19.686 -1.686,0.617 -2.321,0.494 -4.19,0.837 0.258,9.466 -8.355,12.142 -14.662,16.337 -2.634,1.754 -7.092,3.288 -7.538,7.121 0.417,0.138 0.838,0.278 1.256,0.418 1.742,1.114 8.381,0.881 11.311,0.838 1.415,2.047 2.529,2.061 2.512,5.864 -1.96,2.11 -2.522,5.565 -4.189,7.96 -2.954,4.242 -13.494,14.114 -13.823,19.268 1.361,0.82 2.626,2.332 4.189,2.932 4.094,1.57 7.13,0.615 7.121,6.283 -6.732,6.449 -12.27,14.339 -18.431,21.363 -5.375,6.128 -11.349,11.396 -16.336,18.012 -3.273,4.342 -10.936,8.267 -11.729,14.661" /><path
           id="path92"
           style="fill:#139b5b;fill-opacity:1;fill-rule:nonzero;stroke:none"
           d="m 344.98,621.639 c 5.486,-0.316 7.145,-4.631 10.053,-7.54 4.636,-4.64 9.114,-8.77 12.985,-14.241 1.751,-2.477 4.541,-3.723 5.026,-7.541 -3.749,-2.012 -9.449,-3.661 -9.633,-9.214 3.673,-4.465 6.299,-9.49 9.633,-14.242 2.17,-3.09 5.31,-5.772 7.541,-8.797 1.401,-1.9 5.676,-6.772 2.095,-8.377 -0.929,-0.399 -4.933,0.561 -7.121,0 -4.993,-1.28 -9.37,-2.066 -9.215,-8.797 1.163,-1.21 1.338,-3.399 2.512,-4.607 1.095,-1.129 2.918,-1.555 4.188,-2.514 2.492,-1.879 4.507,-4.8 7.123,-6.702 2.129,-1.549 6.487,-3.392 7.121,-6.285 -0.455,-0.38 -0.037,0.034 -0.421,-0.417 -6.222,0.058 -14.852,-0.822 -20.523,-2.095 -1.055,-0.237 -3.462,0.631 -5.448,0 -1.614,-0.513 -2.169,-1.527 -4.605,-1.675 -2.01,3.419 -4.798,5.322 -7.54,7.959 -8.601,0.057 -11.822,-6.086 -14.243,-12.147 -1.652,0.308 -5.727,-0.47 -5.864,-0.42 0,0 -1.104,1.212 -1.257,1.257 -4.607,-0.14 -9.216,-0.28 -13.824,-0.42 -3.297,-0.729 -7.807,-1.477 -11.31,-0.837 v 1.257 c 7.667,4.85 14.18,10.581 20.107,17.173 3.897,4.332 8.434,6.178 8.378,14.661 -0.889,0.61 -1.168,1.099 -1.675,2.094 -5.185,0.64 -10.821,1.64 -17.594,1.676 -0.14,0.419 -0.28,0.839 -0.417,1.256 7.325,4.261 12.691,11.273 18.849,16.757 2.756,2.454 6.131,4.625 7.958,7.958 1.869,3.407 2.615,6.383 1.676,10.472 -1.27,0.474 -1.694,0.812 -3.77,0.838 -2.952,1.746 -10.764,0.137 -13.405,2.095 -0.315,0.449 -0.252,0.394 -0.419,1.256 2.951,2.168 5.669,8.177 7.96,11.31 4.643,6.349 10.698,12.183 15.079,18.849" /><path
           id="path94"
           style="fill:#6b76c3;fill-opacity:1;fill-rule:nonzero;stroke:none"
           d="m 463.523,547.078 c 4.219,0.003 8.983,-0.268 12.568,-1.257 0.487,-1.552 1.056,-1.711 1.256,-3.77 -6.824,-1.423 -23.309,-9.361 -24.295,-15.918 -2.09,-3.671 11.75,-10.209 14.661,-11.726 11.202,-5.845 22.86,-11.079 33.091,-18.013 1.479,-1.002 2.331,-3.179 3.771,-4.188 3.304,-2.32 7.879,-4.663 8.377,-9.635 2.063,-3.579 -2.396,-6.603 -4.188,-7.958 -1.686,-1.277 -3.261,-3.428 -5.027,-4.609 -6.056,-4.051 -12.77,-6.45 -20.106,-9.214 -11.046,-4.166 -22.712,-8.362 -34.348,-12.15 -2.863,-0.931 -5.206,-0.421 -8.378,-1.254 -4.58,-1.205 -10.208,-2.93 -14.661,-4.19 h -2.931 c -3,-1 -6.5,-3.267 -9.636,-4.189 -2.62,-0.771 -4.362,-0.409 -6.702,-1.257 -1.72,-0.624 -4.914,-2.331 -6.702,-2.514 -1.151,-0.117 -2.236,1.65 -4.19,0.839 -0.417,-0.559 -0.838,-1.117 -1.256,-1.676 -0.826,-0.293 -1.644,0.848 -2.931,0.42 -0.682,-0.229 -3.343,-1.531 -4.608,-1.256 -0.517,0.109 -0.97,1.227 -2.514,0.836 -0.635,-0.16 -0.869,-0.774 -2.094,-0.836 -1.256,0.138 -2.513,0.277 -3.771,0.417 -0.688,-0.164 -1.038,-1.125 -2.513,-0.838 -1.301,0.254 -2.351,1.481 -4.189,0.838 -0.179,-0.061 -0.968,-1.186 -1.256,-1.256 -2.04,-0.503 -5.021,1.34 -6.702,1.675 -1.941,0.388 -2.575,-0.601 -4.189,-0.836 -0.625,1.06 -0.632,1.324 -2.095,1.673 -1.478,-3.279 -8.292,1.696 -10.892,1.678 -0.686,-0.406 -10.538,-0.803 -11.308,-0.42 -0.418,0.697 -0.837,1.396 -1.257,2.093 h -2.095 c -0.705,0.365 -1.272,1.688 -2.093,2.095 -2.172,1.077 -4.992,0.944 -5.865,3.351 -1.128,1.693 -0.146,5.113 0,7.121 1.536,0.684 2.318,-0.128 3.352,0.42 1.578,0.837 2.51,4.097 4.189,5.026 3.215,1.783 9.124,4.045 12.566,5.026 h 2.931 c 2.098,0.635 3.579,2.109 6.284,2.515 0.522,-1.016 0.995,-1.331 1.675,-2.095 5.069,-0.072 9.236,1.14 13.404,2.095 h 7.54 c 5.584,0.417 11.17,0.837 16.755,1.256 17.086,4.026 35.378,5.145 52.781,9.216 5.006,1.171 9.809,0.571 14.66,2.095 5.851,1.834 14.945,6.703 15.079,14.24 -1.459,1.487 -2.067,3.782 -3.77,5.027 -2.464,1.803 -5.352,2.444 -7.958,4.188 -1.19,0.797 -2.187,2.514 -3.351,3.352 -2.662,1.914 -5.269,2.569 -8.377,4.188 -2.216,1.154 -4.239,3.332 -6.283,4.607 -4.604,2.874 -12.42,4.163 -12.987,10.892 0.836,1.024 0.826,2.703 1.676,3.77 2.259,2.833 6.184,6.816 9.216,8.797 3.208,2.094 8.454,2.142 8.795,7.121 -0.335,0.428 -0.148,0.114 -0.417,0.837 1.096,0.644 2.413,1.697 3.768,2.094 2.574,0.754 5.672,-0.081 7.54,1.257" /><path
           id="path96"
           style="fill:#f7ee33;fill-opacity:1;fill-rule:nonzero;stroke:none"
           d="m 431.271,770.761 c 2.835,0.006 5.513,-0.74 7.54,-1.675 v -0.838 c -15.112,0.268 -22.376,-5.047 -23.04,-0.838 -1.615,0.021 -3.135,0.176 -3.77,1.257 0.42,0.139 0.839,0.279 1.257,0.419 4.07,3.399 13.775,-2.095 18.013,1.675" /></g><text
         xml:space="preserve"
         style="font-style:normal;font-variant:normal;font-weight:400;font-size:29.32712173px;line-height:125%;font-family:Forte;text-align:start;letter-spacing:0px;word-spacing:0px;text-anchor:start;fill:#000000;fill-opacity:1;stroke:none;stroke-width:1.98827958"
         transform="scale(1,-1)"
         x="710.29626"
         y="-211.68425"
         id="text904"><tspan
           style="stroke-width:1.98827958"
           x="710.29626"
           y="-211.68425"
           id="tspan902"><tspan
             dx="0"
             dy="0"
             style="font-style:normal;font-variant:normal;font-weight:400;font-size:29.32712173px;font-family:Forte;fill:#000000;stroke-width:1.98827958"
             id="tspan900"> </tspan></tspan></text>
</g><g
       id="g98"><g
         clip-path="url(#clipPath104)"
         id="g100"><path
           id="path106"
           style="fill:#231f20;fill-opacity:1;fill-rule:nonzero;stroke:none"
           d="m 73.367,476.579 c -4.366,-1.022 -8.731,-2.406 -13.096,-4.204 v -1.281 c 0,-2.498 0.501,-4.546 1.507,-6.178 1.005,-1.633 2.118,-2.228 3.338,-1.8 1.244,0.436 3.045,1.688 5.403,3.64 2.357,1.95 5.044,4.445 8.059,7.399 0.419,0.432 0.838,0.861 1.256,1.286 0.861,0.82 1.447,1.414 1.759,1.8 1.412,1.46 2.297,2.186 2.656,2.228 0.431,0.048 0.647,-0.493 0.647,-1.617 0,-1.229 -0.157,-2.644 -0.467,-4.246 -0.312,-1.603 -0.707,-3.157 -1.186,-4.665 -0.478,-1.508 -0.958,-2.603 -1.436,-3.283 -1.366,-1.934 -3.701,-4.167 -7.005,-6.948 -3.305,-2.786 -6.656,-5.342 -10.057,-7.713 -1.149,-0.751 -2.203,-1.324 -3.16,-1.708 -3.281,-1.315 -6.28,-1.802 -8.998,-1.363 -2.718,0.437 -4.825,1.745 -6.321,4.103 -1.497,2.353 -2.245,5.519 -2.245,9.582 0,3.34 0.49,7.36 1.471,12.024 0.982,4.661 2.359,9.551 4.13,14.591 1.772,5.038 3.772,9.768 5.998,14.131 1.94,3.813 4.106,7.388 6.5,10.666 2.395,3.277 4.723,5.871 6.985,7.805 2.262,1.933 4.339,3.082 6.231,3.493 2.969,0.644 5.512,-0.166 7.631,-2.3 2.119,-2.141 3.179,-4.971 3.179,-8.378 0,-1.501 -0.192,-3.156 -0.575,-4.966 -0.383,-1.811 -0.896,-3.415 -1.542,-4.819 -0.67,-1.51 -1.662,-3.028 -2.976,-4.587 -1.316,-1.561 -2.798,-2.988 -4.449,-4.308 -1.984,-1.526 -3.682,-2.503 -5.092,-2.877 -1.411,-0.377 -2.116,-0.099 -2.116,0.894 0,0.579 0.392,1.603 1.178,3.051 0.857,1.33 1.678,3.047 2.464,5.154 0.762,2.2 1.429,4.727 2,7.586 0.571,2.857 0.858,5.049 0.858,6.586 0,1.264 -0.263,1.842 -0.789,1.726 -0.836,-0.186 -2.34,-1.835 -4.513,-5.064 -2.174,-3.232 -3.893,-6.392 -5.158,-9.389 -1.195,-2.804 -2.174,-5.604 -2.938,-8.375 -0.765,-2.771 -1.278,-5.412 -1.54,-7.907 6.385,2.616 12.77,4.353 19.155,5.372 2.105,0.331 3.158,-0.325 3.158,-1.852 0,-1.436 -1.173,-3.889 -3.517,-7.501 -2.32,-3.377 -4.449,-5.319 -6.387,-5.788" /><path
           id="path108"
           style="fill:#231f20;fill-opacity:1;fill-rule:nonzero;stroke:none"
           d="m 110.77,498.025 c 0.191,0.503 0.383,1.006 0.574,1.508 0.598,1.691 1.094,2.796 1.489,3.317 0.394,0.521 0.926,0.729 1.596,0.621 1.961,-0.319 2.943,-3.662 2.943,-9.969 0,-1.841 -0.096,-3.409 -0.288,-4.705 -0.191,-1.295 -0.514,-2.517 -0.967,-3.666 -0.551,-1.541 -1.292,-3.283 -2.224,-5.234 -0.933,-1.95 -1.99,-4.008 -3.174,-6.185 -1.183,-2.176 -2.445,-4.367 -3.783,-6.58 -2.391,-4.079 -4.411,-7.106 -6.061,-9.028 -1.65,-1.923 -3.036,-2.889 -4.159,-2.871 -2.08,0.033 -3.562,1.806 -4.447,5.396 -0.622,2.267 -1.19,5.007 -1.704,8.223 -0.514,3.215 -0.914,6.474 -1.201,9.781 -0.287,3.307 -0.43,6.511 -0.43,9.613 0,4.294 0.269,7.933 0.806,10.911 0.537,2.976 1.272,4.946 2.205,5.896 0.836,0.707 1.72,1.064 2.651,1.068 1.099,0.004 2.132,-0.257 3.1,-0.776 0.968,-0.518 1.726,-1.275 2.276,-2.255 0.502,-0.74 0.878,-1.707 1.129,-2.897 0.25,-1.19 0.417,-2.99 0.501,-5.4 0.084,-2.409 0.126,-5.728 0.126,-9.957 v -2.608 -4.911 -5.78 c 0.048,-0.003 0.096,-0.006 0.144,-0.01 0.454,1.439 0.825,2.54 1.112,3.304 0.766,2.093 2.248,6.523 4.449,13.211 0.454,1.417 1.316,4.052 2.583,7.881 0.252,0.702 0.503,1.402 0.754,2.102" /><path
           id="path110"
           style="fill:#231f20;fill-opacity:1;fill-rule:nonzero;stroke:none"
           d="m 145.781,473.024 c -0.227,-0.031 -0.454,-0.063 -0.681,-0.094 -1.723,-0.149 -2.966,-0.116 -3.732,0.113 -0.933,0.279 -1.399,0.756 -1.399,1.439 0,0.238 0.189,0.814 0.569,1.726 1.328,2.505 1.993,5.031 1.993,7.59 0,1.467 -0.179,2.86 -0.539,4.18 -0.359,1.318 -0.755,2.043 -1.186,2.17 -0.384,0.115 -0.971,-0.292 -1.762,-1.22 -2.23,-2.797 -3.997,-5.84 -5.304,-9.102 -1.306,-3.263 -1.959,-6.319 -1.959,-9.15 0,-1.877 0.27,-3.499 0.81,-4.869 0.539,-1.372 1.217,-2.167 2.033,-2.39 0.695,-0.191 1.997,0.507 3.905,2.071 1.908,1.563 4.049,3.72 6.424,6.464 0.324,0.275 0.648,0.549 0.972,0.822 -0.048,0.084 -0.096,0.167 -0.144,0.25 m -2.24,-10.976 v -0.204 c -0.048,0.083 -0.096,0.166 -0.144,0.248 -2.222,-3.038 -4.26,-5.482 -6.112,-7.324 -1.851,-1.843 -3.56,-3.162 -5.125,-3.951 -1.565,-0.788 -3.005,-1.026 -4.319,-0.708 -2.676,0.649 -4.887,2.41 -6.631,5.324 -1.744,2.914 -2.616,6.311 -2.616,10.233 0,2.419 0.43,5.204 1.292,8.341 0.861,3.136 2.047,6.135 3.554,8.976 2.513,4.633 5.672,8.285 9.478,10.883 3.925,2.669 7.706,3.419 11.345,2.299 3.062,-0.943 5.582,-2.652 7.556,-5.085 1.975,-2.436 2.962,-5.026 2.962,-7.756 0,-2.015 -0.491,-3.986 -1.471,-5.917 1.285,-0.422 2.09,-0.885 2.418,-1.385 0.327,-0.5 0.491,-1.464 0.491,-2.894 0,0.136 -0.058,-0.544 -0.171,-2.037 -0.137,-3.326 -0.204,-6.453 -0.204,-9.381 0,-1.532 0.011,-2.693 0.035,-3.484 0.023,-0.791 0.071,-1.708 0.142,-2.753 0.071,-1.045 0.142,-1.887 0.213,-2.522 0.189,-1.663 0.496,-3.348 0.922,-5.056 -1.437,-1.531 -2.814,-2.549 -4.132,-3.053 -1.317,-0.505 -2.658,-0.539 -4.023,-0.102 -3.688,1.177 -5.532,6.127 -5.532,14.927 0,1.022 0.023,1.816 0.072,2.381" /><path
           id="path112"
           style="fill:#231f20;fill-opacity:1;fill-rule:nonzero;stroke:none"
           d="m 170.2,436.194 c 1.406,-0.368 2.688,0.185 3.844,1.659 1.157,1.474 1.735,3.304 1.735,5.484 0,1.499 -0.347,2.805 -1.04,3.921 -0.742,1.3 -2.404,2.888 -4.986,4.775 -3.801,2.842 -6.276,5.434 -7.423,7.763 -1.077,1.931 -1.614,3.986 -1.614,6.17 0,3.921 0.999,7.507 2.997,10.757 1.998,3.249 4.552,5.6 7.663,7.069 3.111,1.467 6.246,1.688 9.405,0.681 1.531,-0.488 2.967,-1.45 4.306,-2.883 1.34,-1.435 2.405,-3.111 3.195,-5.031 0.789,-1.922 1.184,-3.869 1.184,-5.844 0,-1.943 -0.429,-3.827 -1.287,-5.649 -0.857,-1.822 -1.935,-3.227 -3.234,-4.205 -1.299,-0.979 -2.532,-1.281 -3.699,-0.911 -0.668,0.213 -1.246,0.602 -1.735,1.167 -0.488,0.565 -0.732,1.086 -0.732,1.562 0,0.476 0.094,1.143 0.283,2 0.52,2.756 0.779,5.224 0.779,7.401 0,2.141 -0.456,4.311 -1.368,6.51 -1.177,-0.777 -1.945,-1.444 -2.305,-2.007 -0.912,-1.201 -1.62,-2.67 -2.124,-4.41 -0.552,-1.758 -0.828,-3.505 -0.828,-5.241 0,-1.226 0.195,-2.269 0.583,-3.131 0.389,-0.861 1.033,-1.695 1.929,-2.501 0.897,-0.805 2.253,-1.814 4.069,-3.01 3.036,-2.033 5.175,-3.713 6.418,-5.08 0.286,-0.325 0.729,-0.954 1.327,-1.883 0.908,-1.67 1.362,-3.609 1.362,-5.824 0,-2.352 -0.514,-4.577 -1.54,-6.67 -1.028,-2.093 -2.614,-4.089 -4.763,-5.968 -2.293,-2.039 -4.573,-3.279 -6.841,-3.728 -2.268,-0.447 -4.775,-0.208 -7.52,0.715 -2.651,0.89 -4.735,2.346 -6.25,4.356 -1.516,2.013 -2.274,4.315 -2.274,6.91 0,1.844 0.501,3.546 1.505,5.104 1.003,1.557 2.251,2.683 3.744,3.376 1.493,0.693 2.955,0.798 4.389,0.317 1.074,-0.36 1.612,-0.881 1.612,-1.565 0,-0.343 -0.156,-0.855 -0.468,-1.537 -0.938,-2.08 -1.407,-4.127 -1.407,-6.144 0,-1.436 0.369,-2.927 1.109,-4.475" /><path
           id="path114"
           style="fill:#231f20;fill-opacity:1;fill-rule:nonzero;stroke:none"
           d="m 202.048,479.794 c -2.255,0.645 -3.381,2.869 -3.381,6.612 0,1.874 0.329,3.959 0.989,6.261 0.659,2.303 1.409,3.947 2.249,4.937 0.431,0.542 0.869,0.898 1.312,1.067 0.444,0.169 1.014,0.174 1.709,0.017 1.199,-0.269 2.08,-0.873 2.645,-1.826 0.563,-0.951 0.846,-2.396 0.846,-4.337 0,-2.417 -0.294,-4.648 -0.882,-6.687 -0.588,-2.039 -1.373,-3.626 -2.357,-4.751 -0.983,-1.127 -1.99,-1.566 -3.021,-1.318 -0.036,0.008 -0.073,0.017 -0.109,0.025 m -4.31,-50.356 c -1.077,0.384 -2.059,1.346 -2.944,2.883 -0.885,1.605 -1.513,3.255 -1.884,4.944 -0.371,1.688 -0.556,3.795 -0.556,6.316 0,5.622 0.735,11.755 2.207,18.42 1.471,6.666 3.138,11.339 4.999,14.038 0.74,1.142 1.767,1.551 3.079,1.24 1.384,-0.328 2.499,-1.481 3.347,-3.471 0.847,-1.99 1.271,-4.445 1.271,-7.374 0,-4.328 -0.434,-9.306 -1.302,-14.926 -0.87,-5.62 -2.089,-11.386 -3.66,-17.281 -0.623,-2.373 -1.388,-3.892 -2.296,-4.55 -0.624,-0.389 -1.353,-0.476 -2.19,-0.258 -0.024,0.006 -0.047,0.013 -0.071,0.019" /><path
           id="path116"
           style="fill:#231f20;fill-opacity:1;fill-rule:nonzero;stroke:none"
           d="m 234.769,476.024 c 3.558,0.024 5.337,-0.425 5.337,-1.632 0,-1.365 -0.798,-2.156 -2.395,-2.313 -1.931,-0.234 -3.731,-1.02 -5.398,-2.383 -1.669,-1.363 -3.154,-3.201 -4.453,-5.539 -1.298,-2.339 -2.312,-4.98 -3.039,-7.947 -0.726,-2.966 -1.09,-6.129 -1.09,-9.499 0,-3.709 0.608,-6.758 1.824,-9.12 1.216,-2.36 2.801,-3.601 4.757,-3.676 1.811,-0.069 3.396,1.242 4.755,3.906 1.36,2.666 2.039,5.789 2.039,9.328 0,2.893 -0.422,5.594 -1.268,8.118 -0.846,2.524 -2.077,4.652 -3.695,6.422 -0.692,0.799 -1.037,1.373 -1.037,1.713 0,0.477 0.49,1.19 1.468,2.16 1.098,1.036 2.326,1.917 3.687,2.657 1.359,0.74 2.505,1.146 3.435,1.195 1.074,0.057 2.093,-0.271 3.06,-0.989 0.967,-0.717 1.819,-1.771 2.559,-3.168 0.741,-1.398 1.307,-3.028 1.701,-4.9 0.393,-1.873 0.59,-3.898 0.59,-6.078 0,-3.61 -0.478,-7.25 -1.433,-10.895 -0.956,-3.644 -2.21,-6.638 -3.763,-8.946 -2.008,-2.924 -4.427,-5.316 -7.258,-7.092 -2.831,-1.776 -5.524,-2.556 -8.08,-2.386 -2.485,0.167 -4.952,1.025 -7.4,2.563 -2.449,1.539 -4.39,3.468 -5.823,5.721 -1.912,3.051 -2.868,7.108 -2.868,12.114 0,3.954 0.681,7.773 2.042,11.486 1.362,3.715 3.206,6.993 5.535,9.898 2.328,2.904 4.895,5.154 7.702,6.803 2.806,1.649 5.642,2.469 8.509,2.479" /><path
           id="path118"
           style="fill:#231f20;fill-opacity:1;fill-rule:nonzero;stroke:none"
           d="m 266.048,457.074 c 0.723,1.474 1.447,2.959 2.17,4.455 2.194,4.362 3.929,7.749 5.206,10.06 1.276,2.313 2.422,4.126 3.436,5.424 1.014,1.297 2.046,2.251 3.096,2.864 1.693,0.992 2.887,1.104 3.579,0.252 0.692,-0.85 1.038,-2.87 1.038,-6.075 0,-1.33 -0.092,-3.352 -0.275,-6.064 -0.276,-3.626 -0.412,-6.953 -0.412,-9.989 0,-3.411 0.122,-6.095 0.366,-8.049 0.17,-1.185 0.426,-2.313 0.768,-3.381 0.244,-1.065 0.366,-1.818 0.366,-2.261 0,-0.546 -0.144,-1.069 -0.431,-1.567 -0.743,-1.416 -1.726,-2.86 -2.946,-4.296 -1.222,-1.436 -2.252,-2.378 -3.09,-2.855 -1.365,-0.775 -2.606,-0.772 -3.719,-0.012 -1.113,0.761 -1.975,2.188 -2.586,4.25 -0.611,2.064 -0.916,4.583 -0.916,7.547 0,1.976 0.144,4.374 0.431,7.199 l -0.144,0.138 c -1.031,-2.113 -1.865,-3.77 -2.501,-4.994 -0.635,-1.224 -1.229,-2.371 -1.78,-3.443 -2.687,-5.435 -4.966,-10.131 -6.837,-14.212 -0.721,-1.583 -1.38,-2.966 -1.979,-4.155 -0.887,-1.509 -1.893,-2.405 -3.018,-2.674 -1.533,-0.367 -2.778,0.195 -3.735,1.646 -0.958,1.452 -1.437,3.486 -1.437,6.076 0,1.602 0.131,3.586 0.395,5.952 0.262,2.365 0.615,4.91 1.058,7.638 0.443,2.729 0.969,5.553 1.579,8.479 0.61,2.926 1.276,5.733 1.997,8.428 1.103,4.457 2.448,8.072 4.034,10.884 1.08,1.848 2.389,3.017 3.927,3.544 2.497,0.863 3.746,-0.914 3.746,-5.527 0,-3.377 -0.51,-8.431 -1.53,-15.129 z" /><path
           id="path120"
           style="fill:#231f20;fill-opacity:1;fill-rule:nonzero;stroke:none"
           d="m 80.674,627.016 c 1.323,3.401 2.452,7.213 3.386,11.441 0.933,4.227 1.4,7.717 1.4,10.478 0,1.804 -0.425,2.716 -1.274,2.729 -0.783,0.011 -2.21,-1.007 -4.284,-3.084 -3.093,-3.337 -5.846,-7.229 -8.259,-11.649 -2.414,-4.421 -4.267,-8.952 -5.558,-13.554 -1.292,-4.605 -1.938,-9.077 -1.938,-13.403 0,-3.407 0.367,-5.715 1.099,-6.931 0.733,-1.217 2.122,-1.765 4.168,-1.68 1.772,0.074 3.971,0.639 6.596,1.666 5.929,2.439 12.201,5.68 18.814,9.74 2.932,1.739 4.789,2.564 5.573,2.52 1.125,-0.067 1.688,-0.667 1.688,-1.792 v -0.102 c -0.171,-1.525 -0.699,-3.231 -1.586,-5.122 -1.773,-3.646 -3.308,-6.021 -4.603,-7.116 -2.183,-1.841 -5.175,-3.618 -8.977,-5.401 -3.803,-1.786 -7.698,-3.296 -11.689,-4.558 -3.99,-1.262 -7.332,-2.01 -10.025,-2.173 -3.103,-0.187 -6.036,0.157 -8.798,1.046 -2.762,0.888 -5.167,2.189 -7.213,3.94 -2.046,1.751 -3.648,3.871 -4.807,6.398 -1.16,2.526 -1.74,5.331 -1.74,8.433 0,2.351 0.375,4.969 1.125,7.844 0.75,2.875 1.84,5.934 3.272,9.156 1.432,3.223 3.051,6.269 4.857,9.126 1.057,1.703 2.156,3.334 3.298,4.891 1.142,1.558 2.403,3.084 3.783,4.572 1.38,1.488 2.888,2.922 4.525,4.296 1.636,1.372 3.136,2.529 4.499,3.48 2.386,1.715 4.856,3.191 7.413,4.427 2.557,1.235 4.926,2.122 7.107,2.681 2.182,0.559 4.175,0.806 5.982,0.754 4.465,-0.129 7.959,-1.469 10.481,-3.926 2.522,-2.46 3.783,-5.749 3.783,-9.837 0,-4.295 -1.056,-8.714 -3.168,-13.277 -2.113,-4.565 -4.923,-8.514 -8.432,-11.896 -2.42,-2.4 -4.821,-4.297 -7.206,-5.694 -2.385,-1.397 -4.531,-2.11 -6.44,-2.126 -1.67,-0.016 -2.504,0.765 -2.504,2.368 0,0.749 0.458,1.797 1.375,3.138 1.29,1.856 2.715,4.589 4.277,8.197" /><path
           id="path122"
           style="fill:#231f20;fill-opacity:1;fill-rule:nonzero;stroke:none"
           d="m 145.013,612.148 c -0.325,-0.075 -0.65,-0.149 -0.974,-0.224 -2.463,-0.473 -4.243,-0.655 -5.337,-0.557 -1.334,0.119 -2.001,0.52 -2.001,1.202 0,0.239 0.272,0.846 0.819,1.82 1.912,2.728 2.868,5.374 2.868,7.933 0,1.467 -0.256,2.828 -0.765,4.084 -0.51,1.256 -1.072,1.911 -1.683,1.966 -0.545,0.049 -1.378,-0.456 -2.499,-1.514 -3.162,-3.158 -5.67,-6.459 -7.524,-9.905 -1.853,-3.447 -2.779,-6.587 -2.779,-9.418 0,-1.877 0.383,-3.463 1.15,-4.761 0.765,-1.297 1.728,-1.999 2.886,-2.105 0.988,-0.09 2.835,0.797 5.543,2.666 2.708,1.869 5.748,4.391 9.121,7.582 0.46,0.336 0.92,0.672 1.379,1.009 -0.068,0.074 -0.136,0.148 -0.204,0.222 m -3.086,-11.403 v -0.204 c -0.068,0.073 -0.136,0.147 -0.204,0.221 -3.166,-3.441 -6.067,-6.22 -8.706,-8.349 -2.639,-2.129 -5.072,-3.691 -7.302,-4.69 -2.23,-0.998 -4.281,-1.416 -6.153,-1.252 -3.812,0.332 -6.962,1.867 -9.446,4.612 -2.486,2.747 -3.728,6.071 -3.728,9.991 0,2.42 0.612,5.242 1.839,8.458 1.227,3.217 2.912,6.328 5.059,9.325 3.576,4.894 8.072,8.9 13.488,12.02 5.586,3.207 10.967,4.565 16.144,4.12 4.36,-0.376 7.945,-1.555 10.755,-3.55 2.81,-1.996 4.215,-4.344 4.215,-7.076 0,-2.015 -0.699,-4.104 -2.096,-6.261 1.846,-0.127 3.011,-0.396 3.496,-0.818 0.483,-0.421 0.725,-1.346 0.725,-2.776 0,0.136 -0.086,-0.557 -0.256,-2.078 -0.205,-3.358 -0.306,-6.501 -0.306,-9.429 0,-1.532 0.016,-2.691 0.05,-3.476 0.034,-0.785 0.101,-1.691 0.203,-2.719 0.101,-1.027 0.203,-1.851 0.304,-2.469 0.27,-1.617 0.709,-3.227 1.318,-4.829 -2.048,-1.89 -4.01,-3.235 -5.887,-4.039 -1.877,-0.806 -3.787,-1.132 -5.731,-0.979 -5.255,0.417 -7.882,5.058 -7.882,13.852 0,1.023 0.033,1.82 0.101,2.395" /><path
           id="path124"
           style="fill:#231f20;fill-opacity:1;fill-rule:nonzero;stroke:none"
           d="m 185.191,595.514 c 0.956,-2.769 2.767,-4.134 5.433,-4.039 1.878,0.068 3.629,0.997 5.252,2.78 1.624,1.783 2.921,4.161 3.895,7.116 0.974,2.955 1.461,6.022 1.461,9.191 0,2.52 -0.197,4.684 -0.59,6.491 -0.392,1.807 -0.828,2.693 -1.307,2.656 -0.341,-0.025 -1.213,-0.997 -2.614,-2.893 -1.4,-1.895 -2.801,-4.066 -4.201,-6.516 -2.871,-4.763 -5.04,-8.901 -6.509,-12.472 -0.377,-0.928 -0.65,-1.699 -0.82,-2.314 m 3.8,21.762 c 0.531,1.016 1.062,2.035 1.593,3.055 1.508,2.714 2.905,4.999 4.19,6.848 1.285,1.849 2.426,3.227 3.42,4.127 0.994,0.899 2.177,1.662 3.548,2.301 1.131,0.549 2.365,0.892 3.702,1.035 2.605,0.278 4.91,-0.188 6.916,-1.432 2.005,-1.243 3.547,-3.184 4.627,-5.862 1.08,-2.677 1.62,-5.866 1.62,-9.583 0,-5.35 -1.204,-10.725 -3.612,-16.041 -2.409,-5.315 -5.568,-9.755 -9.478,-13.21 -3.91,-3.455 -7.949,-5.283 -12.115,-5.484 -2.426,-0.117 -4.449,0.336 -6.071,1.324 -1.623,0.988 -3.118,2.73 -4.483,5.218 -0.106,-0.291 -0.211,-0.581 -0.317,-0.872 -0.102,-0.376 -0.205,-0.752 -0.307,-1.128 -2.217,-7.145 -3.981,-12.377 -5.294,-15.723 -1.312,-3.344 -2.446,-5.376 -3.401,-6.103 -0.75,-0.697 -1.62,-1.031 -2.609,-0.997 -1.943,0.065 -3.461,1.088 -4.551,3.047 -1.092,1.962 -1.637,4.668 -1.637,8.114 0,3.753 0.409,8.235 1.227,13.448 0.819,5.216 1.953,10.52 3.402,15.922 1.449,5.403 3.053,10.308 4.812,14.722 1.15,2.694 2.418,5.051 3.805,7.076 1.387,2.024 2.705,3.498 3.957,4.42 0.913,0.545 1.895,0.824 2.943,0.837 1.555,0.02 2.757,-0.382 3.606,-1.221 0.848,-0.838 1.272,-2.046 1.272,-3.632 0,-1.344 -0.136,-2.831 -0.409,-4.459 -0.205,-1.592 -0.392,-3.424 -0.562,-5.497 0.069,-0.083 0.137,-0.167 0.206,-0.25" /><path
           id="path126"
           style="fill:#231f20;fill-opacity:1;fill-rule:nonzero;stroke:none"
           d="m 63.113,736.808 c -0.333,-1.22 -0.665,-2.441 -0.997,-3.664 -0.166,-0.799 -0.433,-1.884 -0.798,-3.255 -1.795,-6.987 -3.272,-11.709 -4.428,-14.123 -0.232,-0.49 -0.662,-1.237 -1.289,-2.247 -2.149,-2.793 -4.761,-4.816 -7.835,-6.201 -2.447,-1.105 -4.414,-1.538 -5.901,-1.206 -1.489,0.33 -2.232,1.336 -2.232,3.076 0,1.26 0.429,3.751 1.286,7.453 0.858,3.699 1.815,7.278 2.872,10.725 -2.564,-0.771 -3.845,-0.356 -3.845,1.425 0,1.261 0.404,2.909 1.215,4.925 0.809,2.014 1.826,3.967 3.049,5.832 1.223,1.865 2.414,3.244 3.571,4.14 0.492,1.695 1.428,5.218 2.807,10.526 3.136,11.495 5.678,19.229 7.625,23.359 0.792,1.423 1.469,2.543 2.031,3.367 1.715,2.207 3.911,3.687 6.585,4.346 1.65,0.407 3.11,0.43 4.381,0.093 1.271,-0.336 2.245,-0.976 2.921,-1.894 0.677,-0.92 1.016,-2.081 1.016,-3.476 0,-1.959 -2.355,-10.446 -7.066,-25.931 -0.067,-0.255 -0.173,-0.629 -0.322,-1.125 -0.148,-0.496 -0.288,-0.948 -0.42,-1.355 -0.066,-0.152 -0.131,-0.304 -0.197,-0.456 6.091,1.618 12.182,2.691 18.273,3.313 0.298,1.098 0.596,2.195 0.894,3.291 1.026,3.554 2.103,7.057 3.229,10.504 1.125,3.448 2.093,6.208 2.905,8.293 0.811,2.084 1.631,3.914 2.457,5.49 0.826,1.576 1.602,2.751 2.33,3.529 1.718,1.928 4.081,2.849 7.089,2.678 5.156,-0.31 7.735,-2.943 7.735,-7.535 0,-4.347 -2.248,-11.957 -6.744,-23.105 -0.661,-1.691 -1.058,-2.725 -1.189,-3.099 0.13,0.026 0.246,0.045 0.345,0.057 0.099,0.012 0.214,0.014 0.347,0.005 1.812,-0.109 3.246,-0.557 4.301,-1.31 1.054,-0.754 1.582,-1.7 1.582,-2.82 0,-0.749 -0.448,-1.775 -1.344,-3.088 -0.895,-1.315 -1.849,-2.471 -2.86,-3.47 -1.012,-0.998 -1.883,-1.702 -2.613,-2.104 -0.697,-0.338 -2.056,-0.654 -4.08,-1.005 -0.065,-0.271 -0.13,-0.542 -0.195,-0.813 -0.229,-0.506 -0.571,-1.435 -1.027,-2.789 -0.686,-1.965 -1.387,-3.943 -2.104,-5.934 -0.718,-1.991 -1.316,-3.543 -1.796,-4.653 -0.479,-1.109 -0.95,-2.043 -1.413,-2.799 -0.562,-0.827 -1.207,-1.54 -1.933,-2.142 -1.588,-1.312 -3.407,-2.429 -5.456,-3.384 -2.05,-0.955 -3.752,-1.534 -5.108,-1.694 -1.555,-0.185 -2.777,0.033 -3.67,0.68 -0.892,0.646 -1.339,1.677 -1.339,3.105 0,2.443 1.243,7.758 3.73,15.823 0.588,1.781 0.997,3.074 1.226,3.885 -5.867,-0.611 -11.734,-1.664 -17.601,-3.243" /><path
           id="path128"
           style="fill:#231f20;fill-opacity:1;fill-rule:nonzero;stroke:none"
           d="m 152.599,736.026 c -0.313,-0.022 -0.626,-0.045 -0.939,-0.068 -2.371,-0.081 -4.083,-0.003 -5.136,0.252 -1.284,0.311 -1.925,0.804 -1.925,1.486 0,0.239 0.263,0.808 0.792,1.705 1.846,2.456 2.77,4.954 2.77,7.514 0,1.467 -0.249,2.867 -0.746,4.2 -0.498,1.332 -1.045,2.071 -1.642,2.215 -0.531,0.127 -1.343,-0.258 -2.437,-1.161 -3.085,-2.723 -5.531,-5.72 -7.339,-8.952 -1.808,-3.235 -2.711,-6.279 -2.711,-9.11 0,-1.877 0.372,-3.503 1.117,-4.884 0.744,-1.382 1.68,-2.191 2.805,-2.434 0.96,-0.208 2.756,0.459 5.387,1.964 2.631,1.503 5.585,3.585 8.862,6.234 0.447,0.262 0.893,0.523 1.34,0.784 -0.066,0.085 -0.132,0.17 -0.198,0.255 m -2.963,-10.919 v -0.204 c -0.067,0.084 -0.133,0.169 -0.199,0.254 -3.077,-2.951 -5.897,-5.323 -8.46,-7.109 -2.565,-1.786 -4.93,-3.063 -7.097,-3.821 -2.167,-0.758 -4.16,-0.977 -5.979,-0.647 -3.705,0.67 -6.765,2.419 -9.18,5.31 -2.415,2.89 -3.622,6.263 -3.622,10.186 0,2.419 0.594,5.215 1.785,8.367 1.19,3.152 2.827,6.17 4.911,9.02 3.472,4.647 7.837,8.287 13.096,10.806 5.422,2.587 10.647,3.207 15.673,1.943 4.233,-1.066 7.713,-2.887 10.442,-5.409 2.728,-2.525 4.093,-5.16 4.093,-7.89 0,-2.015 -0.678,-3.964 -2.034,-5.85 1.791,-0.484 2.922,-0.989 3.392,-1.509 0.469,-0.519 0.704,-1.494 0.704,-2.923 0,0.136 -0.086,-0.539 -0.256,-2.024 -0.205,-3.315 -0.306,-6.437 -0.306,-9.365 0,-1.532 0.015,-2.694 0.048,-3.486 0.033,-0.791 0.098,-1.711 0.196,-2.759 0.097,-1.048 0.196,-1.893 0.295,-2.532 0.26,-1.671 0.685,-3.371 1.273,-5.097 -1.982,-1.467 -3.881,-2.423 -5.697,-2.869 -1.817,-0.446 -3.666,-0.42 -5.549,0.075 -5.086,1.336 -7.629,6.354 -7.629,15.155 0,1.021 0.033,1.814 0.1,2.378" /><path
           id="path130"
           style="fill:#231f20;fill-opacity:1;fill-rule:nonzero;stroke:none"
           d="m 194.941,725.098 c 0.988,0.95 1.976,1.903 2.963,2.86 2.995,2.724 5.379,4.746 7.151,6.034 1.771,1.289 3.361,2.164 4.769,2.618 1.407,0.455 2.84,0.54 4.298,0.257 2.351,-0.457 4.006,-1.396 4.967,-2.86 0.961,-1.463 1.441,-3.793 1.441,-6.998 0,-1.33 -0.134,-3.269 -0.4,-5.816 -0.401,-3.377 -0.6,-6.582 -0.6,-9.617 0,-3.411 0.167,-6.203 0.503,-8.374 0.235,-1.336 0.587,-2.691 1.057,-4.065 0.335,-1.283 0.503,-2.146 0.503,-2.589 0,-0.546 -0.199,-0.94 -0.597,-1.18 -1.027,-0.752 -2.387,-1.322 -4.076,-1.694 -1.69,-0.371 -3.114,-0.435 -4.274,-0.204 -1.889,0.379 -3.604,1.405 -5.145,3.068 -1.541,1.664 -2.733,3.774 -3.578,6.318 -0.846,2.544 -1.268,5.3 -1.268,8.264 0,1.976 0.199,4.263 0.595,6.863 -0.066,0.083 -0.132,0.167 -0.198,0.25 -1.42,-1.308 -2.568,-2.33 -3.443,-3.073 -0.875,-0.744 -1.692,-1.448 -2.452,-2.113 -3.698,-3.451 -6.835,-6.571 -9.41,-9.403 -0.991,-1.102 -1.899,-2.054 -2.725,-2.855 -1.223,-0.935 -2.612,-1.192 -4.165,-0.771 -2.115,0.574 -3.834,1.862 -5.156,3.861 -1.322,1.999 -1.983,4.293 -1.983,6.885 0,1.602 0.181,3.513 0.545,5.732 0.363,2.218 0.851,4.564 1.463,7.039 0.611,2.476 1.338,4.995 2.182,7.561 0.843,2.566 1.761,4.975 2.755,7.229 1.524,3.779 3.378,6.552 5.565,8.323 1.49,1.139 3.294,1.431 5.415,0.885 3.444,-0.886 5.167,-3.606 5.167,-8.213 0,-3.378 -0.69,-8.036 -2.067,-13.967 0.066,-0.085 0.132,-0.17 0.198,-0.255" /><path
           id="path132"
           style="fill:#231f20;fill-opacity:1;fill-rule:nonzero;stroke:none"
           d="m 256.978,712.737 v 2.99 c -1.677,-1.629 -2.926,-2.435 -3.747,-2.459 -0.461,-0.012 -0.69,0.222 -0.69,0.699 0,0.204 0.096,0.632 0.292,1.285 0.679,2.061 1.02,4.05 1.02,5.959 0,2.76 -0.578,5.601 -1.734,8.543 -0.496,1.523 -1.107,2.282 -1.833,2.278 -0.364,-0.003 -0.661,-0.174 -0.892,-0.515 -1.091,-1.298 -2.132,-3.12 -3.122,-5.471 -0.991,-2.351 -1.809,-4.9 -2.453,-7.659 -0.645,-2.758 -0.966,-5.21 -0.966,-7.361 0,-4.061 1.189,-6.16 3.568,-6.214 1.19,-0.025 2.784,0.68 4.783,2.159 1.999,1.479 3.923,3.404 5.774,5.766 m 1.537,24.414 c 0.166,0.71 0.331,1.421 0.496,2.132 1.026,4.746 1.951,8.604 2.779,11.564 0.827,2.961 1.678,5.488 2.555,7.586 0.877,2.097 1.745,3.65 2.606,4.657 1.389,1.732 3.887,2.854 7.493,3.597 1.588,0.33 2.77,0.523 3.548,0.541 0.777,0.016 1.398,-0.132 1.861,-0.455 -1.589,-5.497 -2.689,-9.563 -3.302,-12.245 -0.612,-2.681 -1.282,-6.318 -2.01,-10.905 -1.125,-7.468 -1.688,-14.105 -1.688,-19.94 0,-3.856 0.307,-7.8 0.922,-11.822 0.614,-4.022 1.619,-8.432 3.016,-13.195 -1.755,-1.666 -3.435,-3.083 -5.041,-4.263 -1.605,-1.18 -3.128,-2.121 -4.568,-2.836 -1.44,-0.715 -2.707,-1.123 -3.799,-1.241 -1.92,-0.208 -3.277,0.66 -4.071,2.545 -0.662,1.554 -1.093,2.815 -1.291,3.774 -0.199,0.96 -0.547,3.642 -1.043,8.05 -4.429,-5.023 -8.667,-8.793 -12.716,-11.392 -4.049,-2.597 -7.278,-3.7 -9.69,-3.471 -2.777,0.267 -5.049,1.717 -6.817,4.289 -1.768,2.574 -2.652,5.721 -2.652,9.405 0,3.31 0.686,6.884 2.057,10.739 1.371,3.857 3.263,7.527 5.676,11.059 1.586,2.322 3.214,4.278 4.883,5.871 1.669,1.594 3.561,3.068 5.676,4.448 3.834,2.433 7.039,3.74 9.617,3.807 1.256,0.033 3.09,-0.758 5.503,-2.299" /><path
           id="path134"
           style="fill:#231f20;fill-opacity:1;fill-rule:nonzero;stroke:none"
           d="m 296.907,750.66 c -3.107,-1.266 -4.661,0.091 -4.661,3.828 0,1.874 0.454,4.219 1.363,7.056 0.91,2.838 1.943,5.101 3.1,6.803 0.595,0.909 1.198,1.641 1.81,2.196 0.611,0.555 1.396,1.061 2.355,1.531 1.652,0.81 2.867,1.033 3.645,0.614 0.776,-0.419 1.165,-1.591 1.165,-3.532 0,-2.417 -0.406,-4.932 -1.215,-7.527 -0.811,-2.594 -1.893,-4.915 -3.248,-6.93 -1.356,-2.015 -2.744,-3.34 -4.165,-3.973 -0.05,-0.022 -0.099,-0.044 -0.149,-0.066 m -5.971,-53.883 c -1.489,-0.457 -2.845,-0.233 -4.068,0.656 -1.223,0.956 -2.092,2.163 -2.603,3.59 -0.513,1.428 -0.769,3.407 -0.769,5.928 0,5.625 1.017,12.257 3.05,19.991 2.033,7.739 4.336,13.679 6.909,17.887 1.022,1.742 2.441,2.995 4.255,3.816 1.912,0.866 3.454,0.724 4.625,-0.487 1.171,-1.209 1.757,-3.259 1.757,-6.188 0,-4.327 -0.601,-9.72 -1.801,-16.141 -1.201,-6.419 -2.887,-13.291 -5.058,-20.532 -0.859,-2.906 -1.918,-5.071 -3.173,-6.473 -0.861,-0.899 -1.87,-1.574 -3.026,-2.01 -0.033,-0.012 -0.066,-0.025 -0.098,-0.037" /></g></g></g></svg>